<svg id="uuid-6bd2fd6b-0522-46fe-819d-9d18cbfb7284" xmlns="http://www.w3.org/2000/svg" viewBox="0 0 270.32 269.85"><defs><style>.uuid-7d08584e-78d1-446a-ac7c-69722dbd0bf0{fill:#231f20;stroke-width:0}</style></defs><g id="uuid-094146b0-c3f2-41be-9b49-0a80680a68f2"><path class="uuid-7d08584e-78d1-446a-ac7c-69722dbd0bf0" d="M110.85 46.08a22.706 22.706 0 0 1-2.25-9.88c0-12.58 10.24-22.82 22.82-22.82 3.5 0 6.82.79 9.78 2.21 1.28-.77 2.58-1.55 3.8-2.28a26.491 26.491 0 0 0-13.59-3.74c-14.68 0-26.63 11.94-26.63 26.63 0 5 1.39 9.68 3.79 13.68.72-1.21 1.49-2.51 2.27-3.8ZM152.45 19.9c-.61 1.17-1.36 2.29-2.26 3.35 2.55 3.68 4.04 8.14 4.04 12.95 0 12.58-10.24 22.82-22.82 22.82-4.82 0-9.29-1.51-12.98-4.07-.94.76-1.93 1.42-2.95 1.96-.16.08-.31.16-.47.24a26.475 26.475 0 0 0 16.4 5.67c14.68 0 26.63-11.94 26.63-26.63 0-6.14-2.09-11.79-5.59-16.3Z"/><path class="uuid-7d08584e-78d1-446a-ac7c-69722dbd0bf0" d="M135.25 23.26c-1.48 1.33-1.05 2.78-1.44 4.76-.21 1.09-.53 2.42-1.63 4.03-.67.55-1.47.19-2.77-.9-.53-.45-1.34-.85-2.68-.78-1.35.08-3.45-1.57-3.85-1.75-.4-.19-.99.22-.51.79.39.46 4.36 5.1 5.82 6.81-1.92 1.5-3.46 1.87-4.69 2.11-1.98.38-3.43-.05-4.76 1.44-1.33 1.48-9.59 15.59-9.59 15.59s6.91.47 12.6-9.55l9.66-3.96s1.46-.15 2.34.64c.88.78 1.34 4.79 1.34 4.79s1.87.02 3.57-1.38c.69-.08 1.36-.39 1.9-.92s.84-1.21.92-1.91c1.33-1.68 1.31-3.49 1.31-3.49s-4.01-.46-4.79-1.34c-.78-.88-.64-2.34-.64-2.34l3.96-9.66c10.01-5.68 9.55-12.6 9.55-12.6s-14.11 8.26-15.59 9.59Z"/><path class="uuid-7d08584e-78d1-446a-ac7c-69722dbd0bf0" d="M131.41 72.4c-19.96 0-36.2-16.24-36.2-36.2S111.45 0 131.41 0s36.2 16.24 36.2 36.2-16.24 36.2-36.2 36.2Zm0-68.59c-17.86 0-32.39 14.53-32.39 32.39s14.53 32.39 32.39 32.39S163.8 54.06 163.8 36.2 149.27 3.81 131.41 3.81ZM58.99 86.49h-9.36v-3.5h14.91v3.29L54.38 98.43H64.8v3.5H48.83v-3.29l10.16-12.15ZM65.46 88.6c.42-1.21 1.03-2.27 1.83-3.17.8-.9 1.77-1.61 2.93-2.12 1.16-.51 2.46-.77 3.91-.77s2.78.26 3.93.77c1.15.51 2.12 1.22 2.92 2.12.8.9 1.41 1.96 1.83 3.17.42 1.21.64 2.52.64 3.94s-.21 2.67-.64 3.86a9.182 9.182 0 0 1-1.83 3.12c-.8.88-1.77 1.58-2.92 2.08s-2.46.76-3.93.76-2.75-.25-3.91-.76c-1.16-.5-2.14-1.2-2.93-2.08-.8-.88-1.41-1.92-1.83-3.12-.42-1.19-.64-2.48-.64-3.86s.21-2.73.64-3.94Zm3.81 6.26c.19.75.48 1.43.89 2.03.41.6.94 1.08 1.59 1.45.65.36 1.45.54 2.39.54s1.73-.18 2.39-.54a4.52 4.52 0 0 0 1.59-1.45c.41-.6.7-1.28.89-2.03.19-.75.28-1.52.28-2.32s-.09-1.64-.28-2.41c-.19-.78-.48-1.47-.89-2.08-.41-.61-.94-1.1-1.59-1.46-.65-.36-1.45-.54-2.39-.54s-1.73.18-2.39.54c-.65.36-1.18.85-1.59 1.46-.41.61-.7 1.3-.89 2.08-.19.78-.28 1.58-.28 2.41s.09 1.57.28 2.32ZM93.63 86.49h-9.36v-3.5h14.91v3.29L89.02 98.43h10.42v3.5H83.47v-3.29l10.16-12.15ZM100.1 88.6c.42-1.21 1.03-2.27 1.83-3.17.8-.9 1.77-1.61 2.93-2.12 1.16-.51 2.46-.77 3.91-.77s2.78.26 3.93.77c1.15.51 2.12 1.22 2.92 2.12.8.9 1.41 1.96 1.83 3.17.42 1.21.64 2.52.64 3.94s-.21 2.67-.64 3.86a9.182 9.182 0 0 1-1.83 3.12c-.8.88-1.77 1.58-2.92 2.08s-2.46.76-3.93.76-2.75-.25-3.91-.76c-1.16-.5-2.14-1.2-2.93-2.08-.8-.88-1.41-1.92-1.83-3.12s-.64-2.48-.64-3.86.21-2.73.64-3.94Zm3.81 6.26c.19.75.48 1.43.89 2.03.41.6.94 1.08 1.59 1.45.65.36 1.45.54 2.39.54s1.73-.18 2.39-.54a4.52 4.52 0 0 0 1.59-1.45c.41-.6.7-1.28.89-2.03.19-.75.28-1.52.28-2.32s-.09-1.64-.28-2.41c-.19-.78-.48-1.47-.89-2.08-.41-.61-.94-1.1-1.59-1.46-.65-.36-1.45-.54-2.39-.54s-1.73.18-2.39.54c-.65.36-1.18.85-1.59 1.46-.41.61-.7 1.3-.89 2.08-.19.78-.28 1.58-.28 2.41s.09 1.57.28 2.32ZM125.19 82.99l4.43 13.02h.05l4.19-13.02h5.86v18.94h-3.9V88.51h-.05l-4.64 13.42h-3.21l-4.64-13.29h-.05v13.29h-3.9V82.99h5.86ZM151.77 82.99l7.08 18.94h-4.32l-1.43-4.22h-7.08l-1.49 4.22h-4.19l7.16-18.94h4.27Zm.24 11.61-2.39-6.95h-.05l-2.47 6.95h4.91ZM169.65 82.99c.85 0 1.61.14 2.29.41.68.27 1.26.65 1.75 1.13.49.48.86 1.03 1.11 1.66.26.63.38 1.3.38 2.03 0 1.11-.23 2.08-.7 2.89s-1.23 1.43-2.29 1.86v.05c.51.14.94.36 1.27.65.34.29.61.64.82 1.03.21.4.37.84.46 1.31.1.48.16.95.2 1.43.02.3.04.65.05 1.06.02.41.05.82.09 1.25.04.42.11.83.21 1.21.1.38.24.7.44.97h-4.16c-.23-.6-.37-1.32-.42-2.15-.05-.83-.13-1.63-.24-2.39-.14-.99-.44-1.72-.9-2.18-.46-.46-1.21-.69-2.25-.69h-4.16v7.4h-4.16V82.98h10.21Zm-1.49 8.56c.95 0 1.67-.21 2.15-.64.48-.42.72-1.11.72-2.07s-.24-1.59-.72-2c-.48-.42-1.19-.62-2.15-.62h-4.56v5.33h4.56ZM181.69 82.99v18.94h-4.16V82.99h4.16ZM188.43 82.99l7.9 12.7h.05v-12.7h3.9v18.94h-4.16l-7.88-12.68h-.05v12.68h-3.9V82.99h4.14ZM216.51 82.99v3.5h-10v4.06h9.18v3.24h-9.18v4.64h10.21v3.5h-14.38V82.99h14.16ZM97.06 121.62c.16.31.37.56.64.75.26.19.58.33.93.42.36.09.73.14 1.11.14.26 0 .54-.02.83-.06.3-.04.57-.13.83-.25s.47-.29.65-.51c.17-.22.26-.49.26-.82 0-.36-.11-.65-.34-.87-.23-.22-.53-.41-.9-.55a8.79 8.79 0 0 0-1.25-.39c-.47-.11-.94-.23-1.42-.37-.49-.12-.97-.27-1.44-.45s-.89-.41-1.25-.69c-.37-.28-.67-.64-.9-1.06-.23-.42-.34-.94-.34-1.54 0-.68.14-1.26.43-1.76s.67-.91 1.13-1.25c.47-.33 1-.58 1.59-.74.59-.16 1.18-.24 1.77-.24.69 0 1.35.08 1.98.23.63.15 1.2.4 1.69.75.49.34.88.78 1.17 1.32.29.54.43 1.18.43 1.95h-2.81c-.02-.39-.11-.72-.25-.98a1.65 1.65 0 0 0-.56-.61c-.23-.15-.5-.25-.8-.31-.3-.06-.63-.09-.99-.09-.23 0-.47.02-.7.07-.23.05-.45.14-.64.26s-.35.28-.47.46-.18.42-.18.7c0 .26.05.47.15.63.1.16.29.31.58.44.29.14.69.27 1.2.41.51.14 1.18.31 2 .52.25.05.59.14 1.02.27.44.13.87.34 1.3.62.43.28.8.66 1.12 1.13.31.47.47 1.08.47 1.82 0 .6-.12 1.16-.35 1.68-.23.52-.58.96-1.04 1.34-.46.38-1.03.67-1.72.88-.68.21-1.47.31-2.37.31-.73 0-1.43-.09-2.11-.27a5.38 5.38 0 0 1-1.81-.84c-.52-.38-.94-.87-1.25-1.46-.31-.59-.46-1.29-.44-2.1h2.81c0 .44.08.82.24 1.13ZM105.27 114.13v-2.44h10.8v2.44h-3.95v10.74h-2.9v-10.74h-3.95ZM122.03 111.7l4.93 13.18h-3.01l-1-2.93h-4.93l-1.03 2.93h-2.92l4.98-13.18h2.97Zm.16 8.08-1.66-4.84h-.04l-1.72 4.84h3.41ZM133.41 111.7c.85 0 1.64.14 2.37.41.73.27 1.37.68 1.9 1.22.54.54.95 1.22 1.25 2.03.3.81.45 1.77.45 2.86 0 .96-.12 1.85-.37 2.66s-.62 1.51-1.12 2.1a5.29 5.29 0 0 1-1.86 1.39c-.74.34-1.62.51-2.63.51h-5.68V111.7h5.68Zm-.2 10.74c.42 0 .82-.07 1.22-.2.39-.14.74-.36 1.05-.67.31-.31.55-.72.74-1.23.18-.5.28-1.12.28-1.85 0-.66-.06-1.26-.19-1.8s-.34-.99-.64-1.37c-.3-.38-.69-.67-1.17-.88-.49-.2-1.09-.3-1.8-.3h-2.07v8.31h2.58ZM143.56 111.7v13.18h-2.9V111.7h2.9ZM155.06 123.87c-1 .87-2.37 1.3-4.13 1.3s-3.17-.43-4.14-1.29c-.98-.86-1.47-2.19-1.47-3.99v-8.19h2.9v8.19c0 .36.03.71.09 1.05.06.34.19.65.39.91s.47.48.82.65c.35.17.82.25 1.41.25 1.03 0 1.75-.23 2.14-.69.39-.46.59-1.18.59-2.17v-8.19h2.9v8.19c0 1.78-.5 3.11-1.49 3.98ZM162.39 111.7l3.08 9.06h.04l2.92-9.06h4.08v13.18h-2.71v-9.34h-.04l-3.23 9.34h-2.23l-3.23-9.25h-.04v9.25h-2.71V111.7h4.08ZM15.44 150.87l11.67 34.31h.14l11.04-34.31h15.44v49.89H43.46v-35.35h-.14l-12.23 35.35h-8.45l-12.23-35h-.14v35H0v-49.89h15.44ZM62.88 165.64c1.12-3.19 2.73-5.97 4.82-8.35s4.67-4.24 7.72-5.59c3.05-1.35 6.49-2.03 10.31-2.03s7.31.68 10.34 2.03c3.03 1.35 5.59 3.21 7.69 5.59 2.1 2.38 3.7 5.16 4.82 8.35 1.12 3.19 1.68 6.65 1.68 10.38s-.56 7.02-1.68 10.17c-1.12 3.14-2.72 5.88-4.82 8.21-2.1 2.33-4.66 4.16-7.69 5.49-3.03 1.33-6.47 1.99-10.34 1.99s-7.26-.66-10.31-1.99c-3.05-1.33-5.62-3.16-7.72-5.49-2.1-2.33-3.7-5.07-4.82-8.21-1.12-3.14-1.68-6.53-1.68-10.17s.56-7.19 1.68-10.38Zm10.03 16.49c.49 1.98 1.27 3.76 2.34 5.35 1.07 1.58 2.47 2.85 4.19 3.81 1.72.95 3.82 1.43 6.29 1.43s4.56-.48 6.29-1.43c1.72-.95 3.12-2.22 4.19-3.81 1.07-1.58 1.85-3.36 2.34-5.35.49-1.98.73-4.02.73-6.11s-.24-4.31-.73-6.36c-.49-2.05-1.27-3.88-2.34-5.48a11.804 11.804 0 0 0-4.19-3.84c-1.72-.95-3.82-1.43-6.29-1.43s-4.57.48-6.29 1.43c-1.72.96-3.12 2.24-4.19 3.84-1.07 1.61-1.85 3.44-2.34 5.48-.49 2.05-.73 4.17-.73 6.36s.24 4.13.73 6.11ZM141.21 150.87c2.38 0 4.54.21 6.5.63 1.96.42 3.63 1.11 5.03 2.06 1.4.96 2.48 2.22 3.25 3.81.77 1.58 1.15 3.54 1.15 5.87 0 2.52-.57 4.61-1.71 6.29-1.14 1.68-2.83 3.05-5.07 4.12 3.07.89 5.37 2.43 6.88 4.65 1.51 2.21 2.27 4.88 2.27 8 0 2.51-.49 4.69-1.47 6.53-.98 1.84-2.29 3.34-3.95 4.51-1.65 1.16-3.54 2.03-5.66 2.58-2.12.56-4.3.84-6.53.84h-24.18v-49.89h23.48Zm-1.4 20.19c1.96 0 3.56-.46 4.82-1.4 1.26-.93 1.89-2.45 1.89-4.54 0-1.16-.21-2.12-.63-2.86s-.98-1.33-1.68-1.75c-.7-.42-1.5-.71-2.41-.87-.91-.16-1.85-.24-2.83-.24H128.7v11.67h11.11Zm.63 21.17c1.07 0 2.1-.1 3.07-.31.98-.21 1.84-.56 2.58-1.05s1.34-1.15 1.78-1.99c.44-.84.66-1.91.66-3.21 0-2.56-.72-4.39-2.17-5.48-1.44-1.09-3.35-1.64-5.73-1.64h-11.95v13.69h11.74ZM177.89 150.87v49.89h-10.97v-49.89h10.97ZM198.5 150.87v40.66h24.31v9.22h-35.28v-49.89h10.97ZM266.27 150.87v9.22h-26.34v10.69h24.17v8.52h-24.17v12.23h26.9v9.22h-37.87v-49.89h37.31ZM1.75 232.41c1.17-3.3 2.84-6.17 5.03-8.63 2.19-2.45 4.87-4.38 8.06-5.78 3.18-1.4 6.77-2.09 10.76-2.09s7.63.7 10.79 2.09c3.16 1.4 5.83 3.32 8.02 5.78s3.87 5.33 5.03 8.63c1.17 3.3 1.75 6.87 1.75 10.72s-.58 7.26-1.75 10.5c-1.17 3.25-2.84 6.08-5.03 8.48-2.19 2.41-4.86 4.3-8.02 5.67-3.16 1.37-6.76 2.06-10.79 2.06s-7.57-.69-10.76-2.06c-3.19-1.37-5.87-3.26-8.06-5.67-2.19-2.41-3.87-5.23-5.03-8.48C.58 250.38 0 246.88 0 243.13s.58-7.42 1.75-10.72Zm10.47 17.04c.51 2.05 1.32 3.89 2.44 5.52 1.12 1.64 2.58 2.95 4.38 3.94 1.8.99 3.99 1.48 6.56 1.48s4.76-.49 6.56-1.48c1.8-.99 3.26-2.3 4.38-3.94 1.12-1.64 1.93-3.48 2.44-5.52.51-2.04.77-4.15.77-6.32s-.26-4.45-.77-6.57-1.33-4.01-2.44-5.67c-1.12-1.66-2.58-2.98-4.38-3.97-1.8-.99-3.99-1.48-6.56-1.48s-4.77.49-6.56 1.48c-1.8.99-3.26 2.31-4.38 3.97-1.12 1.66-1.93 3.55-2.44 5.67s-.77 4.31-.77 6.57.26 4.27.77 6.32ZM90.23 217.14c2.33 0 4.44.37 6.31 1.12 1.87.75 3.48 1.77 4.81 3.07 1.34 1.3 2.36 2.8 3.06 4.51.7 1.71 1.06 3.55 1.06 5.52 0 3.03-.65 5.66-1.93 7.87-1.29 2.21-3.39 3.9-6.31 5.05v.14c1.41.39 2.58.98 3.5 1.77.92.79 1.68 1.73 2.26 2.82a13.16 13.16 0 0 1 1.28 3.57c.27 1.3.45 2.6.55 3.9.05.82.1 1.78.15 2.89.05 1.11.13 2.24.26 3.39.12 1.15.32 2.25.58 3.28.27 1.04.67 1.91 1.2 2.64H95.56c-.63-1.64-1.02-3.59-1.17-5.85-.15-2.26-.36-4.43-.66-6.5-.39-2.69-1.22-4.67-2.48-5.92-1.27-1.25-3.33-1.88-6.2-1.88H73.6v20.14H62.15v-51.55h28.08Zm-4.09 23.32c2.63 0 4.59-.58 5.91-1.73 1.31-1.15 1.97-3.03 1.97-5.63s-.66-4.32-1.97-5.45-3.28-1.7-5.91-1.7H73.6v14.51h12.54ZM140.41 217.14c3.36 0 6.48.53 9.37 1.59 2.89 1.06 5.4 2.65 7.51 4.77s3.77 4.76 4.96 7.94c1.19 3.18 1.79 6.91 1.79 11.19 0 3.75-.49 7.22-1.46 10.4-.97 3.18-2.44 5.92-4.41 8.23-1.97 2.31-4.43 4.13-7.37 5.45-2.94 1.32-6.41 1.99-10.39 1.99h-22.46v-51.55h22.46Zm-.8 42.02c1.65 0 3.26-.26 4.81-.79 1.56-.53 2.94-1.41 4.16-2.64 1.21-1.23 2.19-2.83 2.92-4.8.73-1.97 1.09-4.38 1.09-7.22 0-2.6-.26-4.95-.77-7.04s-1.35-3.89-2.52-5.38c-1.17-1.49-2.71-2.64-4.63-3.43s-4.29-1.19-7.11-1.19h-8.17v32.49h10.21ZM213.94 217.14v9.53h-27.5v11.05h25.23v8.81h-25.23v12.63h28.08v9.53h-39.53v-51.55h38.95ZM253.55 217.14c2.33 0 4.44.37 6.31 1.12 1.87.75 3.48 1.77 4.81 3.07 1.34 1.3 2.36 2.8 3.06 4.51.7 1.71 1.06 3.55 1.06 5.52 0 3.03-.65 5.66-1.93 7.87-1.29 2.21-3.39 3.9-6.31 5.05v.14c1.41.39 2.58.98 3.5 1.77.92.79 1.68 1.73 2.26 2.82s1.01 2.27 1.28 3.57c.27 1.3.45 2.6.55 3.9.05.82.1 1.78.15 2.89.05 1.11.13 2.24.26 3.39.12 1.15.32 2.25.58 3.28.27 1.04.67 1.91 1.2 2.64h-11.45c-.63-1.64-1.02-3.59-1.17-5.85-.15-2.26-.36-4.43-.66-6.5-.39-2.69-1.22-4.67-2.48-5.92-1.27-1.25-3.33-1.88-6.2-1.88h-11.45v20.14h-11.45v-51.55h28.08Zm-4.09 23.32c2.63 0 4.59-.58 5.91-1.73 1.31-1.15 1.97-3.03 1.97-5.63s-.66-4.32-1.97-5.45-3.28-1.7-5.91-1.7h-12.54v14.51h12.54Z"/></g></svg>