<svg xmlns="http://www.w3.org/2000/svg" xmlns:xlink="http://www.w3.org/1999/xlink" version="1.1" id="レイヤー_1" x="0px" y="0px" viewBox="0 0 120.8006668 33.304882" style="enable-background:new 0 0 120.8006668 33.304882;" xml:space="preserve">
<style type="text/css">
	.st0{fill:#FFFFFF;}
</style>
<g>
	<path class="st0" d="M87.5004272,23.6816902h14.6289444v-4.4816666h-7.4256744l7.4256744-7.8671083V4.0589724l-3.2374954-3.1635299   h-8.3402939l-3.0511551,3.1635299v6.1710749H92.09729V5.3406024h5.3251953V9.459075l-9.9220581,10.4777708V23.6816902z    M86.613739,24.5261555h16.3577271v-6.1748657h-6.2445526l6.2445526-6.649478v-8.015049l-3.7154388-3.673233h-9.0363541   L86.613739,3.7270761v7.3839431h6.3251801V6.2258434h3.6381454v2.904171L86.613739,19.6044731V24.5261555z M87.0589828,24.125021   v-4.3379955L96.981987,9.3139849V5.7825141h-4.4475327v4.8913398h-5.4754715V3.873584l3.3067245-3.4195755h8.7087173   l3.4921188,3.4195755v7.6461525l-6.8718567,7.2393312h6.8718567v5.3659534H87.0589828z"/>
	<path class="st0" d="M110.688736,15.1529169h3.5651321v3.1981421h-3.5651321V15.1529169z M110.2472916,18.7588348h4.4110413   v-4.0098896h-4.4110413V18.7588348z M109.8101273,14.3117657h5.2891617v4.888504h-5.2891617V14.3117657z M105.2132645,20.4847355   l3.1241684,3.1972008h8.3440857l3.0805588-3.1972008v-7.5318832l-3.0805588-3.1260672h-6.8713913v-4.486414h5.2891617v1.9131985   h4.6627884V4.0592184l-3.0805588-3.1640074h-8.3440857l-3.1241684,3.1640074V20.4847355z M104.3313217,20.8512592   l3.6334229,3.6746655h9.0453568l3.6377029-3.6746655v-8.2293634l-3.6377029-3.6381578h-6.3213654V6.2260895h3.5651321v1.9117661   h6.3939362V3.7273076l-3.6377029-3.7135317h-9.0453568l-3.6334229,3.7135317V20.8512592z M104.7718124,20.666811V3.8738298   l3.3830719-3.4195752h8.6726913l3.3797379,3.4195752v3.8225918h-5.5489807v-1.913662h-4.4110413v3.59974h6.5802841   l3.3797379,3.422904v7.8614073l-3.3797379,3.458456h-8.6726913L104.7718124,20.666811z"/>
	<polygon class="st0" points="17.234808,0.8394005 17.234808,5.5671582 12.6493044,5.5671582 12.6493044,24.5260544    4.9320321,24.5260544 4.9320321,5.5671582 0.3507828,5.5671582 0.3507828,0.8394005  "/>
	<polygon class="st0" points="20.4599514,0.8394005 33.3122787,0.8394005 33.3122787,5.5671582 28.181015,5.5671582    28.181015,10.0777512 32.9647141,10.0777512 32.9647141,14.5916576 28.181015,14.5916576 28.181015,19.7992516    33.8105965,19.7992516 33.8105965,24.5260544 20.4599514,24.5260544  "/>
	<g>
		<path class="st0" d="M39.6544762,0.8393571l-3.9216957,23.6866531h7.980423l0.4243736-4.245533h2.7804222l0.4129715,4.245533    h7.8837051L50.790844,0.8393571H39.6544762z M44.0892181,16.0942001    c0.2067146-2.1071253,0.6922684-5.4380283,1.4570618-10.0045767c0.4006729,3.9809647,0.7932434,7.3133011,1.1815872,10.0045767    H44.0892181z"/>
		<path class="st0" d="M81.8145294,0.8394005v23.6866531h-6.7305679l-0.0241623-15.97365l-2.6633072,15.97365h-4.7784882    L64.8053436,8.8734045L64.777359,24.5260544h-6.7262878V0.8394005h9.955246    c0.2916031,1.4366751,0.6026459,3.1184852,0.9184341,5.0530272l1.1095276,6.0155373l1.7799454-11.0685644H81.8145294z"/>
		<path class="st0" d="M2.6417909,30.6972733c-0.0934033-0.7771358-0.182075-1.7382431-0.2754784-2.881424    c-0.182075,1.313406-0.2953889,2.2764072-0.3399708,2.881424H2.6417909z M3.5844052,26.2881432l1.0198977,6.8576431H2.7835672    l-0.097672-1.2346897H2.0467298l-0.1052541,1.2346897H0.0960832l0.9103607-6.8576431H3.5844052z"/>
		<path class="st0" d="M11.9370947,26.2881432v6.8576431h-1.5580626v-4.6291294l-0.6230316,4.6291294h-1.104764L7.9959512,28.623806    v4.5219803H6.4336338v-6.8576431h2.3105278c0.0692244,0.4129868,0.1375084,0.89851,0.2105236,1.4589596l0.2550898,1.7439289    l0.4087181-3.2028885H11.9370947z"/>
	</g>
	<polygon class="st0" points="12.657712,26.2881432 15.6282711,26.2881432 15.6282711,27.6622372 14.4386263,27.6622372    14.4386263,28.9590302 15.550972,28.9590302 15.550972,30.2643623 14.4386263,30.2643623 14.4386263,31.7735901    15.7453756,31.7735901 15.7453756,33.1457863 12.657712,33.1457863  "/>
	<g>
		<path class="st0" d="M21.7628231,26.2881432v6.8576431h-1.5618553v-4.6291294l-0.6192245,4.6291294h-1.1085701    l-0.6562405-4.5219803v4.5219803h-1.5575714v-6.8576431h2.3067379c0.0682678,0.4129868,0.1374931,0.89851,0.210537,1.4589596    l0.2550755,1.7439289l0.4082546-3.2028885H21.7628231z"/>
		<path class="st0" d="M24.2596359,30.0538387v1.9203186c0.2508221-0.0104332,0.4091816-0.0483589,0.4817333-0.1194935    c0.0687618-0.0711193,0.1009998-0.2446575,0.1009998-0.5220299v-0.6391525c0-0.2920895-0.0284481-0.4717903-0.0891342-0.5324783    C24.6887283,30.0984211,24.526577,30.0614357,24.2596359,30.0538387 M24.2596359,27.4621468v1.5229588    c0.0772991-0.0018959,0.1379852-0.0037918,0.1782703-0.0037918c0.174015,0,0.287344-0.0402985,0.3357029-0.1270733    c0.048357-0.0853443,0.0687599-0.3342705,0.0687599-0.7434654c0-0.2119408-0.0156555-0.3636723-0.0564327-0.4485378    c-0.0402832-0.0853596-0.0891342-0.1394043-0.1536121-0.1621647    C24.5673542,27.475893,24.4416981,27.4659367,24.2596359,27.4621468 M22.4792004,26.2881432h1.7766457    c0.5623302,0,0.9871674,0.0421944,1.2787647,0.1313438c0.287344,0.0848656,0.5220451,0.2626724,0.7003441,0.5305691    c0.1778069,0.2674179,0.2669411,0.6979561,0.2669411,1.2887497c0,0.4030151-0.0606861,0.6818218-0.1906261,0.8397179    c-0.1251659,0.1578808-0.3721962,0.2792683-0.7443905,0.3646126c0.4167614,0.0929413,0.6922398,0.2484627,0.8420906,0.4608822    c0.1450748,0.2185822,0.2180901,0.5481205,0.2180901,0.9952412v0.6353588c0,0.4656143-0.0526123,0.805584-0.1578941,1.0284348    c-0.1052551,0.2266426-0.2749882,0.3764801-0.5054359,0.4608688c-0.2304478,0.0815506-0.7045975,0.1218643-1.4248238,0.1218643    h-2.0597057V26.2881432z"/>
	</g>
	<polygon class="st0" points="27.2706547,26.2881432 30.2412128,26.2881432 30.2412128,27.6622372 29.0515537,27.6622372    29.0515537,28.9590302 30.1639137,28.9590302 30.1639137,30.2643623 29.0515537,30.2643623 29.0515537,31.7735901    30.3583317,31.7735901 30.3583317,33.1457863 27.2706547,33.1457863  "/>
	<g>
		<path class="st0" d="M32.6573143,27.4621468v1.5229588c0.1982079,0,0.3394928-0.0260754,0.4205818-0.0805969    c0.0805969-0.0564327,0.1213722-0.2351799,0.1213722-0.5362701v-0.3769417c0-0.2157459-0.0407753-0.3617764-0.1171188-0.4276867    C33.0048828,27.4962807,32.8635674,27.4621468,32.6573143,27.4621468 M30.8726215,26.2881432h1.2626743    c0.8416023,0,1.4082146,0.0322399,1.7073936,0.0971947c0.2992096,0.0673294,0.54245,0.2328205,0.7325821,0.4954929    c0.1863441,0.2693157,0.2792702,0.6922569,0.2792702,1.2806759c0,0.5324783-0.0649681,0.8909283-0.1982079,1.0748978    c-0.1337013,0.1820755-0.3968544,0.2930298-0.7851982,0.3300152c0.3561058,0.0867615,0.5908089,0.2038822,0.7121811,0.3537178    c0.121376,0.1455669,0.1944199,0.2792702,0.2266579,0.4025536c0.02845,0.1237469,0.0445671,0.4594479,0.0445671,1.0137329    v1.8093624h-1.6552734v-2.2787666c0-0.3679409-0.0279541-0.5945835-0.0853424-0.6794643    c-0.0602226-0.0891342-0.2100449-0.1337166-0.4566116-0.1337166v3.0919476h-1.7846928V26.2881432z"/>
		<path class="st0" d="M39.367218,28.0507545c0-0.3195839-0.020401-0.5244198-0.0531044-0.6130772    c-0.0365219-0.0872536-0.1090431-0.1337166-0.2185822-0.1337166c-0.0972099,0-0.1654778,0.0384026-0.2143288,0.1090603    c-0.0483589,0.0749111-0.0768051,0.2835388-0.0768051,0.6377335v3.2009773c0,0.4006577,0.020401,0.6453304,0.052639,0.7368374    c0.0279579,0.0924625,0.1047935,0.1412983,0.2266312,0.1412983c0.1171188,0,0.1982079-0.0545349,0.2304459-0.1616859    c0.0327034-0.1076279,0.0531044-0.3622551,0.0531044-0.7671814V28.0507545z M41.1514473,30.3043861    c0,0.6884651-0.020401,1.178257-0.0526428,1.4608536c-0.032238,0.2878075-0.1332397,0.5504951-0.3034325,0.7880478    c-0.1702232,0.2384911-0.4006729,0.4181938-0.6922722,0.5457458c-0.2911339,0.1280174-0.6310883,0.1920319-1.0156441,0.1920319    c-0.3684044,0-0.6960297-0.0602226-0.9914207-0.1820755c-0.2911339-0.1190147-0.5258369-0.2991943-0.7041359-0.538166    c-0.177803-0.240387-0.2830582-0.5035515-0.3157616-0.7828217c-0.0360565-0.2854347-0.052639-0.776659-0.052639-1.4836159    v-1.1749439c0-0.690836,0.0165825-1.1758976,0.0488205-1.4637051c0.0322685-0.284956,0.1332397-0.5476418,0.303463-0.7851944    c0.1702232-0.2342243,0.4044609-0.4181957,0.6960602-0.5452709c0.2915993-0.1280155,0.6268387-0.1906128,1.0156136-0.1906128    c0.364151,0,0.696064,0.0611649,0.9871979,0.1778069c0.2915993,0.1232834,0.5300903,0.303463,0.7041054,0.5405388    c0.178299,0.2403889,0.2878075,0.5035381,0.3157921,0.7847176c0.0364952,0.2816429,0.0568962,0.7771378,0.0568962,1.48172    V30.3043861z"/>
	</g>
	<polygon class="st0" points="41.815155,26.2881432 44.8340721,26.2881432 44.8340721,27.6622372 43.5955887,27.6622372    43.5955887,28.9590302 44.7003708,28.9590302 44.7003708,30.2643623 43.5955887,30.2643623 43.5955887,33.1457863    41.815155,33.1457863  "/>
	<g>
		<path class="st0" d="M50.9568748,29.2744904H49.175972v-1.1915417c0-0.3461342-0.0199089-0.5642395-0.0564308-0.6495838    c-0.0403137-0.0848789-0.125164-0.1294479-0.254612-0.1294479c-0.1460304,0-0.2394485,0.0526276-0.2797623,0.1583748    c-0.0360298,0.102417-0.0564041,0.3314323-0.0564041,0.6775532v3.1843948c0,0.3342705,0.0203743,0.5509586,0.0564041,0.6543312    c0.0403137,0.1024189,0.1299095,0.1512547,0.2674332,0.1512547c0.1337013,0,0.2228355-0.0488358,0.2588654-0.1536274    c0.0445976-0.1009998,0.0645065-0.3423309,0.0645065-0.7164364v-0.8639107h1.7809029v0.2693272    c0,0.7083759-0.0483589,1.2138252-0.1498222,1.5096912c-0.0972099,0.2949257-0.3195839,0.556179-0.6638222,0.7809258    c-0.3437462,0.2228508-0.7643318,0.335228-1.2664642,0.335228c-0.5263023,0-0.9549294-0.0967331-1.2910957-0.2830772    c-0.3437767-0.190136-0.5666122-0.4513893-0.6756592-0.7894516c-0.1090736-0.3314323-0.1659698-0.8373585-0.1659698-1.5073299    v-2.0051842c0-0.4935837,0.0161209-0.8634205,0.0526428-1.11236c0.0327034-0.2451344,0.1337013-0.4822102,0.3039246-0.7131214    c0.1659431-0.2299557,0.4001808-0.4082394,0.696064-0.5376873c0.2987175-0.1337032,0.6429253-0.1981945,1.0274773-0.1981945    c0.5258369,0,0.9592133,0.1009998,1.2991676,0.303463c0.34375,0.2024632,0.5666161,0.4575539,0.6756592,0.7586422    c0.1052551,0.3063011,0.1578979,0.7747631,0.1578979,1.4167652V29.2744904z"/>
	</g>
	<polygon class="st0" points="55.6999969,26.2881432 55.6999969,33.1457863 53.9153061,33.1457863 53.9153061,30.2643623    53.3809319,30.2643623 53.3809319,33.1457863 51.6004944,33.1457863 51.6004944,26.2881432 53.3809319,26.2881432    53.3809319,28.740448 53.9153061,28.740448 53.9153061,26.2881432  "/>
	<rect x="56.4161148" y="26.2879562" class="st0" width="1.7846912" height="6.8576431"/>
	<g>
		<path class="st0" d="M60.6977654,30.0538387v1.9203186c0.2513123-0.0104332,0.4125061-0.0483589,0.4812698-0.1194935    c0.0687599-0.0711193,0.1062088-0.2446575,0.1062088-0.5220299v-0.6391525c0-0.2920895-0.0331955-0.4717903-0.0938835-0.5324783    C61.1268845,30.0984211,60.9647331,30.0614357,60.6977654,30.0538387 M60.6977654,27.4621468v1.5229588    c0.0768356-0.0018959,0.1332397-0.0037918,0.1778069-0.0037918c0.174015,0,0.2873421-0.0402985,0.3361931-0.1270733    c0.0488205-0.0853443,0.0734787-0.3342705,0.0734787-0.7434654c0-0.2119408-0.0203743-0.3636723-0.0611496-0.4485378    c-0.0407791-0.0853596-0.0934181-0.1394043-0.1545982-0.1621647    C61.0050201,27.475893,60.8798523,27.4659367,60.6977654,27.4621468 M58.9130745,26.2881432h1.780899    c0.5623589,0,0.9871941,0.0421944,1.2783318,0.1313438c0.2873154,0.0848656,0.5220146,0.2626724,0.6960297,0.5305691    c0.1825523,0.2674179,0.271225,0.6979561,0.271225,1.2887497c0,0.4030151-0.064476,0.6818218-0.190136,0.8397179    c-0.1256561,0.1578808-0.3717308,0.2792683-0.7444191,0.3646126c0.4125099,0.0929413,0.6913147,0.2484627,0.841629,0.4608822    c0.1460304,0.2185822,0.2185822,0.5481205,0.2185822,0.9952412v0.6353588c0,0.4656143-0.0521774,0.805584-0.1578941,1.0284348    c-0.1047935,0.2266426-0.2754784,0.3764801-0.505928,0.4608688c-0.2346992,0.0815506-0.7083893,0.1218643-1.4243317,0.1218643    h-2.0639877V26.2881432z"/>
		<path class="st0" d="M65.8410416,30.6972733c-0.0886765-0.7771358-0.1778107-1.7382431-0.2702713-2.881424    c-0.1830139,1.313406-0.2963409,2.2764072-0.3447037,2.881424H65.8410416z M66.7883835,26.2881432l1.0194397,6.8576431h-1.8250046    l-0.0967484-1.2346897h-0.6353455l-0.1047897,1.2346897h-1.845871l0.9103622-6.8576431H66.7883835z"/>
	</g>
	<polygon class="st0" points="71.4221497,26.2881432 71.4221497,31.7735901 72.5065231,31.7735901 72.5065231,33.1457863    69.641243,33.1457863 69.641243,26.2881432  "/>
	<g>
		<path class="st0" d="M75.1006317,28.0507545c0-0.3195839-0.0203705-0.5244198-0.0526123-0.6130772    c-0.0365219-0.0872536-0.1095352-0.1337166-0.2190781-0.1337166c-0.0924301,0-0.1654739,0.0384026-0.213829,0.1090603    c-0.0483627,0.0749111-0.0734787,0.2835388-0.0734787,0.6377335v3.2009773c0,0.4006577,0.0161133,0.6453304,0.0488205,0.7368374    c0.0284424,0.0924625,0.1090698,0.1412983,0.2266541,0.1412983s0.1977158-0.0545349,0.2309113-0.1616859    c0.0360336-0.1076279,0.0526123-0.3622551,0.0526123-0.7671814V28.0507545z M76.8806076,30.3043861    c0,0.6884651-0.0113754,1.178257-0.0478973,1.4608536c-0.0326996,0.2878075-0.1299133,0.5504951-0.3039246,0.7880478    c-0.1697311,0.2384911-0.4011383,0.4181938-0.6917801,0.5457458c-0.2911301,0.1280174-0.6315842,0.1920319-1.0198975,0.1920319    c-0.364151,0-0.6917801-0.0602226-0.9876556-0.1820755c-0.2911377-0.1190147-0.5263062-0.2991943-0.7036438-0.538166    c-0.1782684-0.240387-0.2835541-0.5035515-0.3200455-0.7828217c-0.0327301-0.2854347-0.0483627-0.776659-0.0483627-1.4836159    v-1.1749439c0-0.690836,0.0156326-1.1758976,0.0483627-1.4637051c0.0326996-0.284956,0.1336975-0.5476418,0.3039246-0.7851944    c0.1735535-0.2342243,0.4044647-0.4181957,0.6951065-0.5452709c0.2925491-0.1280155,0.6277618-0.1906128,1.0123138-0.1906128    c0.3684082,0,0.699852,0.0611649,0.9914474,0.1778069c0.2911377,0.1232834,0.5258408,0.303463,0.7041092,0.5405388    c0.177803,0.2403889,0.2840195,0.5035381,0.3200455,0.7847176c0.0365219,0.2816429,0.0478973,0.7771378,0.0478973,1.48172    V30.3043861z"/>
	</g>
	<polygon class="st0" points="81.1384964,26.2881432 81.1384964,27.6622372 80.0782852,27.6622372 80.0782852,33.1457863    78.2973862,33.1457863 78.2973862,27.6622372 77.2457123,27.6622372 77.2457123,26.2881432  "/>
	<polygon class="st0" points="85.1364746,26.2881432 85.1364746,27.6622372 84.0800552,27.6622372 84.0800552,33.1457863    82.2958298,33.1457863 82.2958298,27.6622372 81.2432327,27.6622372 81.2432327,26.2881432  "/>
	<polygon class="st0" points="85.5456619,26.2881432 88.5200119,26.2881432 88.5200119,27.6622372 87.3303528,27.6622372    87.3303528,28.9590302 88.4427109,28.9590302 88.4427109,30.2643623 87.3303528,30.2643623 87.3303528,31.7735901    88.6375885,31.7735901 88.6375885,33.1457863 85.5456619,33.1457863  "/>
	<g>
		<path class="st0" d="M96.1802368,26.2881432v6.8576431h-1.5580597l-0.0037918-4.6291294l-0.6187592,4.6291294h-1.1047821    l-0.6557465-4.5219803v4.5219803h-1.5623169v-6.8576431h2.310524c0.0649719,0.4129868,0.1370316,0.89851,0.2110062,1.4589596    l0.2546082,1.7439289l0.4087219-3.2028885H96.1802368z"/>
		<path class="st0" d="M99.0335388,30.6972733c-0.0886765-0.7771358-0.1782761-1.7382431-0.2669449-2.881424    c-0.1868057,1.313406-0.299675,2.2764072-0.3442383,2.881424H99.0335388z M99.9804153,26.2881432l1.0194397,6.8576431h-1.8250046    l-0.0929565-1.2346897h-0.6391373l-0.1052856,1.2346897h-1.8415833l0.9065704-6.8576431H99.9804153z"/>
		<path class="st0" d="M103.0888214,27.4621468v1.5229588c0.1977158,0,0.3399506-0.0260754,0.4200897-0.0805969    c0.0815506-0.0564327,0.1180725-0.2351799,0.1180725-0.5362701v-0.3769417c0-0.2157459-0.0365219-0.3617764-0.1138229-0.4276867    C103.4320984,27.4962807,103.290329,27.4621468,103.0888214,27.4621468 M101.3036346,26.2881432h1.2626724    c0.8420944,0,1.4120026,0.0322399,1.7078857,0.0971947c0.2991791,0.0673294,0.5424194,0.2328205,0.728302,0.4954929    c0.1910629,0.2693157,0.2835236,0.6922569,0.2835236,1.2806759c0,0.5324783-0.0692215,0.8909283-0.1986694,1.0748978    c-0.1332397,0.1820755-0.3958969,0.2930298-0.7847061,0.3300152c0.3522873,0.0867615,0.5907745,0.2038822,0.7121811,0.3537178    c0.1213684,0.1455669,0.1943893,0.2792702,0.2266235,0.4025536c0.02845,0.1237469,0.0445709,0.4594479,0.0445709,1.0137329    v1.8093624h-1.6590347v-2.2787666c0-0.3679409-0.02845-0.5945835-0.0848846-0.6794643    c-0.0611725-0.0891342-0.2067413-0.1337166-0.4532776-0.1337166v3.0919476h-1.7851868V26.2881432z"/>
	</g>
	<rect x="105.977623" y="26.2879562" class="st0" width="1.7809001" height="6.8576431"/>
	<polygon class="st0" points="112.4564972,26.2881432 112.4564972,33.1457863 110.8903885,33.1457863 109.9681625,30.0291977    109.9681625,33.1457863 108.4755325,33.1457863 108.4755325,26.2881432 109.9681625,26.2881432 110.9672012,29.3734341    110.9672012,26.2881432  "/>
	<polygon class="st0" points="113.1732254,26.2881432 116.1437836,26.2881432 116.1437836,27.6622372 114.9536591,27.6622372    114.9536591,28.9590302 116.0664825,28.9590302 116.0664825,30.2643623 114.9536591,30.2643623 114.9536591,31.7735901    116.2651596,31.7735901 116.2651596,33.1457863 113.1732254,33.1457863  "/>
	<g>
		<path class="st0" d="M120.5547638,28.3620892h-1.6552734v-0.5097179c0-0.2351799-0.0246506-0.3845234-0.064476-0.4490166    c-0.0445633-0.0649548-0.113327-0.0995674-0.2105103-0.0995674c-0.105278,0-0.1901321,0.0445671-0.242775,0.1337032    c-0.0568924,0.0872536-0.0858078,0.2204914-0.0858078,0.3987617c0,0.2266426,0.0331955,0.4006577,0.0933914,0.5158806    c0.0606842,0.1152096,0.2271194,0.2569866,0.505928,0.4191513c0.7937317,0.4694042,1.295372,0.8577328,1.4978409,1.1616592    c0.2062531,0.2996712,0.3115082,0.7885246,0.3115082,1.460392c0,0.489315-0.0569,0.8477764-0.1744843,1.0805836    c-0.1128311,0.229969-0.335701,0.4253159-0.6633301,0.5827332c-0.3281174,0.1555214-0.7078934,0.2347031-1.1412659,0.2347031    c-0.477478,0-0.8862-0.092926-1.2223663-0.2716866c-0.3390274-0.1815987-0.558075-0.4120331-0.6638184-0.6913185    c-0.1047897-0.2792664-0.1578979-0.6761341-0.1578979-1.1901054v-0.4490318h1.6595306v0.8335552    c0,0.2588959,0.020401,0.4229565,0.0687561,0.4973888c0.0488205,0.0715981,0.1294479,0.109539,0.2470322,0.109539    c0.1218643,0,0.2105103-0.0483742,0.2669449-0.1413002c0.0568924-0.0915222,0.084877-0.2309113,0.084877-0.4148808    c0-0.4025536-0.0521469-0.6661816-0.1659698-0.7937336c-0.1128387-0.1228065-0.392601-0.3290615-0.8335571-0.618763    c-0.4404602-0.2972984-0.7363434-0.5073452-0.88237-0.6415234c-0.1451111-0.1332397-0.2626877-0.3153152-0.3556137-0.5504951    c-0.0972137-0.2328053-0.141777-0.5338955-0.141777-0.8980465c0-0.5258217,0.0649414-0.9084644,0.1986694-1.1531219    c0.1374969-0.2432404,0.3518219-0.4333744,0.6514664-0.5689869c0.299675-0.1351337,0.6638184-0.2043591,1.084404-0.2043591    c0.4651184,0,0.8577194,0.0725536,1.185379,0.222374c0.3238373,0.1522102,0.5381317,0.3404484,0.6481628,0.5666142    c0.1047592,0.2271194,0.157402,0.615448,0.157402,1.1597786V28.3620892z"/>
	</g>
</g>
</svg>