<?xml version="1.0" encoding="utf-8"?>
<!-- Generator: Adobe Illustrator 26.5.0, SVG Export Plug-In . SVG Version: 6.00 Build 0)  -->
<svg version="1.1" id="レイヤー_1" xmlns="http://www.w3.org/2000/svg" xmlns:xlink="http://www.w3.org/1999/xlink" x="0px"
	 y="0px" viewBox="0 0 120 64" style="enable-background:new 0 0 120 64;" xml:space="preserve">
<style type="text/css">
	.st0{fill:#9E9E9F;}
	.st1{fill:#FFFFFF;}
</style>
<g>
	<g>
		<path class="st0" d="M39.4,20.6c-0.1-0.3-0.1-0.6-0.2-0.8c-0.1-0.3-0.2-0.5-0.4-0.8c-0.1-0.2-0.3-0.5-0.5-0.7
			c-0.2-0.2-0.4-0.4-0.6-0.6l0,0l0,0L36.5,17l-0.6-0.4l-0.6-0.4c-0.2-0.1-0.4-0.3-0.5-0.4c-0.1-0.1-0.3-0.3-0.4-0.4
			c-0.1-0.1-0.2-0.3-0.3-0.5c-0.1-0.2-0.1-0.3-0.2-0.5c0,0-0.1-0.4-0.1-0.4c0,0,0-0.3,0-0.3c0-0.1,0-0.2,0-0.3c0-0.1,0-0.2,0.1-0.3
			c0-0.1,0.1-0.2,0.1-0.3c0.1-0.1,0.1-0.2,0.2-0.2c0.1-0.1,0.1-0.1,0.2-0.1c0.1,0,0.2-0.1,0.3-0.1c0.1,0,0.2,0,0.3,0
			c0.1,0,0.2,0,0.3,0.1c0.1,0,0.2,0.1,0.3,0.2c0.1,0.1,0.2,0.2,0.3,0.3l0,0c0,0.1,0.1,0.2,0.2,0.3c0,0,0.2,0.4,0.2,0.4
			c0,0,0.2,0.5,0.2,0.5c0,0,0.2,0.6,0.2,0.6l0.2,0.5l0.4-0.1c0,0,0.2,0,0.2,0l0.3,0l-0.4-3.4l-0.4-0.2l-0.3-0.1c0,0-0.2-0.1-0.2-0.1
			l-0.2-0.1l-0.1,0c0,0,0,0,0,0c-0.1,0-0.2,0-0.3-0.1l0,0l-0.3,0l0,0l-0.3,0L34.9,11c-0.2,0-0.5,0.1-0.7,0.2
			c-0.2,0.1-0.4,0.2-0.6,0.3c-0.2,0.1-0.3,0.3-0.5,0.5c-0.2,0.2-0.3,0.4-0.4,0.6c-0.1,0.2-0.2,0.5-0.3,0.7c-0.1,0.2-0.1,0.5-0.2,0.8
			c0,0.3,0,0.5,0,0.8c0,0.3,0,0.6,0.1,0.9c0.1,0.3,0.1,0.5,0.2,0.8c0.1,0.2,0.2,0.5,0.3,0.7c0.1,0.2,0.3,0.4,0.5,0.6
			c0.2,0.2,0.4,0.4,0.6,0.5l0,0c0.1,0.1,0.3,0.2,1.7,1c0,0,0.5,0.3,0.5,0.3c0.2,0.1,0.3,0.3,0.5,0.4c0.1,0.1,0.3,0.3,0.4,0.4
			c0.1,0.2,0.2,0.3,0.3,0.5c0.1,0.2,0.1,0.4,0.2,0.5c0,0.2,0.1,0.3,0.1,0.5c0,0.1,0,0.2,0,0.2c0,0.1,0,0.1,0,0.2
			c0,0.1,0,0.3-0.1,0.4c0,0.1-0.1,0.2-0.1,0.3c0,0.1-0.1,0.2-0.2,0.3c-0.1,0.1-0.1,0.1-0.2,0.2c-0.1,0.1-0.1,0.1-0.2,0.1
			c-0.1,0-0.2,0.1-0.3,0.1c-0.1,0-0.2,0-0.3,0c-0.1,0-0.2,0-0.3-0.1c-0.1,0-0.2-0.1-0.3-0.1c-0.1-0.1-0.2-0.1-0.4-0.2
			c-0.1-0.1-0.3-0.2-0.4-0.4c-0.1-0.1-0.3-0.3-0.4-0.5c-0.1-0.2-0.2-0.4-0.4-0.6c-0.1-0.2-0.2-0.4-0.3-0.7c0,0-0.3-0.7-0.3-0.7
			l-0.9,0.4l1.1,3.6l0.5,0.3c0,0,0.3,0.1,0.3,0.1l0,0l0.3,0.1l0.3,0.1l0.3,0.1l0.4,0.1l0.4,0l0.4,0l0.3,0l0,0c0.2,0,0.4-0.1,0.7-0.2
			c0.2-0.1,0.4-0.2,0.6-0.3c0.2-0.1,0.4-0.3,0.5-0.4c0.2-0.2,0.3-0.3,0.4-0.6c0.2-0.2,0.3-0.5,0.4-0.7c0.1-0.3,0.2-0.5,0.2-0.8
			c0-0.2,0.1-0.5,0.1-0.7c0,0,0-0.1,0-0.1C39.5,21.2,39.5,20.9,39.4,20.6"/>
		<path class="st0" d="M57,21.3c0,0-0.2,0-0.2,0l-0.2,0c0,0-0.2,0-0.2,0c0,0-0.1,0-0.1,0c0,0-0.1,0-0.1,0c0,0-0.1,0-0.1,0l0,0
			c0,0-0.1,0-0.1,0c0,0-0.1,0-0.1-0.1c0,0-0.1,0-0.1-0.1c0,0-0.1-0.1-0.1-0.1c0,0-0.1-0.1-0.1-0.1c0,0-0.1-0.1-0.1-0.2
			c0,0-0.1-0.2-0.1-0.2c0,0,0-0.2,0-0.2c0,0,0-0.3,0-0.3c0,0,0-0.3,0-0.3c0,0-0.1-3.3-0.2-4.3c0.1,0,0.2,0,0.2,0l0.5,0l0.5,0
			c0,0,0.6,0,0.6,0l0.3,0l-0.1-1.8l-0.8,0l-0.5,0c0,0-0.5,0-0.5,0s-0.1,0-0.2,0c0-0.4-0.1-1.8-0.1-1.8l-0.3,0h0l-0.4,0l-0.2,0.3
			c0,0-0.2,0.3-0.2,0.3l-0.2,0.3L53,13.8c0,0-0.3,0.5-0.3,0.5l-0.2,0.3l0,0c-0.1,0.1-0.1,0.2-0.1,0.3l0,0l0,0.2l0.1,0.2l0,0
			c0.1,0.1,0.1,0.1,0.2,0.2l0,0l0.2,0c0,0,0.4,0,0.4,0c0,0.5,0.2,5.4,0.2,5.4c0,0,0,0.4,0,0.4l0.1,0.4l0.1,0.3l0,0
			c0,0.1,0.1,0.2,0.1,0.3c0,0.1,0.1,0.2,0.2,0.2c0.1,0.1,0.2,0.1,0.3,0.2c0.1,0,0.2,0.1,0.3,0.1l0.3,0.1l0,0c0,0,0.1,0,0.1,0l0,0
			c0,0,0,0,0,0c0,0,0,0,0.1,0c0,0,0.1,0,0.1,0h0c0,0,0.1,0,0.1,0s0,0,0,0c0,0,0,0,0,0c0,0,0,0,0,0l0,0l0,0h0l0.2,0l0.2,0l0.1,0
			l-0.1,0l0.1,0c0,0,0.4-0.1,0.4-0.1c0,0,0.4-0.1,0.4-0.1c0,0,0.4-0.1,0.4-0.1l0.4-0.1l0.2-0.1l0-1C57.6,21.3,57,21.3,57,21.3"/>
		<path class="st0" d="M72.1,21.7C72.1,21.7,72.1,21.7,72.1,21.7C72.1,21.7,72.1,21.7,72.1,21.7c-0.1,0-0.1,0-0.1,0c0,0,0,0,0,0l0,0
			c-0.1,0-0.2-0.1-0.2-0.1c0,0-0.1-0.1-0.1-0.2c0,0,0-0.1,0-0.1c0,0,0-0.1,0-0.1c0,0,0,0,0-0.1c0,0,0-0.1,0-0.2c0,0,0-0.3,0-0.3
			c0,0,0-0.3,0-0.3l0-0.4l0.3-3.4c0-0.2,0-0.3,0-0.5c0,0,0-0.1,0-0.1c0-0.2,0-0.4,0-0.5c0-0.2-0.1-0.3-0.1-0.5
			c0-0.2-0.1-0.3-0.2-0.4c-0.1-0.1-0.2-0.3-0.2-0.4c-0.1-0.1-0.2-0.2-0.3-0.3c-0.1-0.1-0.2-0.1-0.4-0.2c-0.1,0-0.3-0.1-0.4-0.1
			c-0.2,0-0.3,0-0.5,0c-0.2,0-0.3,0.1-0.5,0.2c-0.2,0.1-0.3,0.2-0.5,0.3c-0.2,0.1-0.3,0.3-0.5,0.4c-0.2,0.2-0.3,0.3-0.5,0.5
			c-0.1,0.2-0.3,0.3-0.4,0.5c-0.1,0.2-0.2,0.3-0.2,0.4c-0.1,0.2-0.1,0.3-0.1,0.4c0,0.1,0,0.2,0.1,0.3c0,0.1,0.1,0.1,0.2,0.2l0,0
			l0.2,0.1l0.2,0l0.1,0H68c0,0,0.1,0,0.1,0c0,0,0.1,0,0.1,0c0,0,0.1,0,0.1,0c0,0,0.1,0,0.1,0c0,0,0.1,0,0.1,0l0.1,0l-0.1,0l0.4-0.1
			l0-0.2l0.1-0.7c0,0,0-0.2,0-0.2c0,0,0-0.1,0-0.2c0,0,0-0.1,0-0.1c0,0,0,0,0-0.1c0,0,0,0,0,0c0,0,0,0,0.1,0c0,0,0.1,0,0.1,0
			c0,0,0.1,0,0.2,0c0.1,0,0.2,0,0.2,0.1c0.1,0,0.1,0.1,0.2,0.1c0.1,0.1,0.1,0.1,0.2,0.2c0.1,0.1,0.1,0.2,0.1,0.3c0,0,0,0,0,0l0,0
			l0,0l0,0.1l0-0.1l0,0.1l0,0c0,0,0,0.1,0,0.1c0,0,0,0.2,0,0.2c0,0,0,0.2,0,0.3c0,0,0,0.3,0,0.3l-0.1,0.6c0,0,0,0.1,0,0.1
			C70,17.9,69.6,18,69.6,18c0,0-0.7,0.3-0.7,0.3c0,0-0.7,0.4-0.7,0.4c0,0-0.7,0.4-0.7,0.4l-0.2,0.1l-0.1,0.1l-0.1,0.1l-0.1,0.2
			L67,19.8L66.9,20l0,0.2l0,0.3l0,0.4l0,0.4l0,0.3l0.1,0.3l0,0c0.1,0.2,0.1,0.3,0.2,0.5c0.1,0.1,0.2,0.3,0.3,0.4
			c0.1,0.1,0.3,0.2,0.4,0.2c0.1,0.1,0.3,0.1,0.5,0.1l0,0l0.2,0L69,23l0.3-0.1l0.2-0.1l0.2-0.1c0,0,0.2-0.1,0.2-0.1c0,0,0,0.1,0,0.1
			l0,0l0.1,0.1l0.1,0.1l0.1,0.1l0,0l0,0l0,0c0,0,0,0,0,0c0,0,0.1,0.1,0.1,0.1l0,0l0,0l0.1,0.1l0.2,0l0.2,0l0.1,0c0,0,0.1,0,0.1,0
			c0,0,0.1,0,0.1,0c0,0,0.1,0,0.1,0c0,0,0.1,0,0.1,0c0,0,0.1,0,0.1,0l0,0l0.1,0l0.1,0l0.1,0c0,0,0.1,0,0.1,0c0,0,0.1,0,0.1,0
			c0,0,0.1-0.1,0.1-0.1l0,0c0,0,0,0,0,0c0,0,0,0,0,0h0c0,0,0,0,0.1,0c0,0,0.1,0,0.1,0c0,0,0.1,0,0.1,0c0,0,0.1-0.1,0.1-0.1l0.3-0.2
			l0-0.1l0.1-0.7L72.1,21.7C72.2,21.7,72.2,21.7,72.1,21.7 M69.9,21C69.9,21,69.9,21,69.9,21c0,0.1,0,0.1-0.1,0.2c0,0,0,0.1-0.1,0.1
			c0,0-0.1,0.1-0.1,0.1c0,0-0.1,0.1-0.1,0.1c0,0-0.1,0-0.1,0c0,0-0.1,0-0.1,0c0,0-0.1,0-0.1,0c0,0-0.1,0-0.1,0c0,0-0.1,0-0.1,0
			c0,0-0.1,0-0.1-0.1c0,0-0.1-0.1-0.1-0.1c0,0-0.1-0.1-0.1-0.1c0,0,0-0.2-0.1-0.2c0,0,0-0.2,0-0.2c0,0,0-0.3,0-0.3c0,0,0,0,0,0
			c0,0,0,0,0,0c0,0,0,0,0,0c0,0,0-0.1,0-0.1c0-0.1,0-0.1,0-0.2c0-0.1,0-0.1,0.1-0.2c0-0.1,0.1-0.1,0.1-0.2c0.1-0.1,0.1-0.1,0.2-0.1
			c0,0,0.7-0.4,0.7-0.4c0,0,0.2-0.1,0.2-0.1s0,0,0,0C70,19.7,69.9,20.9,69.9,21"/>
		<path class="st0" d="M80.1,23.1L80.1,23.1C80,23,80,23,79.9,22.9c0,0-0.1-0.1-0.1-0.2c0,0,0-0.1,0-0.1l0-0.1c0,0,0,0,0,0
			c0-0.1,0-0.2,0.1-0.3l0.5-4.2c0,0,0.1-0.7,0.1-0.7c0,0,0-0.6,0-0.6c0-0.2,0-0.4,0-0.5c0-0.2,0-0.3-0.1-0.5
			c-0.1-0.2-0.1-0.4-0.2-0.5c-0.1-0.2-0.2-0.3-0.3-0.4c-0.1-0.1-0.3-0.2-0.4-0.3c-0.2-0.1-0.3-0.1-0.5-0.1c-0.1,0-0.3,0-0.4,0
			c-0.1,0-0.3,0-0.4,0.1c-0.2,0-0.3,0.1-0.5,0.1c-0.2,0.1-0.3,0.2-0.5,0.3c0,0-0.3,0.2-0.3,0.2c0,0-0.1,0.1-0.1,0.1l0-0.3
			c0,0,0-0.2,0-0.2c0,0,0-0.1,0-0.1l0-0.2l-0.1-0.1c0,0-0.2-0.2-0.2-0.2c0,0-0.2-0.2-0.2-0.2L76,14l-0.4,0.2c0,0,0,0,0,0
			c-0.1,0-0.2,0.1-0.4,0.2c0,0,0,0,0,0c-0.1,0-0.2,0.1-0.4,0.2l-0.6,0.3l-0.1,0.7c0,0,0.2,0.1,0.2,0.1c0,0,0,0,0.1,0
			c0,0,0,0,0.1,0.1c0,0,0,0.1,0.1,0.1c0,0,0,0.1,0.1,0.1c0,0,0,0.1,0,0.1c0,0,0,0.1,0,0.1c0,0,0,0.1,0,0.1c0,0,0,0.1,0,0.1v0.1
			c0,0,0,0.2,0,0.2c0,0,0,0.1,0,0.2c0,0-0.6,4.9-0.6,4.9c0,0.1,0,0.1-0.1,0.2c0,0.1-0.1,0.1-0.1,0.1c-0.1,0-0.1,0.1-0.2,0.1
			c-0.1,0-0.1,0-0.2,0c0,0,0,0,0,0c0,0,0,0,0,0l-0.4,0l-0.1,1.1l1.1,0.1c0,0,0.8,0.1,0.8,0.1c0,0,0.8,0.1,0.8,0.1l0.8,0.1l0.3,0
			l0.1-1.1l-0.6-0.1c-0.1,0-0.1,0-0.2-0.1c0,0-0.1-0.1-0.1-0.1c0,0-0.1-0.1-0.1-0.1c0,0,0-0.1,0-0.1l0-0.1c0,0,0,0,0,0l0,0l0-0.1
			l0,0c0,0,0.6-5.2,0.7-5.4l0.2-0.2c0,0,0,0,0,0c0,0,0.1,0,0.1-0.1h0c0,0,0.1,0,0.1,0c0,0,0.1,0,0.1,0c0,0,0.1,0,0.1,0
			c0,0,0.1,0,0.1,0l-0.1,0c0,0,0.1,0,0.2,0c0,0,0.1,0,0.1,0c0,0,0.1,0,0.1,0c0,0,0.1,0,0.1,0c0.1,0,0.2,0,0.3,0.1
			c0.1,0,0.2,0.1,0.2,0.1c0.1,0.1,0.1,0.1,0.2,0.2c0.1,0.1,0.1,0.2,0.1,0.3c0,0,0.1,0.2,0.1,0.2c0,0,0,0.2,0,0.3c0,0,0,0.3,0,0.3
			c0,0,0,0.3,0,0.3c0,0-0.5,4.2-0.5,4.2c0,0.1,0,0.1-0.1,0.2c0,0.1-0.1,0.1-0.1,0.1c0,0-0.1,0.1-0.2,0.1c-0.1,0-0.1,0-0.2,0
			c0,0,0,0,0,0c0,0,0,0-0.1,0c0,0-0.5-0.1-0.5-0.1l-0.1,1.1L78,24c0,0,0.8,0.1,0.8,0.1c0,0,0.8,0.1,0.8,0.1c0,0,0.8,0.1,0.8,0.1
			l0.3,0l0.1-1.1l-0.6-0.1C80.2,23.1,80.1,23.1,80.1,23.1"/>
		<path class="st0" d="M88.2,16.2L87.3,16c0,0-0.8-0.2-0.8-0.2c0,0-1.1-0.2-1.1-0.2l-0.2,1c0,0,0.3,0.2,0.4,0.2c0,0,0,0,0,0
			c0,0,0,0,0,0c0,0,0,0,0,0c0,0,0,0,0,0c0,0,0,0,0,0c0,0,0,0,0,0c0,0,0,0,0,0c0,0,0,0,0,0.1c0,0,0,0.1,0,0.1c0,0-0.1,0.2-0.1,0.2
			c0,0-0.1,0.2-0.1,0.2c0,0-0.2,0.2-0.2,0.2c0,0-0.4,0.5-0.5,0.6c0.1-0.5,0.2-1.2,0.2-1.2l1.1-5.9l0,0l0-0.2c0,0,0.1-0.3,0.1-0.3
			l0-0.1l-0.4-0.4l-0.2,0.1L85,10.6l-0.5,0.2c0,0,0,0,0,0c-0.1,0-0.2,0.1-0.5,0.2l-0.6,0.2l-0.1,0.6c0,0,0.2,0.1,0.2,0.1
			c0,0,0,0,0,0s0,0,0,0c0,0,0,0,0,0c0,0,0,0,0,0c0,0,0,0,0,0c0,0,0,0.1,0,0.1l0-0.2l0.1,0.2l0,0c0,0,0,0.2,0,0.2c0,0,0,0.2,0,0.2
			c0,0,0,0.2,0,0.3c0,0,0,0.3,0,0.3c0,0-0.3,1.6-0.3,1.6l-0.6,3.1l-0.8,4.4l0,0c0,0,0,0.1,0,0.1c0,0,0,0.2,0,0.2
			c0,0-0.1,0.3-0.1,0.3c0,0-0.1,0.3-0.1,0.3c0,0.1,0,0.1-0.1,0.2c0,0-0.1,0.1-0.1,0.1c0,0-0.1,0.1-0.1,0.1c-0.1,0-0.1,0-0.2,0l0,0
			c-0.1,0-0.1,0-0.2,0l-0.3,0l-0.2,1.1l1.1,0.2c0,0,0.8,0.1,0.8,0.1c0,0,0.8,0.1,0.8,0.1c0,0,0.8,0.1,0.8,0.1l0.3,0l0.1-0.7
			c0,0,0.1-0.4,0.1-0.4l-0.4-0.1c-0.1,0-0.1,0-0.2-0.1c-0.1,0-0.1-0.1-0.2-0.1c0,0-0.1-0.1-0.1-0.2c0-0.1,0-0.1-0.1-0.2
			c0,0,0-0.1,0-0.1c0,0,0-0.2,0-0.2c0,0,0-0.2,0-0.2l0-0.2c0,0,0.1-0.6,0.2-1.2c0,0,0,0.1,0,0.1l0.3,0.8c0,0,0.4,0.9,0.4,0.9
			c0.1,0.3,0.3,0.6,0.4,0.9c0.2,0.3,0.3,0.5,0.5,0.8c0,0,0.1,0.1,0.1,0.1c0,0,0,0.1,0,0.1c0,0,0.1,0.1,0.1,0.1l0,0l0.1,0.1l0.1,0.1
			l0.1,0.1l0.1,0l0,0l0.1,0l0,0l0.7,0.1c0,0,0.3,0.1,0.3,0.1l0.3,0.1c0,0,0.1,0,0.1,0c0,0,0.3,0,0.3,0l0.1-0.3l0-0.2l0,0l0-0.1
			c0,0,0.1-0.4,0.1-0.4s-0.2-0.1-0.2-0.1c0,0,0,0-0.1,0c0,0-0.1-0.1-0.2-0.2c-0.1-0.1-0.2-0.3-0.4-0.5c-0.2-0.3-0.3-0.6-0.5-0.9
			c0,0-0.1-0.1-0.1-0.1c0,0-0.1-0.2-0.1-0.2c0,0-0.1-0.2-0.1-0.2l-0.1-0.2c0,0-0.1-0.2-0.1-0.2L86.7,22c0,0-0.1-0.2-0.1-0.2
			c0,0-0.1-0.2-0.1-0.2s0,0,0,0c0-0.1-0.1-0.2-0.2-0.6c0,0-0.5-1.2-0.5-1.2c0,0-0.1-0.3-0.2-0.4c0.1-0.1,0.4-0.4,0.4-0.4s0,0,0,0
			c0,0,0.1-0.1,0.2-0.2l0.2-0.2l0.2-0.2c0,0,0.1-0.1,0.1-0.1c0,0,0.2-0.2,0.2-0.2c0,0,0.2-0.2,0.2-0.2c0,0,0.2-0.1,0.2-0.1
			c0,0,0.2-0.1,0.2-0.1l0,0c0,0,0.1,0,0.1-0.1c0,0,0.1,0,0.1,0c0,0,0.1,0,0.1,0c0,0,0.1,0,0.1,0c0,0,0.1,0,0.1,0c0,0,0.3,0,0.3,0
			l0.5,0l0.2-1L88.2,16.2z M83.7,11.4L83.7,11.4L83.7,11.4L83.7,11.4z"/>
		<path class="st0" d="M85.7,24.9L85.7,24.9C85.8,24.9,85.7,24.9,85.7,24.9C85.7,24.9,85.7,24.9,85.7,24.9"/>
		<path class="st0" d="M52.7,11.1l0.2-0.2l0.1-0.2l0.1-0.2l0-0.2l0-0.2l0,0c0-0.2,0-0.3-0.1-0.4c0-0.1-0.1-0.3-0.2-0.4
			c-0.1-0.1-0.2-0.2-0.2-0.3c-0.1-0.1-0.2-0.2-0.3-0.2l0,0L52,8.6l-0.3-0.1l-0.3,0h0h-0.3l0,0c-0.3,0-0.5,0.1-0.7,0.2
			c-0.2,0.1-0.4,0.2-0.6,0.4c-0.2,0.2-0.4,0.3-0.5,0.6c-0.2,0.2-0.3,0.5-0.4,0.7c-0.1,0.3-0.2,0.5-0.3,0.8c-0.1,0.3-0.2,0.6-0.2,0.9
			c0,0.3-0.1,0.6-0.1,0.9c0,0.3,0,0.6,0,1c0,0,0,0.1,0,0.1c0,0,0,0.1,0,0.2C48,14.2,48,14.3,48,14.3c0,0-0.2,0.3-0.2,0.3l-0.2,0.3
			l-0.3,0.4l0.1,0.9l0.9-0.1c0,0,0.2,0,0.2,0c0,0.4,0.1,1.4,0.1,1.4c0,0,0,0.2,0.1,0.9l0.2,2.6c0,0,0,0.3,0,0.3c0,0,0,0.2,0,0.2
			c0,0,0,0.2,0,0.2v0.1c0,0.1,0,0.1-0.1,0.2c0,0.1-0.1,0.1-0.1,0.2c-0.1,0.1-0.1,0.1-0.2,0.1c-0.1,0-0.1,0.1-0.2,0.1c0,0,0,0,0,0
			l-0.1,0l-0.3,0l0.1,1.1l1.6-0.1c0,0,2.4-0.2,2.4-0.2l0.3,0L52,22l-0.6,0c-0.1,0-0.2,0-0.3,0c-0.1,0-0.2-0.1-0.2-0.1
			c-0.1-0.1-0.1-0.1-0.2-0.2c0-0.1-0.1-0.2-0.1-0.3c0,0,0,0,0,0c0,0,0-0.1,0-0.1c0,0,0-0.2,0-0.2l0-0.2c0,0,0-0.2,0-0.2
			c0,0-0.3-3.2-0.3-3.2l0,0l0-0.4c0,0-0.1-0.8-0.1-1.2c0.1,0,0.1,0,0.1,0l0.4,0l0.4,0l0.5,0l0.3,0L51.7,14L51,14c0,0-0.4,0-0.4,0
			c0,0-0.4,0-0.4,0s-0.1,0-0.1,0c0-0.2,0-0.5,0-0.5c0,0-0.1-0.8-0.1-0.8c0,0,0-0.7,0-0.7c0,0,0-0.6,0-0.6c0,0,0-0.5,0-0.5
			c0-0.2,0.1-0.4,0.1-0.5c0-0.1,0.1-0.2,0.1-0.3c0-0.1,0.1-0.1,0.1-0.2c0,0,0.1,0,0.1,0c0,0,0.1,0,0.1,0c0,0,0.1,0,0.1,0.1
			c0,0,0.1,0.1,0.2,0.1c0,0,0.2,0.2,0.2,0.2c0,0,0.2,0.2,0.2,0.2c0,0,0.2,0.2,0.2,0.2c0,0,0.2,0.2,0.2,0.2c0,0,0.2,0.3,0.2,0.3
			l0.1,0.1l0.2,0c0,0,0.2,0,0.2,0l0.2-0.1L52.7,11.1z"/>
		<path class="st0" d="M47.1,18c-0.1-0.3-0.2-0.6-0.3-0.8c-0.1-0.3-0.2-0.5-0.4-0.8c-0.1-0.2-0.3-0.5-0.5-0.7
			c-0.2-0.2-0.4-0.4-0.6-0.6c-0.2-0.2-0.5-0.3-0.7-0.4c-0.2-0.1-0.5-0.2-0.8-0.2c-0.3,0-0.5,0-0.8,0c-0.3,0-0.6,0.1-0.8,0.2
			c-0.3,0.1-0.5,0.2-0.7,0.4c-0.2,0.2-0.4,0.4-0.6,0.6c-0.2,0.2-0.3,0.5-0.5,0.8c-0.1,0.3-0.2,0.5-0.3,0.8c-0.1,0.3-0.1,0.5-0.2,0.8
			c0,0.3-0.1,0.6-0.1,0.9c0,0.3,0,0.6,0,0.9c0,0.3,0.1,0.7,0.2,1c0.1,0.3,0.2,0.6,0.3,0.9c0.1,0.3,0.3,0.5,0.4,0.8
			c0.2,0.2,0.4,0.5,0.6,0.7c0.2,0.2,0.4,0.4,0.6,0.5c0.2,0.1,0.5,0.3,0.7,0.3c0.2,0.1,0.5,0.1,0.7,0.2c0.2,0,0.5,0,0.8,0
			c0.3,0,0.5-0.1,0.7-0.2c0.2-0.1,0.5-0.2,0.7-0.3c0.2-0.1,0.4-0.3,0.6-0.5c0.2-0.2,0.3-0.4,0.5-0.7c0.1-0.2,0.3-0.5,0.4-0.8
			c0.1-0.3,0.2-0.5,0.2-0.8c0-0.3,0.1-0.6,0.1-0.9c0,0,0-0.1,0-0.1c0-0.3,0-0.6-0.1-0.9C47.2,18.6,47.1,18.3,47.1,18 M45.3,20.6
			c0,0.2,0,0.4-0.1,0.6c0,0.2-0.1,0.4-0.1,0.6c-0.1,0.2-0.1,0.4-0.2,0.5c-0.1,0.1-0.2,0.3-0.2,0.4c-0.1,0.1-0.2,0.2-0.3,0.2
			c-0.1,0-0.2,0.1-0.3,0.1c-0.1,0-0.2,0-0.3,0c-0.1,0-0.2-0.1-0.3-0.1c-0.1-0.1-0.2-0.2-0.3-0.3c-0.1-0.1-0.2-0.3-0.3-0.5
			c-0.1-0.2-0.2-0.4-0.3-0.6c-0.1-0.2-0.2-0.4-0.3-0.6c-0.1-0.2-0.1-0.4-0.2-0.7c-0.1-0.2-0.1-0.5-0.1-0.7l-0.1-0.6c0,0,0-0.6,0-0.6
			l0-0.6c0-0.2,0.1-0.4,0.1-0.5c0.1-0.2,0.1-0.4,0.2-0.6c0.1-0.2,0.2-0.3,0.3-0.4c0.1-0.1,0.2-0.2,0.3-0.3c0.1-0.1,0.3-0.1,0.4-0.1
			c0.1,0,0.2,0,0.3,0c0.1,0,0.2,0.1,0.3,0.2c0.1,0.1,0.2,0.2,0.3,0.3c0.1,0.1,0.2,0.3,0.4,0.5c0.1,0.2,0.2,0.4,0.3,0.5
			c0.1,0.2,0.2,0.4,0.2,0.6c0.1,0.2,0.1,0.4,0.2,0.7c0,0.2,0.1,0.5,0.1,0.7c0,0.2,0,0.5,0.1,0.7c0,0,0,0.2,0,0.2L45.3,20.6z"/>
		<path class="st0" d="M66.1,17.8L66.1,17.8L66.1,17.8C66.1,17.8,66.1,17.8,66.1,17.8c-0.1-0.2-0.2-0.4-0.3-0.6
			c-0.1-0.2-0.2-0.4-0.4-0.6c-0.1-0.2-0.3-0.3-0.4-0.4c-0.1-0.1-0.3-0.3-0.5-0.4c-0.1-0.1-0.3-0.2-0.4-0.2c0.1-0.1,0.3-0.2,0.4-0.3
			c0.2-0.2,0.4-0.4,0.6-0.6c0.1-0.2,0.2-0.4,0.3-0.5c0.1-0.2,0.1-0.3,0.1-0.4c0,0,0-0.2,0-0.2l0,0l0-0.2l0-0.2l0-0.2
			c0-0.3,0-0.5,0-0.7c0-0.2-0.1-0.5-0.1-0.7c-0.1-0.2-0.1-0.4-0.2-0.6c-0.1-0.2-0.2-0.3-0.3-0.5c-0.1-0.1-0.2-0.2-0.4-0.3
			c-0.1-0.1-0.3-0.2-0.4-0.3c-0.1-0.1-0.3-0.2-0.5-0.2c-0.2-0.1-0.4-0.1-0.5-0.2c0,0-0.3,0-0.3,0l0,0l-0.4,0c0,0-0.4,0-0.4,0
			c0,0-0.5,0-0.5,0s0,0,0,0c-0.1,0-0.2,0-0.4,0h-0.4l-0.8,0c0,0-0.8,0-0.8,0l-1.1,0l0,1.1l0.3,0l0.4,0c0.1,0,0.2,0,0.2,0
			c0.1,0,0.1,0,0.2,0.1c0.1,0,0.1,0.1,0.1,0.1c0,0.1,0.1,0.1,0.1,0.2c0,0,0,0.1,0.1,0.1c0,0,0,0.1,0.1,0.2c0,0,0,0.2,0,0.2
			c0,0,0,0.2,0,0.2c0,0,0,0.3,0,0.3l0,0.3c0,0,0,0.3,0,0.3c0,0,0,0.3,0,0.3v0l0,1.1l0,2.3l0,2.4l0,1.3c0,0,0,0,0,0c0,0,0,0,0,0.1
			c0,0,0,0.1,0,0.1c0,0,0,0.2,0,0.2l0,0.1c0,0,0,0.2,0,0.2l0,0c0,0.1,0,0.1,0,0.2c0,0,0,0.1,0,0.2c0,0,0,0.2,0,0.2c0,0,0,0.1,0,0.1
			c0,0,0,0,0,0l0,0c0,0,0,0,0,0.1c0,0-0.1,0.1-0.1,0.1c0,0.1-0.1,0.1-0.1,0.1c-0.1,0.1-0.2,0.1-0.3,0.2c0,0-0.3,0.1-0.3,0.1
			c0,0-0.2,0.1-0.3,0.1c0,0-0.1,0-0.2,0c0,0-0.3,0-0.3,0l0,0.3c0,0,0,0.5,0,0.5l0,0.2l0.3,0.1l1.2,0c0,0,1.2,0,1.2,0l1.2,0l1.2,0
			c0.2,0,0.5,0,0.7-0.1c0.2,0,0.4-0.1,0.7-0.2c0.2-0.1,0.4-0.2,0.6-0.3c0.2-0.1,0.4-0.3,0.5-0.4c0.2-0.2,0.3-0.3,0.4-0.5
			c0.1-0.2,0.2-0.4,0.3-0.6c0.1-0.2,0.1-0.5,0.2-0.7c0-0.2,0.1-0.5,0.1-0.8v0c0-0.3,0-0.5,0-0.7C66.2,18.2,66.2,18,66.1,17.8
			 M61.7,11.7c0,0,0-0.9,0-1.2c0.1,0,0.2,0,0.3,0c0.1,0,0.3,0.1,0.4,0.1c0.1,0.1,0.2,0.1,0.3,0.2c0.1,0.1,0.2,0.2,0.3,0.3
			c0.1,0.1,0.2,0.2,0.3,0.4c0.1,0.1,0.1,0.3,0.2,0.4c0,0.1,0.1,0.3,0.1,0.5c0,0.2,0,0.3,0,0.5v0c0,0.2,0,0.4-0.1,0.6
			c0,0.2-0.1,0.4-0.1,0.5c-0.1,0.1-0.1,0.3-0.2,0.4c-0.1,0.1-0.2,0.2-0.3,0.3c-0.1,0.1-0.2,0.1-0.3,0.2C62.5,15,62.4,15,62.3,15
			c-0.1,0-0.2,0.1-0.4,0.1c-0.1,0-0.2,0-0.3,0C61.7,14.6,61.7,11.7,61.7,11.7 M64.2,19.3c0,0.2,0,0.4,0,0.5c0,0.2-0.1,0.3-0.1,0.5
			c0,0.1-0.1,0.3-0.2,0.4c-0.1,0.1-0.1,0.2-0.2,0.3c-0.1,0.1-0.2,0.2-0.2,0.2c-0.1,0.1-0.2,0.1-0.3,0.2c-0.1,0-0.2,0.1-0.3,0.1
			c-0.1,0-0.2,0-0.3,0c-0.1,0-0.2,0-0.3,0c-0.1,0-0.2-0.1-0.2-0.1c-0.1,0-0.1-0.1-0.2-0.2c-0.1-0.1-0.1-0.1-0.1-0.2l0,0
			c0,0,0-0.1-0.1-0.2c0,0,0-0.3-0.1-0.3c0,0,0-0.3,0-0.3c0,0,0-0.4,0-0.4l0-0.1c0,0,0,0,0,0c0-0.1,0-0.1,0-0.1l0-0.8
			c0,0,0-1.8,0-2.4c0,0,0,0,0,0c0,0,0.1,0,0.1,0c0,0,0.1,0,0.1,0c0,0,0,0,0,0c0,0,0,0,0,0c0,0,0,0,0,0c0.1,0,0.3,0,0.4,0.1
			c0.1,0,0.3,0.1,0.4,0.2c0.1,0.1,0.3,0.2,0.4,0.3c0.1,0.1,0.2,0.2,0.4,0.4c0.1,0.1,0.2,0.3,0.3,0.5c0.1,0.2,0.2,0.3,0.2,0.5
			c0.1,0.2,0.1,0.4,0.1,0.5C64.1,18.9,64.2,19.1,64.2,19.3L64.2,19.3z"/>
		<path class="st0" d="M57.2,45l-0.5,0c-0.6,0-1.2,0-2.1-2.5c0,0,0,0.1,0,0.1c-0.1-0.2-0.6-1.8-6.3-17.3L48.3,25l-0.3,0l-0.6,0.1
			l-0.1,0.3c0,0-0.3,1-1.1,1.5l-0.1,0L46,27.2c0,0,0.2,0.9,0.2,1c-0.2,1.1-2.3,15.4-2.3,15.5c0,0.3-0.2,0.9-0.3,1.4
			c-0.2-0.4-0.4-1-0.6-1.8l-2.6-11c-0.2-0.8-0.3-1.4-0.3-1.8c0-1,0.5-1.2,1.1-1.4c0,0,0.7-0.3,0.7-0.3l-0.1-0.4c0,0-0.2-0.8-0.2-0.8
			l-0.1-0.4l-0.5,0.1c-2.5,0.4-4.8,0.8-7,1.3l-0.5,0.1l0.5,1.7l0.5-0.1c1.8-0.4,2.4,0.6,2.8,2.4c0,0,0.8,3.4,1,4.1
			c-2.2,0.4-4.3,0.9-6.5,1.5c-0.2-0.7-1-4.2-1-4.2c-0.1-0.5-0.2-1-0.2-1.4c0-0.9,0.4-1.5,1.6-1.8l0.5-0.1L32.2,29l-0.5,0.1
			c-2.3,0.5-4.5,1.1-6.8,1.8c0,0-0.6,0.2-0.6,0.2l0.2,0.4l0.4,1.2l0.8-0.1c0.9-0.1,1.5-0.1,2.1,2.4l2.7,11.3
			c0.6,2.4,0.2,2.7-0.6,3.2c-0.2,0.1-0.4,0.3-0.6,0.4c0,0-0.3,0.2-0.3,0.2l0.4,1.6l0.5-0.2c2.2-0.7,4.5-1.4,6.7-1.9
			c0,0,0.5-0.1,0.5-0.1l-0.4-1.8l-0.5,0.1c-0.8,0.2-1.3,0.2-1.8-0.3c-0.2-0.2-0.6-0.7-1-2.4c0,0-0.8-3.4-1.1-4.5
			c2.1-0.6,4.3-1,6.5-1.5c0.2,0.6,1.1,4.5,1.1,4.5c0.2,0.9,0.3,1.5,0.3,2c0,0.2,0,0.4-0.1,0.6c-0.3,0.7-0.8,0.9-1.6,1.1l-0.1,0
			L38,47.5l0.4,1.8l0.5-0.1c1.2-0.3,2.5-0.5,3.8-0.8l0.5-0.1l0.1,0c0,0,2.5-0.4,2.5-0.4l0.1,0c0,0,2-0.3,2-0.3c0,0,0.5-0.1,0.5-0.1
			l-0.2-1.7l-1,0c-0.3,0-0.8,0-1.1-0.3c-0.2-0.2-0.3-0.6-0.3-1.2c0-0.2,0-0.4,0-0.6c0,0,0.4-3.4,0.6-4.4c1.1-0.1,2.2-0.3,3.3-0.4
			c0.2,0.5,1.4,3.9,1.4,3.9c0.2,0.6,0.3,1.1,0.3,1.5c0,0.3,0,0.5-0.1,0.6c-0.2,0.3-0.6,0.4-0.8,0.5l-0.5,0.2l0.2,1.7l0.5,0
			c1.9-0.2,3.9-0.3,5.9-0.4c0,0,0.1,0,0.1,0l0.4,0L57.2,45z M49.1,36.3c-0.7,0.1-1.4,0.1-2,0.2c0.1-0.8,0.5-3.7,0.6-4.3
			C47.9,33.2,48.8,35.7,49.1,36.3"/>
		<path class="st0" d="M60.6,25.7l-0.6,0l0,0.5l0,1.2l0.4,0.1c0.6,0.1,1.1,0.4,1.3,0.8c0.1,0.2,0.2,0.5,0.2,0.9
			c0,0.5-0.2,0.9-0.2,0.9l0,0l0,0c-0.1,0.3-1.4,5.3-2.3,8.3c-0.5-2.4-1.7-8.9-1.7-8.9c0-0.2-0.1-0.4-0.1-0.6c0-1,0.6-1.2,1.3-1.4
			c0,0,0.7-0.2,0.7-0.2s0-0.4,0-0.4c0,0,0-1.2,0-1.2l-0.5,0c-1.8,0-3.6,0.1-5.5,0.2l-0.7,0l0.1,1.6l0.4,0.2c0.8,0.3,0.8,0.4,1.2,2.4
			c0,0,0,0,0-0.1c0,0.1,0.2,1.3,3,16.4l0.1,0.3l1.5,0l0.1-0.4c0,0,2.3-8.9,3.3-12.8c0.5,2.7,2.6,13.2,2.6,13.2l1.5,0.1l0.1-0.4
			l3.8-14.7c0.9-3.5,1.9-3.7,2.3-3.7l0.5-0.1l0-0.4c0,0,0.1-0.9,0.1-0.9l0-0.4l-0.5-0.1c-1.7-0.2-3.4-0.3-5.1-0.4l-0.6,0l-0.1,1.7
			l0.6,0.2c0.7,0.2,1.1,0.4,1.1,1.4c0,0.4-0.1,0.9-0.2,1.4c0,0-1.3,5.4-2.1,8.3c-0.5-2.5-1.7-8.9-1.7-8.9c-0.1-0.5-0.1-0.9-0.1-1.2
			c0-0.4,0.1-0.7,0.2-0.8c0.1-0.2,0.4-0.2,0.8-0.3c0,0,0.9-0.2,0.9-0.2s0-0.4,0-0.4c0,0,0.1-1.3,0.1-1.3l-0.6,0
			c-1.9-0.1-3.8-0.1-5.7-0.1C60.8,25.7,60.6,25.7,60.6,25.7"/>
		<path class="st0" d="M73.7,26.8l-0.2,1.3l0.8,0.3c0.7,0.2,1.2,0.4,1.2,1.6c0,0.4,0,0.9-0.2,1.5l-1.9,11.1c-0.5,2.7-1,2.8-2,2.9
			c0,0-1,0.2-1,0.2s0,0.4,0,0.4c0,0-0.2,1.3-0.2,1.3l0.6,0.1c2.3,0.2,4.6,0.5,6.9,0.9l0.1,0l0.4,0.1l0.3-1.8l-0.5-0.1
			c-0.3,0-0.9-0.4-1.5-1.1c-0.1-0.2-0.2-0.5-0.2-0.8c0-0.5,0.1-1.2,0.2-1.7c0,0,0.4-2.1,0.6-3.5c0.7,1.8,2.5,6.3,2.5,6.3
			c1.2,3.1,4.8,4,4.9,4c0,0,0,0,0,0c0.1,0,0.2,0.1,0.3,0.1c0,0,0.4,0.1,0.5,0.1c0.2,0.2,0.4,0.3,0.6,0.5c0.7,0.4,1.3,0.7,2,0.9
			c1.4,0.3,2.7,0.1,3.9-0.7c1.4-0.9,2.3-2.3,2.7-4.3c0.4-2.1,0.2-3.9-0.7-5.3c0,0-1.2-1.8-1.2-1.8l-1.1-1.7c-0.7-1.1-1-2.2-0.8-3.3
			c0.2-0.8,0.5-1.4,0.9-1.8c0.5-0.5,0.9-0.7,1.5-0.5c0.4,0.1,0.9,0.4,1.1,1.5c0.1,0.5,0.1,1.5,0.1,2.9c0,0,0,0,0,0
			c0,0.1,0,0.2,0,0.2l0,0.6l1.3,0.4l1.4-5.2l-0.4-0.5l0,0c-0.4-0.6-0.8-0.9-1-1.1c-0.4-0.4-1-0.6-1.8-0.8c-1.4-0.3-2.7,0-3.9,1
			c-1.3,1-2.1,2.5-2.5,4.4c-0.1,0.5-0.2,1-0.2,1.5c0,1.1,0.3,2.2,0.9,3.2c0.4,0.7,0.9,1.4,1.4,2c0,0,0.8,1.1,0.8,1.2
			c0.5,0.9,0.8,1.7,0.8,2.6c0,0.3,0,0.6-0.1,0.9c-0.2,1-0.6,1.7-1.1,2.2c-0.5,0.4-0.9,0.6-1.5,0.4c-0.7-0.1-1.2-0.6-1.6-1.3
			c-0.5-0.9-0.8-2.2-0.8-3.8l0-1.3l-1.6,0.2c0,0-0.3,2.9-0.4,4.1c-0.5-0.7-1.2-1.8-1.9-3.7c0,0-2.2-5.4-2.7-6.6
			c0.3-0.3,3.9-4.2,3.9-4.2c1.4-1.4,2.6-2.1,3.7-2l0.1,0l0.3,0l0.5-1.7l-0.7-0.2c-1.7-0.4-3.4-0.7-5.1-1l-0.5-0.1L81.7,28
			c0,0-0.3,1.3-0.3,1.3l0.5,0.1c0.2,0,0.4,0.2,0.4,0.3c0.1,0.2,0.1,0.8-1,2c0,0,0,0,0,0c0,0.1-0.3,0.3-2,2.3c0,0-1,1.1-1.8,2
			c0.3-1.6,0.7-4.2,0.7-4.2c0.4-2.2,0.9-2.5,2.2-2.6l0.4,0l0.3-1.7l-0.5-0.1c-2.1-0.3-4.3-0.6-6.5-0.9c0,0-0.6-0.1-0.6-0.1
			L73.7,26.8z M95.6,30.4C95.6,30.4,95.6,30.4,95.6,30.4L95.6,30.4C95.6,30.4,95.6,30.4,95.6,30.4"/>
		<path class="st1" d="M65.9,17.8c-0.1-0.2-0.2-0.4-0.3-0.6c-0.1-0.2-0.2-0.4-0.4-0.5h0c-0.1-0.1-0.3-0.3-0.4-0.4
			c-0.1-0.1-0.3-0.2-0.4-0.3c-0.1-0.1-0.3-0.2-0.5-0.3c-0.1-0.1-0.3-0.1-0.5-0.2c0,0,0,0,0,0c0.3-0.2,0.6-0.3,0.9-0.5
			c0.2-0.2,0.4-0.4,0.6-0.6c0.1-0.2,0.2-0.3,0.3-0.5c0.1-0.1,0.1-0.3,0.1-0.3c0,0,0-0.2,0-0.2l0-0.2l0-0.2l0-0.2c0-0.2,0-0.5,0-0.7
			c0-0.2-0.1-0.4-0.1-0.6c-0.1-0.2-0.1-0.4-0.2-0.5c-0.1-0.2-0.2-0.3-0.3-0.4c-0.1-0.1-0.2-0.2-0.3-0.3c-0.1-0.1-0.2-0.2-0.4-0.3
			c-0.1-0.1-0.3-0.1-0.4-0.2c-0.2-0.1-0.3-0.1-0.5-0.1l-0.3,0l-0.3,0l-0.4,0l-0.5,0c0,0-0.8,0-0.8,0l-0.8,0l-0.8,0l-0.8,0l0,0.6l0,0
			l0.3,0c0.1,0,0.2,0,0.3,0c0.1,0,0.2,0.1,0.2,0.1c0.1,0,0.1,0.1,0.2,0.2c0.1,0.1,0.1,0.2,0.2,0.2c0,0,0.1,0.2,0.1,0.2l0.1,0.2
			l0,0.2l0,0.3l0,0.3l0,0.3l0,0.3l0,0.3c0,0,0,0.4,0,1.1l0,2.3l0,2.4l0,1.3c0,0,0,0.1,0,0.1l0,0.1l0,0.1l0,0.1l0,0.1l0,0.2
			c0,0,0,0.4,0,0.4l0,0.2l0,0.1l0,0c0,0,0,0.1,0,0.1l-0.1,0.1c-0.1,0.1-0.1,0.1-0.2,0.2c-0.1,0.1-0.2,0.1-0.3,0.2l-0.4,0.1L58.5,22
			l-0.2,0l-0.1,0l0,0l0,0.5l0,0l1.2,0l1.2,0l1.2,0l1.2,0c0.2,0,0.5,0,0.7,0c0.2,0,0.4-0.1,0.6-0.2c0.2-0.1,0.4-0.2,0.5-0.3
			c0.2-0.1,0.3-0.2,0.5-0.4c0.1-0.2,0.3-0.3,0.4-0.5c0.1-0.2,0.2-0.4,0.3-0.6c0.1-0.2,0.1-0.4,0.2-0.6c0-0.2,0.1-0.5,0.1-0.7v0
			c0-0.2,0-0.5,0-0.7C66,18.3,65.9,18,65.9,17.8 M63.9,12.9c0,0.2,0,0.5-0.1,0.7c0,0.2-0.1,0.4-0.2,0.6c-0.1,0.2-0.2,0.3-0.3,0.5
			c-0.1,0.1-0.2,0.3-0.4,0.4c-0.1,0.1-0.2,0.1-0.3,0.2c-0.1,0.1-0.2,0.1-0.4,0.1c-0.1,0-0.3,0.1-0.4,0.1c-0.1,0-0.3,0-0.4,0h-0.2
			c0-0.1,0-5,0-5.2h0h0.2c0.2,0,0.3,0,0.5,0c0.2,0,0.3,0.1,0.4,0.1c0.1,0.1,0.3,0.1,0.4,0.2c0.1,0.1,0.2,0.2,0.3,0.3
			c0.1,0.1,0.2,0.3,0.3,0.4c0.1,0.1,0.2,0.3,0.2,0.5c0.1,0.2,0.1,0.3,0.1,0.5C63.9,12.5,63.9,12.7,63.9,12.9L63.9,12.9z M61.3,19.7
			c0,0,0-0.9,0-0.9s0-2.5,0-2.6c0,0,0.2,0,0.2,0l0,0l0,0l0,0l0.1,0l0,0l0,0h0c0.2,0,0.3,0,0.5,0.1c0.2,0,0.3,0.1,0.5,0.2
			c0.1,0.1,0.3,0.2,0.4,0.3c0.1,0.1,0.3,0.3,0.4,0.4c0.1,0.2,0.2,0.3,0.3,0.5c0.1,0.2,0.2,0.4,0.2,0.5c0.1,0.2,0.1,0.4,0.1,0.6
			c0,0.2,0,0.4,0,0.6v0c0,0.2,0,0.4,0,0.6c0,0.2-0.1,0.3-0.1,0.5c0,0.2-0.1,0.3-0.2,0.4c-0.1,0.1-0.2,0.3-0.3,0.4
			c-0.1,0.1-0.2,0.2-0.3,0.3c-0.1,0.1-0.2,0.1-0.3,0.2c-0.1,0.1-0.2,0.1-0.3,0.1c-0.1,0-0.2,0-0.4,0c-0.1,0-0.3,0-0.4,0
			c-0.1,0-0.2-0.1-0.3-0.1c-0.1-0.1-0.2-0.1-0.2-0.2c-0.1-0.1-0.1-0.2-0.2-0.3l-0.1-0.2l-0.1-0.3l0-0.4L61.3,19.7L61.3,19.7z"/>
		<path class="st1" d="M39.1,20.6c-0.1-0.3-0.1-0.5-0.2-0.8c-0.1-0.3-0.2-0.5-0.3-0.7c-0.1-0.2-0.3-0.4-0.5-0.6
			c-0.2-0.2-0.4-0.4-0.6-0.5c0,0-0.6-0.4-0.6-0.4l-0.6-0.4l-0.6-0.4l-0.6-0.4c-0.2-0.1-0.4-0.3-0.5-0.4c-0.2-0.1-0.3-0.3-0.4-0.5
			c-0.1-0.2-0.2-0.3-0.3-0.5c-0.1-0.2-0.1-0.4-0.2-0.6c0-0.1,0-0.3-0.1-0.4c0-0.1,0-0.3,0-0.4c0-0.1,0-0.2,0-0.4
			c0-0.1,0.1-0.2,0.1-0.3c0-0.1,0.1-0.2,0.2-0.3c0.1-0.1,0.1-0.2,0.2-0.3c0.1-0.1,0.2-0.1,0.3-0.2c0.1-0.1,0.2-0.1,0.3-0.1
			c0.1,0,0.3,0,0.4,0c0.1,0,0.2,0.1,0.4,0.1c0.1,0.1,0.2,0.1,0.3,0.2c0.1,0.1,0.2,0.2,0.3,0.4l0.2,0.3l0.2,0.4l0.2,0.5l0.2,0.6
			l0.1,0.3l0.2,0l0.2,0l-0.4-3l-0.2-0.1c0,0-0.3-0.1-0.3-0.1l-0.2-0.1l-0.2-0.1l-0.1,0l-0.3,0l-0.3,0l-0.3,0l-0.3,0
			c-0.2,0-0.4,0.1-0.6,0.2c-0.2,0.1-0.4,0.2-0.5,0.3c-0.2,0.1-0.3,0.3-0.5,0.4c-0.1,0.2-0.3,0.3-0.4,0.5c-0.1,0.2-0.2,0.4-0.3,0.7
			c-0.1,0.2-0.1,0.5-0.2,0.7c0,0.2,0,0.5,0,0.8c0,0.3,0,0.5,0.1,0.8c0,0.3,0.1,0.5,0.2,0.7c0.1,0.2,0.2,0.4,0.3,0.6
			c0.1,0.2,0.3,0.4,0.4,0.6c0.2,0.2,0.4,0.3,0.6,0.5c0,0,1.6,1,1.6,1l0.5,0.3c0.2,0.1,0.4,0.3,0.5,0.4c0.2,0.2,0.3,0.3,0.4,0.5
			c0.1,0.2,0.2,0.4,0.3,0.5c0.1,0.2,0.1,0.4,0.2,0.6c0,0.2,0.1,0.3,0.1,0.5c0,0.2,0,0.3,0,0.5c0,0.1,0,0.3-0.1,0.4
			c0,0.1-0.1,0.3-0.1,0.4c-0.1,0.1-0.1,0.2-0.2,0.3c-0.1,0.1-0.1,0.2-0.2,0.2c-0.1,0.1-0.2,0.1-0.3,0.2c-0.1,0-0.2,0.1-0.3,0.1
			c-0.1,0-0.3,0-0.4,0c-0.1,0-0.3,0-0.4-0.1c-0.1,0-0.3-0.1-0.4-0.2c-0.1-0.1-0.3-0.2-0.4-0.3c-0.1-0.1-0.3-0.2-0.4-0.4
			c-0.1-0.1-0.3-0.3-0.4-0.5c-0.1-0.2-0.3-0.4-0.4-0.6c-0.1-0.2-0.2-0.5-0.3-0.7l-0.2-0.4l-0.4,0.2l1,3.3l0.4,0.2
			c0,0,0.2,0.1,0.2,0.1l0.2,0.1L35,25l0.3,0.1l0.4,0.1l0.3,0l0.3,0l0.3,0c0.2,0,0.4-0.1,0.6-0.2c0.2-0.1,0.4-0.2,0.5-0.3
			c0.2-0.1,0.3-0.2,0.5-0.4c0.1-0.2,0.3-0.3,0.4-0.5c0.1-0.2,0.3-0.4,0.4-0.7c0.1-0.2,0.2-0.5,0.2-0.7c0-0.3,0.1-0.5,0.1-0.8
			C39.2,21.2,39.2,20.9,39.1,20.6"/>
		<path class="st1" d="M46.8,18.1c-0.1-0.3-0.1-0.5-0.2-0.8c-0.1-0.3-0.2-0.5-0.3-0.7c-0.1-0.2-0.3-0.4-0.4-0.6l0,0
			c-0.2-0.2-0.4-0.4-0.6-0.6c-0.2-0.2-0.4-0.3-0.6-0.4c-0.2-0.1-0.5-0.2-0.7-0.2c-0.2,0-0.5,0-0.8,0c-0.3,0-0.5,0.1-0.8,0.2
			c-0.2,0.1-0.5,0.2-0.7,0.4c-0.2,0.2-0.4,0.3-0.6,0.6c-0.2,0.2-0.3,0.5-0.5,0.7c-0.1,0.2-0.2,0.5-0.3,0.7c-0.1,0.3-0.1,0.5-0.2,0.8
			c0,0.3-0.1,0.5-0.1,0.8c0,0.3,0,0.6,0,0.9c0,0.3,0.1,0.6,0.2,0.9c0.1,0.3,0.2,0.6,0.3,0.8c0.1,0.3,0.3,0.5,0.4,0.7
			c0.2,0.2,0.3,0.4,0.5,0.6c0.2,0.2,0.4,0.3,0.6,0.5c0.2,0.1,0.4,0.2,0.6,0.3c0.2,0.1,0.4,0.1,0.7,0.1c0.2,0,0.5,0,0.7,0
			c0.2,0,0.5-0.1,0.7-0.2c0.2-0.1,0.4-0.2,0.6-0.3c0.2-0.1,0.4-0.3,0.5-0.5c0.2-0.2,0.3-0.4,0.4-0.6c0.1-0.2,0.2-0.5,0.3-0.7
			c0.1-0.3,0.2-0.5,0.2-0.8c0-0.3,0.1-0.6,0.1-0.9c0-0.3,0-0.6,0-0.9C46.9,18.7,46.9,18.4,46.8,18.1 M45.6,20.1c0,0.2,0,0.3,0,0.5
			c0,0.2,0,0.4-0.1,0.6c0,0.2-0.1,0.4-0.1,0.6c-0.1,0.2-0.1,0.4-0.2,0.6c-0.1,0.2-0.2,0.3-0.3,0.4c-0.1,0.1-0.2,0.2-0.3,0.3
			c-0.1,0.1-0.3,0.1-0.4,0.1c-0.1,0-0.3,0-0.4,0c-0.1,0-0.3-0.1-0.4-0.2c-0.1-0.1-0.3-0.2-0.4-0.3c-0.1-0.1-0.3-0.3-0.4-0.5
			c-0.1-0.2-0.2-0.4-0.3-0.6c-0.1-0.2-0.2-0.4-0.3-0.7c-0.1-0.2-0.1-0.5-0.2-0.7c-0.1-0.2-0.1-0.5-0.1-0.7c0-0.2,0-0.4-0.1-0.7
			c0-0.2,0-0.4,0-0.6c0-0.2,0-0.4,0-0.6c0-0.2,0.1-0.4,0.1-0.5c0.1-0.2,0.1-0.5,0.2-0.7c0.1-0.2,0.2-0.4,0.3-0.5
			c0.1-0.1,0.3-0.2,0.4-0.3c0.1-0.1,0.3-0.1,0.5-0.1c0.1,0,0.3,0,0.4,0c0.1,0,0.3,0.1,0.4,0.2c0.1,0.1,0.3,0.2,0.4,0.4
			c0.1,0.1,0.3,0.3,0.4,0.5c0.1,0.2,0.2,0.4,0.3,0.6c0.1,0.2,0.2,0.4,0.2,0.6c0.1,0.2,0.1,0.4,0.2,0.7c0.1,0.2,0.1,0.5,0.1,0.7
			c0,0.2,0,0.5,0.1,0.7C45.6,20,45.6,20,45.6,20.1"/>
		<path class="st1" d="M57,21.6l-0.2,0l-0.2,0l-0.2,0l-0.2,0l-0.1,0l-0.1,0c0,0-0.2-0.1-0.2-0.1l-0.2-0.1l-0.1-0.1l-0.1-0.1L55.3,21
			l-0.1-0.2l-0.1-0.2l0-0.3l0-0.3l0-0.3c0,0-0.2-4.4-0.2-4.6c0.1,0,0.5,0,0.5,0l0.5,0l0.5,0l0.6,0l0-1.2l-0.6,0l-0.5,0l-0.5,0
			c0,0-0.4,0-0.5,0c0,0-0.1-1.8-0.1-1.8l0,0l-0.3,0l-0.1,0.2l-0.2,0.3l-0.2,0.3L53.2,14l-0.3,0.5l-0.2,0.3c-0.1,0.1-0.1,0.2-0.1,0.2
			l0,0.1l0,0.1c0,0,0,0.1,0.1,0.1l0.1,0l0.3,0c0,0,0.3,0,0.3,0c0,0.1,0.2,5.7,0.2,5.7l0,0.4l0.1,0.3L54,22c0,0.1,0.1,0.2,0.1,0.2
			c0,0.1,0.1,0.1,0.1,0.2c0.1,0.1,0.1,0.1,0.2,0.1c0.1,0,0.2,0.1,0.2,0.1c0.1,0,0.2,0,0.3,0c0,0,0,0,0,0l0,0l0,0l0,0c0,0,0,0,0,0h0
			c0,0,0,0,0,0c0,0,0,0,0,0c0,0,0,0,0,0h0c0,0,0,0,0,0l0,0c0,0,0.2,0,0.2,0l0.2,0l0.1,0l0,0l0.4-0.1l0.4-0.1l0.4-0.1l0.4-0.1l0-0.5
			L57,21.6z"/>
		<path class="st1" d="M72.1,22L72.1,22l-0.1,0l-0.1,0c0,0,0,0,0,0c-0.1-0.1-0.2-0.1-0.3-0.2c-0.1-0.1-0.1-0.2-0.1-0.2
			c0-0.1,0-0.1,0-0.2l0-0.1c0,0,0-0.2,0-0.2l0-0.3l0-0.3l0-0.4l0.3-3.4c0-0.2,0-0.4,0-0.6c0-0.2,0-0.3,0-0.5c0-0.2-0.1-0.3-0.1-0.4
			c0-0.1-0.1-0.3-0.2-0.4c-0.1-0.1-0.1-0.2-0.2-0.3c-0.1-0.1-0.2-0.2-0.3-0.2c-0.1-0.1-0.2-0.1-0.3-0.2c-0.1,0-0.2-0.1-0.3-0.1
			c-0.1,0-0.3,0-0.4,0c-0.1,0-0.3,0.1-0.4,0.2c-0.1,0.1-0.3,0.2-0.5,0.3c-0.2,0.1-0.3,0.3-0.5,0.4c-0.2,0.2-0.3,0.3-0.5,0.5
			c-0.1,0.1-0.2,0.3-0.3,0.4c-0.1,0.1-0.2,0.3-0.2,0.4c-0.1,0.1-0.1,0.2-0.1,0.3c0,0,0,0.1,0,0.1c0,0,0,0.1,0.1,0.1l0.1,0.1l0.2,0
			l0.1,0H68l0.1,0l0.1,0l0.1,0l0.1,0l0.1,0l0.1,0l0.1,0l0.1-0.7l0-0.2l0-0.2l0.1-0.2l0.1-0.1c0,0,0.1-0.1,0.1-0.1l0.1-0.1l0.2,0
			l0.2,0c0.1,0,0.2,0,0.3,0.1c0.1,0,0.2,0.1,0.3,0.2c0.1,0.1,0.2,0.2,0.2,0.3c0.1,0.1,0.1,0.2,0.2,0.4l0,0l0,0c0,0,0,0,0,0
			c0,0,0,0,0,0l0,0.1l0,0.2l0,0.3l0,0.3l-0.1,0.7c0,0,0,0.1,0,0.1s0,0.2,0,0.2c0,0-0.7,0.3-0.7,0.3l-0.7,0.3L68.4,19l-0.7,0.4
			l-0.1,0.1l-0.1,0.1l-0.1,0.1l-0.1,0.1l-0.1,0.1l-0.1,0.2l0,0.2l0,0.2l0,0.4l0,0.3l0,0.3l0.1,0.3c0,0.2,0.1,0.3,0.2,0.4
			c0.1,0.1,0.2,0.2,0.3,0.3c0.1,0.1,0.2,0.1,0.3,0.2c0.1,0,0.3,0.1,0.4,0.1l0.2,0l0.2,0l0.2-0.1l0.2-0.1l0.2-0.1l0.2-0.1l0.2-0.2
			c0,0,0.1-0.1,0.1-0.1c0,0,0,0.1,0,0.1l0,0.1l0,0.1l0,0.1c0,0,0,0.1,0,0.1l0.1,0.1l0.1,0.1l0.1,0.1l0,0c0,0,0,0,0,0l0,0
			c0,0,0.1,0.1,0.1,0.1l0.1,0l0.1,0l0.1,0l0.1,0l0.1,0l0.1,0l0.1,0c0,0,0.1,0,0.1,0l0.1,0l0.1,0l0.1,0c0,0,0.1,0,0.1,0l0.1,0l0.1,0
			l0.1,0c0,0,0,0,0,0c0,0,0,0,0,0c0,0,0.1,0,0.1,0l0.1,0l0.1,0l0.1,0c0,0,0.2-0.2,0.2-0.2l0-0.4L72.1,22L72.1,22z M70.4,18.6
			c0,0.1-0.2,2.4-0.2,2.4l0,0.1l-0.1,0.1L70,21.4l-0.1,0.1l-0.1,0.1l-0.1,0.1l-0.2,0l-0.2,0l-0.2,0l-0.2-0.1l-0.1-0.1l-0.1-0.1
			c0-0.1-0.1-0.1-0.1-0.2c0-0.1-0.1-0.2-0.1-0.2l0-0.3c0,0,0-0.3,0-0.3c0,0,0,0,0,0l0,0l0,0l0,0c0-0.1,0-0.2,0.1-0.3
			c0-0.1,0.1-0.2,0.1-0.2c0-0.1,0.1-0.2,0.2-0.2c0.1-0.1,0.1-0.1,0.2-0.2l0.1,0l0.7-0.4l0.2-0.1l0.3-0.2
			C70.3,18.7,70.3,18.6,70.4,18.6"/>
		<path class="st1" d="M79.9,23.3c-0.1,0-0.1-0.1-0.2-0.2c-0.1-0.1-0.1-0.2-0.1-0.3c0-0.1,0-0.1,0-0.2c0,0,0-0.1,0-0.1
			c0,0,0-0.3,0-0.3l0.5-4.2l0.1-0.7c0-0.2,0-0.4,0-0.6c0-0.2,0-0.3,0-0.5c0-0.2,0-0.3-0.1-0.4c0-0.2-0.1-0.3-0.2-0.4
			c-0.1-0.1-0.2-0.2-0.3-0.3c-0.1-0.1-0.2-0.2-0.4-0.2c-0.1-0.1-0.3-0.1-0.4-0.1c-0.1,0-0.2,0-0.4,0c-0.1,0-0.3,0-0.4,0.1
			c-0.1,0-0.3,0.1-0.4,0.1c-0.1,0.1-0.3,0.1-0.5,0.2L77,15.3l-0.2,0.2l-0.2,0.2c0,0-0.1,0.1-0.2,0.1c0-0.1,0.1-0.5,0.1-0.5l0.1-0.4
			l0-0.2l0-0.1l0,0l-0.2-0.2l-0.1-0.1l0,0l-0.4,0.2l-0.4,0.2l-0.4,0.2l-0.4,0.2l0,0.3l0,0l0.1,0.1l0.1,0.1l0.1,0.1l0.1,0.2l0.1,0.2
			l0,0.2l0,0.1l0,0.1l0,0.1l0,0.2l0,0.2l-0.6,4.9c0,0,0,0,0,0c0,0.1,0,0.2-0.1,0.3c0,0.1-0.1,0.2-0.2,0.2c-0.1,0.1-0.2,0.1-0.3,0.1
			c-0.1,0-0.2,0-0.3,0l0,0l-0.1,0l-0.1,0.6l0.8,0.1l0.8,0.1l0.8,0.1l0.8,0.1l0.1-0.6l-0.3,0l-0.1,0c-0.1,0-0.2,0-0.3-0.1
			c-0.1,0-0.2-0.1-0.2-0.2c-0.1-0.1-0.1-0.2-0.1-0.2c0-0.1,0-0.1,0-0.2c0,0,0-0.1,0-0.1l0,0c0,0,0,0,0,0c0,0,0.7-5.4,0.7-5.6
			c0,0,0.1-0.1,0.1-0.1l0.1-0.1l0.1-0.1l0.1-0.1l0.1,0l0.1-0.1l0.1,0l0.1,0l0.1,0l0.1,0l0.1,0l0.1,0c0.1,0,0.3,0.1,0.4,0.1
			c0.1,0,0.2,0.1,0.3,0.2c0.1,0.1,0.2,0.2,0.2,0.3c0.1,0.1,0.1,0.2,0.2,0.4l0.1,0.3l0,0.3l0,0.3l0,0.4l-0.5,4.2c0,0.1,0,0.2-0.1,0.3
			c0,0.1-0.1,0.2-0.2,0.2c-0.1,0.1-0.2,0.1-0.3,0.1c-0.1,0-0.2,0-0.3,0l0,0l-0.2,0l-0.1,0.6l0.8,0.1l0.8,0.1l0.8,0.1l0.8,0.1
			l0.1-0.6c0,0-0.3,0-0.3,0C80.1,23.4,80,23.4,79.9,23.3"/>
		<path class="st1" d="M88.1,16.5l-0.8-0.2l-0.8-0.2L85.6,16l-0.1,0.5l0.2,0.1c0,0,0.1,0,0.1,0l0.1,0l0.1,0.1l0,0.1l0,0.1l0,0.1
			l0,0.1l0,0.1l-0.1,0.2l-0.1,0.2c0,0-0.1,0.2-0.1,0.2L85.5,18l-0.3,0.3l-0.3,0.3l-0.3,0.3c0,0-0.2,0.2-0.3,0.3c0,0,0-0.2,0-0.2
			c0,0,0.4-2,0.4-2l1.1-5.9l0,0c0,0,0,0,0-0.1l0.1-0.3l-0.2-0.2l0,0l-0.5,0.2L84.7,11l-0.5,0.2l-0.5,0.2l0,0.3l0,0l0,0l0,0l0,0
			l0.1,0.1l0.1,0.1l0,0.1l0,0.1l0.1,0.2l0,0.2l0,0.3c0,0.1,0,0.2,0,0.3l-0.3,1.6l-0.6,3.1l-0.8,4.4c0,0,0,0.1,0,0.1c0,0,0,0.2,0,0.2
			l-0.1,0.3L82.2,23c0,0.1,0,0.2-0.1,0.2c0,0.1-0.1,0.1-0.2,0.2c-0.1,0.1-0.1,0.1-0.2,0.1c-0.1,0-0.2,0-0.3,0c0,0-0.3,0-0.3,0
			l-0.1,0.6l0.8,0.1l0.8,0.1l0.8,0.1l0.8,0.1l0.1-0.4l0-0.2l-0.1,0c-0.1,0-0.2,0-0.3-0.1c-0.1,0-0.2-0.1-0.2-0.2
			c-0.1-0.1-0.1-0.1-0.2-0.2c0-0.1-0.1-0.2-0.1-0.3v0c0,0,0-0.2,0-0.2l0-0.2l0-0.2l0-0.2c0,0,0.4-2.2,0.4-2.4c0,0.1,0.4,1.2,0.4,1.2
			c0,0,0.3,0.8,0.3,0.8c0.1,0.3,0.2,0.6,0.4,0.9c0.1,0.3,0.3,0.6,0.4,0.8c0.2,0.3,0.3,0.5,0.5,0.7c0,0,0.1,0.1,0.1,0.1l0,0.1
			l0.1,0.1l0.1,0.1l0.1,0.1l0.1,0.1l0.1,0c0,0,0,0,0,0c0,0,0,0,0,0l0.3,0.1l0.3,0.1l0.3,0.1l0.3,0.1c0,0,0.1,0,0.1,0l0,0l0,0l0-0.2
			l0,0c0,0,0,0,0-0.1l0-0.2l0,0l-0.1,0c0,0-0.1-0.1-0.2-0.2c-0.1-0.1-0.2-0.3-0.4-0.5c-0.2-0.3-0.3-0.6-0.5-1L86.8,23l-0.1-0.2
			l-0.1-0.2l-0.1-0.2l-0.1-0.2l-0.1-0.2l-0.1-0.2l-0.1-0.2L86,21.1l-0.2-0.6l-0.2-0.6c0,0-0.2-0.5-0.2-0.6c0,0,0.5-0.5,0.5-0.5
			c0,0,0.2-0.2,0.2-0.2l0.2-0.2l0.2-0.2l0.1-0.1l0.3-0.2l0.2-0.2l0.2-0.2l0.2-0.1c0,0,0.2-0.1,0.2-0.1l0.2-0.1l0.2,0l0.2,0l0.1,0
			l0.3,0l0.1,0l0.3,0l0.1-0.5L88.1,16.5z"/>
		<path class="st1" d="M52.7,10.5l0-0.2l0-0.2c0-0.1,0-0.3-0.1-0.4c0-0.1-0.1-0.2-0.1-0.3c-0.1-0.1-0.1-0.2-0.2-0.3
			C52.3,9.1,52.2,9,52.1,9l0,0l0,0l-0.2-0.1l-0.3-0.1l-0.3,0h-0.3c-0.2,0-0.4,0.1-0.6,0.1C50.2,9,50,9.1,49.9,9.2
			c-0.2,0.1-0.3,0.3-0.5,0.5c-0.2,0.2-0.3,0.4-0.4,0.7c-0.1,0.2-0.2,0.5-0.3,0.8c-0.1,0.3-0.1,0.5-0.2,0.8c0,0.3-0.1,0.6-0.1,0.9
			c0,0.3,0,0.6,0,0.9c0,0,0,0.1,0,0.1s0,0.3,0,0.3c0,0-0.2,0.3-0.2,0.3l-0.2,0.3l-0.2,0.3l-0.3,0.3l0,0.5l0.3,0l0.3,0l0.3,0
			c0,0,0.2,0,0.3,0c0,0,0.1,1.7,0.1,1.7c0,0,0.1,0.9,0.1,0.9l0.2,2.6l0,0.3l0,0.3c0,0,0,0.2,0,0.2v0.1c0,0.1,0,0.2-0.1,0.3
			c0,0.1-0.1,0.2-0.2,0.3c-0.1,0.1-0.2,0.1-0.3,0.2c-0.1,0-0.2,0.1-0.3,0.1l0,0l-0.1,0l0,0.6l1.3-0.1l2.4-0.2l0-0.6l-0.3,0
			c-0.1,0-0.3,0-0.4-0.1c-0.1,0-0.2-0.1-0.3-0.2c-0.1-0.1-0.2-0.2-0.2-0.3c-0.1-0.1-0.1-0.2-0.1-0.4c0,0,0,0,0,0c0,0,0,0,0,0
			c0,0,0-0.1,0-0.1l0-0.2l0-0.2l0-0.2L50,17.5l0,0c0,0,0,0,0,0c0,0,0-0.1,0-0.5c0,0-0.1-1.3-0.1-1.4c0,0,0.4,0,0.4,0l0.4,0l0.4,0
			l0.5,0l-0.1-1.2l-0.5,0l-0.4,0l-0.4,0c0,0-0.3,0-0.4,0c0,0-0.1-0.7-0.1-0.7l-0.1-0.8l0-0.7l0-0.6l0-0.5c0-0.2,0.1-0.4,0.1-0.5
			c0-0.2,0.1-0.3,0.2-0.4c0.1-0.1,0.1-0.2,0.2-0.2c0.1-0.1,0.2-0.1,0.2-0.1c0.1,0,0.1,0,0.2,0c0.1,0,0.1,0,0.2,0.1
			c0.1,0,0.1,0.1,0.2,0.1l0.2,0.2c0,0,0.2,0.2,0.2,0.2l0.2,0.2l0.2,0.2L52,11l0,0l0.2,0l0.2-0.1l0.1-0.1l0.1-0.1l0.1-0.1L52.7,10.5z
			"/>
		<path class="st1" d="M56.8,45.4c-0.9,0-1.5-0.2-2.5-2.8c0,0-6.2-17.2-6.2-17.2l-0.1,0l-0.2,0l0,0.1c0,0-0.3,1.1-1.2,1.7l-0.1,0
			c0,0,0.2,0.8,0.2,0.8c0,0-2.3,15.6-2.3,15.6c-0.1,0.4-0.4,1.6-0.6,2.1c-0.4-0.4-0.7-1.1-1.1-2.5l-2.6-11c-0.7-3,0.1-3.3,1.1-3.7
			l0.4-0.2l0-0.1l-0.2-0.8l-0.1,0c-2.4,0.4-4.8,0.8-7,1.3L34,29l0.3,1l0.1,0c2.2-0.5,2.9,1,3.3,2.7c0,0,0.5,2.1,1.1,4.5
			c-2.4,0.5-4.9,1-7.3,1.7c-0.6-2.4-1.1-4.6-1.1-4.6c-0.4-1.5-0.5-3.1,1.7-3.7l0.1,0L32,29.4l-0.1,0c-2.3,0.5-4.5,1.1-6.8,1.8
			c0,0-0.2,0.1-0.2,0.1l0.3,0.9l0.5,0c1-0.1,1.8-0.2,2.5,2.7l2.7,11.3c0.6,2.7,0.1,3-0.8,3.7c-0.2,0.1-0.4,0.3-0.6,0.4l-0.1,0l0.2,1
			l0.1,0c2.2-0.7,4.5-1.4,6.8-1.9l0.1,0l-0.2-1l-0.1,0c-0.9,0.2-1.5,0.2-2.2-0.4c-0.4-0.3-0.8-1.2-1.1-2.6c0,0-0.6-2.4-1.2-4.9
			c2.4-0.6,4.8-1.2,7.3-1.7c0.6,2.5,1.1,4.8,1.1,4.8c0.3,1.4,0.4,2.3,0.2,2.8c-0.4,0.9-1,1.2-1.9,1.3l-0.1,0l0.2,1l0.1,0
			c1.3-0.3,2.5-0.5,3.8-0.8c0.2,0,0.4-0.1,0.6-0.1c0.6-0.1,2.5-0.4,2.5-0.4l0.1,0l0,0c0.7-0.1,1.4-0.2,2.1-0.3l0.1,0L48,46.2l-0.6,0
			c-0.4,0-1,0-1.4-0.5c-0.3-0.3-0.5-0.8-0.5-1.5c0-0.2,0-0.4,0-0.7c0,0,0.3-2.1,0.6-4.7c1.3-0.2,2.6-0.3,4-0.4
			c0.8,2.3,1.5,4.2,1.5,4.2c0.2,0.6,0.3,1.2,0.3,1.6c0,0.3-0.1,0.6-0.2,0.8c-0.3,0.4-0.8,0.6-1,0.7l-0.2,0.1l0.1,0.9l0,0l0.1,0
			c1.9-0.2,3.9-0.3,5.9-0.4l0.1,0l-0.1-1L56.8,45.4z M46.5,37c0.4-2.7,0.7-5.3,0.8-6.4c0.2,0.4,1.2,3.3,2.2,6.1
			C48.6,36.8,47.6,36.9,46.5,37"/>
		<path class="st1" d="M96.3,31.8c-0.4-0.6-0.7-0.9-0.9-1.1c-0.4-0.3-0.9-0.6-1.6-0.8c-1.2-0.3-2.5,0-3.6,0.9c-1.2,1-2,2.4-2.4,4.2
			c-0.3,1.6-0.1,3.1,0.7,4.3c0.4,0.7,0.9,1.4,1.4,2c0.3,0.4,0.6,0.8,0.8,1.2c0.8,1.2,1,2.5,0.7,3.8c-0.2,1.1-0.6,1.9-1.2,2.4
			c-0.6,0.5-1.2,0.7-1.9,0.5c-0.8-0.2-1.4-0.7-1.9-1.5c-0.5-0.9-0.8-2.3-0.8-4c0,0,0-0.8,0-0.8l-0.8,0.1l-0.5,4.6
			c-0.6-0.6-1.6-1.9-2.6-4.5c0,0-2.5-6.1-2.7-6.8c0.1-0.1,4.1-4.4,4.1-4.4c1.5-1.5,2.8-2.2,4-2.1l0.1,0l0.3-0.9l-0.3-0.1h0
			c-1.7-0.4-3.4-0.7-5.1-1l-0.1,0l0,0.1l-0.2,0.9l0.1,0c0.4,0.1,0.6,0.3,0.7,0.6c0.1,0.4,0.1,1.1-1,2.4c0,0-3.7,4.2-4.7,5.3l1-5.6
			c0.4-2.2,1-2.9,2.6-2.9l0.1,0l0.2-1l-0.1,0c-2.1-0.3-4.3-0.6-6.4-0.8c0,0-0.2,0-0.2,0l0,0.1l-0.1,0.8l0.5,0.2
			c1,0.3,1.8,0.6,1.3,3.6l-1.9,11.1c-0.5,3-1.2,3.1-2.3,3.2l-0.7,0.1l0,0.1l-0.2,0.9l0.1,0c2.3,0.2,4.6,0.5,6.9,0.9l0.1,0l0.2-1
			l-0.1,0c-0.4-0.1-1.2-0.5-1.7-1.3c-0.4-0.5-0.3-1.6,0-2.8l0.9-5l3,7.7c1.1,2.9,4.5,3.7,4.6,3.7c0,0,0.6,0.1,0.6,0.1l0.1,0l0-0.1
			c0.2,0.2,0.5,0.4,0.8,0.6c0.6,0.4,1.3,0.7,1.9,0.8c1.3,0.3,2.5,0.1,3.6-0.7c1.3-0.8,2.2-2.2,2.6-4c0.4-2,0.2-3.7-0.6-5
			c0,0-1.2-1.8-1.2-1.8l-1.1-1.7c-0.8-1.2-1.1-2.4-0.8-3.6c0.2-0.8,0.5-1.5,1-2c0.6-0.6,1.2-0.8,1.9-0.7c0.8,0.2,1.3,0.8,1.5,1.8
			c0.1,0.6,0.1,1.6,0.1,3c0,0,0,0.4,0,0.4l0,0.1l0.6,0.2l1.3-4.6L96.3,31.8z"/>
		<path class="st1" d="M73.1,27.7l0.2,0l0-0.1l0.1-0.9l-0.1,0c-1.7-0.2-3.4-0.3-5.1-0.4l-0.2,0l-0.1,1l0.4,0.1
			c0.7,0.2,1.4,0.5,1.4,1.8c0,0.4-0.1,0.9-0.2,1.5c0,0-2.3,9.1-2.5,10c-0.2-1-2.1-10.7-2.1-10.7c-0.1-0.5-0.2-0.9-0.2-1.3
			c0-0.4,0.1-0.8,0.2-1c0.2-0.3,0.6-0.4,1.1-0.5l0.5-0.1l0-0.1l0-0.9l-0.2,0c-1.9-0.1-3.8-0.1-5.6-0.1l-0.1,0l-0.2,0l0,0.1l0,0.8
			l0.1,0c0.8,0.2,1.3,0.5,1.6,1c0.2,0.3,0.3,0.7,0.3,1.1c0,0.6-0.2,1.1-0.2,1.1c-0.1,0.4-2.2,7.9-2.7,10c-0.2-1-2-10.6-2-10.6
			c0-0.3-0.1-0.5-0.1-0.7c0-1.4,1-1.6,1.6-1.8l0.4-0.1l0-0.1l0-0.9l-0.1,0c-1.8,0-3.6,0.1-5.4,0.2l-0.3,0l0.1,0.9l0.2,0.1
			c0.9,0.4,1,0.5,1.5,2.7c0,0,3,16.3,3,16.3l0.9,0l0-0.1c0,0,3.5-13.5,3.8-14.5c0.2,1,2.8,14.7,2.8,14.7l0.8,0l0-0.1l3.8-14.7
			C71.4,27.9,72.5,27.8,73.1,27.7"/>
		<path class="st0" d="M72.9,53.2C72.9,53.2,72.9,53.1,72.9,53.2c-0.1-0.1-0.1-0.2-0.1-0.3c0,0,0,0,0,0c0,0-0.7-3.2-0.7-3.2l-0.4,0
			c0,0,0,0,0,0.1v0v0c0,0-0.1,0.1-0.1,0.1c0,0-0.1,0.1-0.2,0.1L71.3,50c0,0,0,0.3,0,0.3c-0.1,0.1-1,2.3-1.1,2.3c0,0-0.1,0.2-0.2,0.2
			c0,0,0,0-0.1,0c-0.4-0.2-0.7-0.6-0.7-0.6l0,0c0,0-0.4-0.6-0.6-0.9c0.2-0.2,0.6-0.6,0.6-0.6c0.1-0.1,0.3-0.2,0.3-0.3
			c0,0,0.2-0.1,0.3-0.1c0,0,0.3,0,0.3,0l0.1-0.7l-1.7-0.1v0l-1.7-0.1l0,0.3l0,0.4l0.2,0.1c0.1,0,0.2,0,0.2,0.1c0,0,0,0,0,0.2
			c0,0,0,0.1,0,0.1c0,0-0.2,1.8-0.2,1.8c0,0.2-0.1,0.3-0.1,0.3c0,0-0.1,0-0.1,0l-0.3,0l0,0.2l0,0.4l2.1,0.2l0-0.4
			c0.2,0.2,0.5,0.4,1,0.5v0l0,0c0.1,0,0.1,0,0.2,0l0.1,0l1.4,0.2l0.1-0.7L71,53c0,0-0.1,0-0.1,0c0,0,0-0.1,0-0.1
			c0,0,0.1-0.3,0.2-0.5c0.2,0,0.3,0,0.5,0.1c0,0.2,0.1,0.5,0.1,0.5c0,0.1,0,0.1,0,0.1c0,0,0,0,0,0c0,0-0.1,0-0.1,0l-0.2,0l-0.1,0.6
			l1.8,0.2l0.1-0.7C73.3,53.2,72.9,53.2,72.9,53.2 M68.6,50.2C68.6,50.3,68.6,50.3,68.6,50.2c0,0-0.2,0.2-0.4,0.4c0-0.2,0-0.3,0-0.3
			c0-0.1,0-0.2,0.2-0.2h0v0C68.4,50.2,68.5,50.2,68.6,50.2 M68.1,52.6c0,0-0.1,0-0.1-0.2c0,0,0-0.1,0-0.1c0,0,0,0,0-0.1l0.3,0.4
			l-0.1,0C68.2,52.7,68.2,52.7,68.1,52.6"/>
		<path class="st0" d="M66.2,50L66.2,50c-0.3-0.5-0.8-0.7-1.3-0.7c-0.6,0-1.1,0.2-1.5,0.6c-0.3,0.4-0.5,0.8-0.5,1.3
			c0,0.7,0.1,1.2,0.5,1.6c0.3,0.3,0.7,0.5,1.2,0.5c0.5,0,0.9-0.1,1.3-0.4c0.4-0.4,0.6-0.9,0.7-1.5C66.6,50.8,66.5,50.4,66.2,50
			 M64.7,52.5c-0.1,0-0.3,0-0.5-0.4c-0.2-0.3-0.2-0.6-0.2-1c0-0.3,0.1-0.6,0.2-0.8c0.1-0.2,0.3-0.3,0.5-0.3c0.1,0,0.3,0.1,0.5,0.4
			c0.1,0.2,0.2,0.5,0.2,0.9c0,0,0,0.1,0,0.1c0,0.4-0.1,0.7-0.3,0.9C65.1,52.4,64.9,52.5,64.7,52.5"/>
		<path class="st0" d="M62.9,49.6v-0.4h-0.3h-1.6v0.7h0.3c0.2,0,0.2,0,0.3,0.1c0,0,0.1,0.2,0.1,0.3v1.4c0,0.4-0.2,0.6-0.5,0.6
			c0,0-0.7,0-0.7-0.6v-1.5c0-0.2,0-0.2,0-0.2c0,0,0.1,0,0.2,0h0.3v-0.7H59v0.6l0.2,0l0.1,0c0.1,0,0.1,0,0.2,0.1c0,0,0,0.1,0,0.3v1.4
			c0,0.4,0,1.4,1.5,1.4c0.5,0,0.8-0.1,1.1-0.4c0.3-0.3,0.4-0.6,0.4-1.1v-1.4c0-0.2,0-0.3,0.1-0.4c0,0,0.1,0,0.1,0l0.3-0.1L62.9,49.6
			z"/>
		<path class="st0" d="M50.3,52.1c0,0,0.1,0.1,0.1,0.2c0,0,0,0.3,0,0.3l0.7-0.1c0,0-0.2-1.5-0.2-1.5c0.1,0,0.1,0,0.1,0l0-1.4l-0.3,0
			l0,0l0,0L50,49.8l-1,0.1L48.2,50l0.1,0.7c0,0,0.4,0,0.4,0c0,0,0.1,0,0.1,0c0,0,0,0,0,0.2c0,0,0.2,1.9,0.2,2c0,0,0,0.1,0,0.1
			c0,0.1,0,0.1,0,0.1c0,0-0.1,0.1-0.2,0.1l-0.3,0.1l0,0.3l0,0.4l2.1-0.2L50.6,53l-0.3,0c-0.1,0-0.3,0-0.3,0c0,0,0,0,0-0.2
			c0,0,0-0.3-0.1-0.6c0,0,0.1,0,0.1,0C50.1,52.2,50.3,52.1,50.3,52.1 M50.3,51.1L50.3,51.1L50.3,51.1c0,0.1,0,0.1,0,0.2
			c0,0.1,0,0.1-0.2,0.1c0,0-0.1,0-0.2,0c0-0.3-0.1-0.5-0.1-0.8c0.1,0,0.2,0,0.2,0c0.2,0,0.3,0,0.3,0c0,0,0,0.1,0.1,0.2
			c0,0,0,0,0,0.1c-0.1,0-0.1,0-0.1,0L50.3,51.1z"/>
		<path class="st0" d="M55.2,49.4l-0.3,0l-1.6,0.1l0.1,0.7l0.3,0c0.2,0,0.2,0,0.3,0.1c0,0,0.1,0.2,0.1,0.3c0,0,0.1,1.4,0.1,1.4
			c0,0,0,0.1,0,0.1c0,0.2,0,0.3-0.1,0.4c-0.1,0.1-0.2,0.1-0.3,0.2c-0.2,0-0.4,0-0.6-0.2c-0.1-0.1-0.2-0.2-0.2-0.4
			c0,0-0.1-1.4-0.1-1.5v0c0-0.1,0-0.2,0-0.2c0,0,0,0,0.2-0.1l0.3,0l-0.1-0.7l-2.1,0.2l0.1,0.6l0.2,0l0.1,0c0.1,0,0.1,0,0.2,0
			c0,0,0,0.1,0,0.3l0.1,1.4c0,0.4,0.1,1.4,1.6,1.3c1-0.1,1.4-0.8,1.4-1.4c0,0,0-0.1,0-0.1l-0.1-1.4c0,0,0-0.1,0-0.1
			c0-0.1,0-0.2,0-0.3c0,0,0.1,0,0.1,0l0.3-0.1l0-0.2L55.2,49.4z"/>
		<path class="st0" d="M59,52.4c-0.4-0.1-0.8-0.6-0.8-0.6l0,0c0,0-0.5-0.6-0.7-0.8c0.2-0.2,0.5-0.7,0.5-0.7c0.1-0.1,0.2-0.2,0.3-0.3
			c0,0,0.2-0.1,0.3-0.1c0,0,0.3,0,0.3,0l0-0.7l-0.3,0l-1.4,0v0l0,0l-1.6,0.1l0,0.6l0.2,0c0.1,0,0.2,0,0.2,0c0,0,0,0,0,0.3
			c0,0,0.1,1.8,0.1,1.9c0,0,0,0,0,0c0,0.2,0,0.2,0,0.3c0,0-0.1,0-0.1,0l-0.3,0.1l0,0.2l0,0.4l2.1-0.1l0-0.4c0.2,0.2,0.6,0.4,1.3,0.4
			l0.3,0l0-0.6L59,52.4z M57.1,50c0,0,0.1,0,0.2,0c0,0,0,0,0,0.1c0,0-0.1,0.2-0.3,0.4c0-0.2,0-0.3,0-0.3C56.9,50.1,56.9,50,57.1,50
			L57.1,50z M57.3,52.5c-0.1,0-0.1,0-0.2,0c0,0-0.1,0-0.1-0.2c0,0,0,0,0-0.1L57.3,52.5L57.3,52.5z"/>
		<path class="st1" d="M64.9,49.5c-0.5,0-1,0.1-1.3,0.5c-0.3,0.3-0.4,0.7-0.4,1.2c0,0.6,0.1,1.1,0.5,1.4c0.3,0.3,0.6,0.4,1,0.5
			c0.4,0,0.8-0.1,1.1-0.4c0.4-0.3,0.5-0.8,0.6-1.4c0,0,0-0.1,0-0.1c0-0.4-0.1-0.7-0.3-1.1C65.7,49.8,65.3,49.5,64.9,49.5 M65.7,51.3
			c0,0,0,0.1,0,0.1c0,0.4-0.1,0.7-0.3,1c-0.2,0.3-0.4,0.4-0.7,0.4c-0.3,0-0.5-0.2-0.7-0.5c-0.2-0.3-0.3-0.7-0.3-1.1
			c0-0.4,0.1-0.7,0.3-0.9c0.2-0.3,0.4-0.4,0.7-0.4c0.3,0,0.6,0.2,0.7,0.5C65.6,50.6,65.7,50.9,65.7,51.3"/>
		<path class="st1" d="M72.9,53.4c-0.1,0-0.2-0.1-0.2-0.2c0-0.1-0.1-0.2-0.1-0.3l0,0l-0.6-3l-0.1,0l0,0c0,0.1-0.2,0.2-0.3,0.2l0,0
			c0,0,0,0.1,0,0.2c0,0-1.1,2.4-1.1,2.4c0,0-0.1,0.2-0.2,0.3c-0.1,0.1-0.2,0.1-0.3,0.1l0,0c-0.5-0.2-0.8-0.8-0.8-0.8
			c0,0-0.7-1-0.7-1.1c0,0,0.8-0.7,0.8-0.7c0.1-0.1,0.3-0.2,0.4-0.3c0.1,0,0.3-0.1,0.4-0.1l0,0l0,0l0-0.2l-1.2-0.1l0,0l0,0.2l0.1,0
			c0.1,0,0.1,0,0.1,0.1c0,0,0,0.1,0,0.1c0,0.1-0.1,0.2-0.2,0.3l-0.8,0.9l0.1-1c0-0.2,0.1-0.4,0.5-0.4h0h0l0-0.2L67,49.7l0,0l0,0.2
			l0,0c0.3,0.1,0.4,0.1,0.4,0.6c0,0-0.2,1.9-0.2,1.9c-0.1,0.5-0.2,0.5-0.4,0.5l-0.1,0l0,0l0,0.2l1.6,0.1l0-0.2l-0.1,0
			c-0.1,0-0.1,0-0.2-0.1c-0.1-0.1-0.2-0.2-0.2-0.5l0.1-0.8l0.8,1.2c0,0,0.3,0.5,1.2,0.5l0,0v0l1.2,0.1l0-0.2l-0.1,0
			c-0.1,0-0.2-0.1-0.3-0.1c0,0,0-0.1,0-0.1c0-0.1,0-0.2,0.1-0.2c0,0,0.3-0.6,0.3-0.7c0.1,0,0.8,0.1,0.8,0.1l0.1,0.7l0,0
			c0,0,0,0.1,0,0.2c0,0.1,0,0.2-0.1,0.2c0,0-0.1,0.1-0.2,0.1l0,0l0,0.2l1.3,0.1l0-0.2L72.9,53.4z M71.8,51.8c-0.1,0-0.5-0.1-0.6-0.1
			c0-0.1,0.3-0.8,0.4-0.9C71.6,51,71.8,51.7,71.8,51.8"/>
		<path class="st1" d="M62.7,49.5L62.7,49.5h-1.4v0.2h0c0.2,0,0.3,0,0.5,0.2c0.1,0.1,0.1,0.3,0.1,0.5v1.4c0,0.8-0.5,0.8-0.7,0.8
			c-0.4,0-1-0.2-1-0.8v-1.5c0-0.2,0-0.3,0.1-0.4c0.1-0.1,0.2-0.1,0.4-0.1h0.1v-0.2h-1.6v0.2l0.1,0c0.1,0,0.3,0,0.3,0.2
			c0.1,0.1,0.1,0.2,0.1,0.4v1.4c0,0.4,0,1.2,1.3,1.2c0.4,0,0.7-0.1,0.9-0.3c0.2-0.2,0.3-0.5,0.3-0.9v-1.4c0-0.2,0-0.3,0.1-0.5
			c0-0.1,0.2-0.1,0.3-0.2l0.1,0l0,0V49.5z"/>
		<path class="st1" d="M50.5,51.1L50.5,51.1C50.5,51.1,50.5,51.1,50.5,51.1c0,0.1,0,0.3-0.1,0.4c-0.1,0.1-0.2,0.1-0.3,0.2
			c0,0-0.4,0-0.5,0.1c0-0.1-0.1-1.2-0.1-1.3c0.1,0,0.5-0.1,0.5-0.1c0.3,0,0.4,0,0.5,0.1c0.1,0.1,0.1,0.2,0.1,0.3l0,0.1l0,0l0,0h0
			c0,0,0.1,0,0.1,0l0-0.9l0,0l0,0L50,50.1l-1,0.1l-0.6,0.1l0,0.2l0.1,0c0,0,0.2,0,0.3,0.1c0.1,0.1,0.1,0.1,0.1,0.3l0.2,2
			c0,0.2,0,0.3-0.1,0.4c-0.1,0.1-0.3,0.1-0.3,0.2l0,0l0,0.2l1.6-0.2l0-0.2l0,0c0,0-0.3,0-0.5-0.1c-0.1-0.1-0.1-0.2-0.1-0.3
			c0,0-0.1-0.7-0.1-0.8c0.1,0,0.4,0,0.4,0c0.2,0,0.4,0,0.4,0c0.1,0.1,0.2,0.3,0.2,0.4l0,0l0.2,0l-0.1-1.3L50.5,51.1z"/>
		<path class="st1" d="M54.9,49.6L54.9,49.6l-1.3,0.1l0,0.2l0,0c0.2,0,0.3,0,0.5,0.1c0.1,0.1,0.1,0.3,0.2,0.4c0,0,0.1,1.4,0.1,1.4
			c0,0.3,0,0.5-0.2,0.7c-0.2,0.2-0.4,0.2-0.5,0.2c-0.2,0-0.5,0-0.8-0.2c-0.2-0.1-0.2-0.3-0.3-0.5l-0.1-1.5c0-0.2,0-0.3,0.1-0.4
			C52.7,50,52.9,50,53,50c0,0,0.1,0,0.1,0l0,0l0-0.2l-1.6,0.1l0,0.2l0.1,0c0.1,0,0.3,0,0.4,0.1c0.1,0.1,0.1,0.2,0.1,0.4l0.1,1.4
			c0,0.3,0.1,0.6,0.3,0.9c0.2,0.2,0.6,0.3,1,0.2c1.1-0.1,1.1-1,1.1-1.3c0,0-0.1-1.4-0.1-1.4c0-0.2,0-0.4,0.1-0.5
			c0-0.1,0.2-0.2,0.3-0.2l0.1,0l0,0L54.9,49.6z"/>
		<path class="st1" d="M58.9,52.7C58.4,52.5,58,52,58,52c0,0-0.8-0.9-0.8-1c0,0,0.7-0.8,0.7-0.8c0.1-0.1,0.3-0.3,0.3-0.3
			c0.1,0,0.3-0.2,0.4-0.2h0l0,0l0-0.2l0,0l-1.2,0l0,0.2l0.1,0c0.1,0,0.1,0,0.1,0c0,0,0,0.1,0,0.1c0,0.1-0.1,0.2-0.1,0.3l-0.7,1
			c0-0.5,0-1,0-1c0-0.2,0-0.4,0.4-0.5h0l0-0.2l0,0l-1.4,0l0,0.2l0,0c0.3,0,0.4,0.1,0.5,0.5c0,0,0.1,1.9,0.1,1.9
			c0,0.5-0.1,0.5-0.4,0.6l-0.1,0l0,0l0,0.2l1.6-0.1l0-0.2l-0.1,0c-0.1,0-0.1,0-0.3-0.1c-0.1-0.1-0.2-0.2-0.2-0.5c0,0,0-0.4,0-0.8
			l0.9,1.1c0,0,0.4,0.4,1.2,0.4l0,0L58.9,52.7L58.9,52.7z"/>
	</g>
</g>
</svg>
