<?xml version="1.0" encoding="utf-8"?>
<!-- Generator: Adobe Illustrator 27.7.0, SVG Export Plug-In . SVG Version: 6.00 Build 0)  -->
<svg version="1.1" id="レイヤー_1" xmlns="http://www.w3.org/2000/svg" xmlns:xlink="http://www.w3.org/1999/xlink" x="0px"
	 y="0px" viewBox="0 0 120 64" style="enable-background:new 0 0 120 64;" xml:space="preserve">
<style type="text/css">
	.st0{fill:none;}
	.st1{fill:#FFFFFF;}
	.st2{fill:#4B307C;}
	.st3{fill:#DF610F;}
</style>
<path class="st0" d="M0,0h120v64H0V0z"/>
<g>
	<g>
		<path class="st1" d="M28.9,44c0-0.8-0.1-1.7-0.7-2.2c-0.5-0.5-1.2-0.8-2.1-0.8c-0.7,0-1.3,0.3-2,0.7v-0.7h-9.9l-2.1,8.6h-1.6
			l-1.1,5.3h3.3c2.5,0,4.4-1.3,4.8-3.8l1.9-7.3L20,55h5.3l-0.7-8.2c0.4,0.1,0.8,0.3,1.2,0.3C27.6,46.9,28.9,45.7,28.9,44 M33.9,47.9
			c0-0.8-0.1-1.7-0.7-2.1c-0.5-0.5-1.2-0.8-2.1-0.8c-1.7,0-3,1.2-3,2.9c0,0.8,0.1,1.7,0.7,2.1c0.5,0.5,1.2,0.8,2.1,0.8
			C32.5,50.9,33.8,49.5,33.9,47.9 M102.3,40.9l-2.9,9.4l-0.1,0.1c-0.1,0.1-0.3,0.1-0.3,0.1H98c0.5-1.7,2.5-7.9,2.5-8.2l0.4-1.6h-30
			l-0.1,0.8c-0.7-0.5-1.6-0.8-2.6-0.8h-9.5l-1.3,4.6h-9.1l1.3-4.6h-5.7l-2.6,8.6h-1.6l2.8-8.7h-5.4l-2.6,9.3l-1.3,4.9h9
			c2.1,0,3.4-1.1,4.1-3.3l0.3-0.8h10.1l0.1-0.5h0.5L55.6,55h9.1c2.1,0,3.8-1.3,4.8-3.7l1.3-4.6h6.9l0.4-1.2H81l-2.9,9.7h7.4l2.9-9.7
			h3.3c-0.4,1.6-0.8,3-0.9,3.3c-0.4,1.1-0.1,2.4,0.5,2.9c0.7,0.7,1.3,1.3,3.2,2.9c0.8,0.7,1.7,0.9,2.5,0.9c1.2,0,2.4-0.3,3.3-0.9
			c1.3-0.8,2.1-1.2,4.5-2.8c1.1-0.7,1.6-1.3,1.9-2.4l2.5-8.2L102.3,40.9L102.3,40.9z M64.5,49.3c-0.1,0.3-0.3,0.4-0.5,0.4h-2.5
			l0.9-3.4h2.9C65.4,46.2,64.5,49.3,64.5,49.3z"/>
		<path class="st2" d="M85,53.8h-5l3-9.7h-4.5l0.7-2h13.6L92.3,44h-4.4L85,53.8z M92.3,48.9c0.1-0.7,2.1-6.7,2.1-6.7h5
			c0,0-2.5,8.1-2.6,8.6c-0.1,0.5,0.1,1.1,0.7,1.1h1.7c0.3,0,0.5-0.1,0.8-0.4c0.3-0.1,0.5-0.5,0.5-0.7l2.6-8.6h5l-2.1,6.6
			c-0.4,0.8-0.5,1.2-1.3,1.9c-2.4,1.6-3,2-4.4,2.8c-0.8,0.5-1.9,0.8-2.8,0.8c-0.7,0-1.2-0.3-1.9-0.7c-1.7-1.3-2.4-2.1-3-2.8
			C92.1,50.2,92,49.5,92.3,48.9"/>
		<path class="st3" d="M34.3,53.8l0.8-3h5.7c0.5,0,0.9-0.3,1.2-0.8l2.5-7.9h3.2l-2.8,9.1c-0.5,1.9-1.6,2.5-3,2.5
			C42,53.6,34.3,53.8,34.3,53.8z M38.5,48.9h-2.9l2-6.9h2.9L38.5,48.9z M47.1,49.5l0.8-2.9h8.5l-0.8,2.9H47.1z M57.3,53.8l0.8-3H64
			c0.7,0,1.3-0.4,1.7-1.2l1.1-3.6c0.1-0.7-0.1-0.9-0.9-0.9h-4l-1.2,4h-3.2l2.1-6.9h8.7c1.9,0,2.9,0.9,2.2,3l-1.9,5.7
			c-0.5,2-2.1,3-3.6,3C64.9,53.8,57.3,53.8,57.3,53.8z M70.7,45.3l0.9-3.2h2.9l-0.9,3.2H70.7z M74.3,45.3l0.9-3.2h2.9l-0.9,3.2H74.3
			z M32.7,47.9c0,0.9-0.9,1.9-2,1.9c-0.9,0-1.9-0.8-1.9-1.9c0-0.9,0.9-1.9,2-1.9C32.1,46.1,32.9,46.9,32.7,47.9 M20.1,42l0.7,11.8
			h2.9L22.9,42H20.1z M13.4,49.8c-0.1,0.5-0.5,0.8-1.2,0.8h-0.5l-0.5,3h1.6c2,0,3.2-0.9,3.6-3l2-8.7h-3.2
			C15.1,41.9,13.4,49.8,13.4,49.8z M26,42c-1.1,0-2,0.8-2,1.9s0.7,1.9,1.9,1.9c1.2,0,2-0.8,2-1.9C27.8,42.9,27.2,42,26,42
			 M25.8,44.5c-0.4,0-0.7-0.3-0.5-0.7c0-0.4,0.4-0.7,0.7-0.7s0.7,0.3,0.5,0.7C26.6,44.2,26.4,44.5,25.8,44.5"/>
	</g>
	<path class="st1" d="M109.7,33.1v1.4H10.6v-1.4H109.7z"/>
	<g>
		<polygon class="st1" points="32.7,10.6 28.3,10.6 28.3,18.7 25.2,18.7 25.6,23.1 32.7,23.1 		"/>
		<path class="st1" d="M27.4,10.6h-7.3v16.3h4.4V15.1h3.1L27.4,10.6z M85.6,12.6c-2.5,0-4.4,2-4.4,4.4c0,2.3,2,4.4,4.4,4.4
			c2.5,0,4.4-2,4.4-4.4S87.9,12.6,85.6,12.6 M85.6,19.7c-1.7,0-2.9-1.3-2.9-3c0-1.7,1.2-3,2.9-3s2.9,1.3,2.9,3
			C88.4,18.4,87.1,19.7,85.6,19.7 M50.2,17.5h4.3v-1.3h-4.3V14h4.7v-1.3h-6.1V21H55v-1.3h-4.8C50.2,19.7,50.2,17.5,50.2,17.5z
			 M95.9,19.6v-6.9h-1.6V21h5.9v-1.3L95.9,19.6z M41.5,12.7h-3.3V21h1.4v-2.6h1.8c1.8,0,3.1-1.2,3.1-2.9
			C44.5,13.9,43.5,12.7,41.5,12.7 M41.3,17h-1.7v-3h1.7c1.2,0,1.8,0.7,1.8,1.6C43.2,16.5,42.4,17,41.3,17 M66.6,15.6
			c0-1.7-0.9-2.9-3.1-2.9h-3.3V21h1.6v-2.6h1.7l2,2.6H67l-2.1-3C65.9,17.7,66.6,16.6,66.6,15.6 M63.3,17h-1.7v-3h1.7
			c1.2,0,1.8,0.7,1.8,1.6C65.1,16.5,64.4,17,63.3,17 M76.3,16.8c-0.5-0.4-1.2-0.5-2-0.7c-1.3-0.4-1.7-0.5-1.7-1c0-0.7,0.7-1,1.3-1
			c0.9,0,2,0.5,2.3,0.8c0.3,0.1,0.5,0.4,0.7,0.5v-1.8c-0.7-0.5-1.7-1-3-1c-1.7,0-2.9,1-2.9,2.5c0,1.8,1.8,2.2,2.7,2.5
			c1.7,0.4,2,0.7,2,1.2c0,0.4-0.1,0.5-0.4,0.7c-0.3,0.1-0.7,0.3-1.3,0.3c-1.2,0-2.5-0.8-2.9-1.2v1.8h0.1c0.5,0.4,1.7,0.8,2.9,0.8
			c2,0,3.1-0.9,3.1-2.5C77.4,17.9,77,17.1,76.3,16.8"/>
	</g>
</g>
</svg>
