<?xml version="1.0" encoding="utf-8"?>
<!-- Generator: Adobe Illustrator 26.5.0, SVG Export Plug-In . SVG Version: 6.00 Build 0)  -->
<svg version="1.1" id="レイヤー_1" xmlns="http://www.w3.org/2000/svg" xmlns:xlink="http://www.w3.org/1999/xlink" x="0px"
	 y="0px" viewBox="0 0 120 64" style="enable-background:new 0 0 120 64;" xml:space="preserve">
<style type="text/css">
	.st0{fill:#FFFFFF;}
	.st1{fill:#7D001A;}
	.st2{fill:#F6AB00;}
</style>
<g>
	<g>
		<g>
			<path class="st0" d="M84.8,51.1c-0.5,0-1,0-1.6-0.1l0,0c-1.3-0.2-6.3-1.5-7.1-1.6l0,0C69.7,48,63,47.8,61.1,47.8l0,0
				c-0.8,0-1.7,0-2.5,0l0,0c-9.9,0-14.7,1.3-18.4,2.3l0,0l-2.3,0.6c-1.3,0.3-2.3,0.5-3.3,0.5l0,0c-1.3,0-2.4-0.3-3.3-0.9l0,0
				c0,0-0.1-0.1-0.1-0.1l0,0c-0.3-0.1-0.5-0.2-0.7-0.4l0,0c-1.1-0.7-1.9-1.9-2.3-3.4l0,0c-2.5-0.3-5.1-0.6-7.5-1.3l0,0
				c-0.4-0.1-0.8-0.4-1.2-0.7l0,0c-1.3-0.4-2.2-1.5-2.4-2.7l0,0l0-0.5c0,0-0.1-0.9-0.1-1.4l0,0c0,0-0.1,0-0.1,0l0,0
				c-0.4-0.2-0.8-0.4-1.1-0.7l0,0c-0.1,0-0.1-0.1-0.2-0.1l0,0c-1.2-0.5-2-1.7-2.1-2.9l0,0l0-0.5l0-1.6c0-0.1,0-0.1,0.1-0.2l0,0
				c0,0,0.1-0.1,0.2-0.1l0,0l1.6,0.3l0.5,0.1c1.7,0.3,3.3,0.5,4.9,0.7l0,0C18,33.4,15.7,32,14,30.5l0,0c-0.5-0.4-1-0.8-1.5-1.2l0,0
				c-1-0.9-1.5-2-1.5-3.3l0,0v-0.7l0-2.3c0-0.1,0-0.2,0.1-0.2l0,0c0.1,0,0.2,0,0.2,0l0,0l2,1.1l0.6,0.3c6,3.4,13.1,5.4,21.1,6l0,0
				c0.5,0,0.9,0.1,1.3,0.2l0,0v-5.7c0-0.1,0-0.1,0.1-0.2l0,0c0,0,0.1-0.1,0.2-0.1l0,0h46.1c0.1,0,0.1,0,0.2,0.1l0,0
				c0,0,0.1,0.1,0.1,0.2l0,0v6.1c1.1-0.4,2.3-0.7,3.7-0.8l0,0c6.8-0.8,12.5-2.5,18.4-5.7l0,0l0.6-0.3l2-1.1c0.1,0,0.2,0,0.2,0l0,0
				c0.1,0,0.1,0.1,0.1,0.2l0,0l0,2.2l0,0.7c0,1.3-0.5,2.5-1.5,3.3l0,0c-0.4,0.3-0.8,0.6-1.1,0.9l0,0c-0.1,0.1-0.1,0.1-0.2,0.2l0,0
				c-2,1.7-4.2,3-6.7,4.1l0,0c1.8-0.2,3.4-0.4,4.8-0.7l0,0l0.5-0.1l1.6-0.3c0.1,0,0.1,0,0.2,0l0,0c0.1,0,0.1,0.1,0.1,0.2l0,0l0,1.6
				l0,0.5c0,1.3-0.8,2.4-2.1,2.9l0,0c-0.1,0-0.1,0.1-0.2,0.1l0,0c-0.3,0.3-0.7,0.6-1.1,0.7l0,0c0,0-0.1,0-0.2,0.1l0,0
				c0,0.4-0.1,1.4-0.1,1.4l0,0l0,0.5c-0.1,1.2-1.1,2.3-2.4,2.7l0,0c-0.4,0.3-0.8,0.5-1.2,0.7l0,0c-1.8,0.6-3.6,0.9-5.8,1.2l0,0
				C90.8,50.4,86.3,51.1,84.8,51.1L84.8,51.1"/>
		</g>
		<g>
			<g>
				<g>
					<path class="st1" d="M39.4,30.2c0,0.1,0,0.1,0.2,0.1v0.1H38v-0.1c0.2,0,0.2-0.1,0.2-0.1v-3.9c0-0.1,0-0.1-0.2-0.2v-0.1H41
						c1.2,0,1.8,0.4,1.8,1.4c0,0.8-0.5,1.2-1.2,1.4l1,1.4c0.1,0.1,0.1,0.1,0.2,0.1v0.1h-1.7v-0.1c0.1,0,0.2,0,0.2-0.1
						c0-0.1-0.9-1.2-1-1.4h-0.8V30.2z M39.4,27.9h1.4c0.5,0,0.6-0.2,0.6-0.5c0-0.2-0.1-0.5-0.6-0.5h-1.4V27.9z"/>
					<path class="st1" d="M45.8,29.5c-0.2,0.6-0.3,0.7-0.3,0.8c0,0,0,0.1,0.2,0.1v0.1h-1.5v-0.1c0.1,0,0.2-0.1,0.2-0.2
						c0.1-0.2,1.5-3.9,1.5-3.9c0-0.1-0.1-0.1-0.2-0.1v-0.1h2.2v0.1c-0.1,0-0.1,0-0.1,0.1c0,0.1,1,2.6,1.5,3.8
						c0.1,0.2,0.1,0.2,0.2,0.2v0.1h-1.6v-0.1c0.1,0,0.2,0,0.2-0.1c0,0-0.2-0.6-0.3-0.8H45.8z M46,28.8h1.6l-0.8-2L46,28.8z"/>
					<path class="st1" d="M54.3,30.5v-0.1c0.1,0,0.2,0,0.2-0.1c0-0.1-1-1.6-1.2-1.8l-0.8,0.7v1c0,0.1,0,0.1,0.2,0.1v0.1H51v-0.1
						c0.2,0,0.2-0.1,0.2-0.1v-3.9c0-0.1,0-0.1-0.2-0.2v-0.1h1.7v0.1c-0.2,0-0.2,0.1-0.2,0.2v1.5h0.1c0.7-0.7,1.6-1.5,1.6-1.5
						c0-0.1-0.1-0.1-0.2-0.1v-0.1h2.1v0.1c-0.2,0-0.3,0.1-0.5,0.3l-1.4,1.2l1.7,2.5c0.1,0.1,0.2,0.1,0.3,0.1v0.1H54.3z"/>
					<path class="st1" d="M61.2,26.3c0-0.1,0-0.1-0.2-0.2v-0.1h1.7v0.1c-0.2,0-0.2,0.1-0.2,0.2v2.2c0,1.5-1,2-2.3,2
						c-1.3,0-2.3-0.5-2.3-2v-2.2c0-0.1,0-0.1-0.2-0.2v-0.1h1.7v0.1c-0.2,0-0.2,0.1-0.2,0.2v2.2c0,0.6,0.4,0.9,1.1,0.9
						c0.7,0,1.1-0.3,1.1-0.9V26.3z"/>
					<path class="st1" d="M65.6,30.5v-0.1c0.2,0,0.2-0.1,0.2-0.1v-3.1h-1.4c-0.1,0-0.1,0-0.2,0.2h-0.1v-1.5h0.1
						c0,0.2,0.1,0.2,0.2,0.2h4.1c0.1,0,0.1,0,0.2-0.2h0.1v1.5h-0.1c0-0.2-0.1-0.2-0.2-0.2h-1.4v3.1c0,0.1,0,0.1,0.2,0.1v0.1H65.6z"
						/>
					<path class="st1" d="M73.6,28.8h-0.1c0-0.1-0.1-0.2-0.3-0.2h-1.6v0.8h2.7c0.1,0,0.1,0,0.2-0.3h0.1v1.5h-0.1
						c0-0.1-0.1-0.2-0.2-0.2h-4.2v-0.1c0.2,0,0.2-0.1,0.2-0.1v-3.9c0-0.1,0-0.1-0.2-0.2v-0.1h4.2c0.1,0,0.1,0,0.2-0.2h0.1v1.5h-0.1
						c0-0.2-0.1-0.2-0.2-0.2h-2.7v0.7h1.6c0.2,0,0.2-0.1,0.3-0.2h0.1V28.8z"/>
					<path class="st1" d="M76.5,26.3c0-0.1,0-0.1-0.2-0.2v-0.1h2v0.1c-0.2,0-0.2,0.1-0.2,0.1c0,0.1,1.4,1.6,2,2.3v-2.2
						c0-0.1-0.1-0.1-0.2-0.2v-0.1h1.5v0.1c-0.2,0-0.2,0.1-0.2,0.2v3.9c0,0.1,0,0.1,0.2,0.1v0.1h-1.6v-0.1c0.1,0,0.2,0,0.2-0.1
						c0-0.1-0.2-0.2-2.4-2.7v2.6c0,0.1,0,0.1,0.2,0.1v0.1h-1.6v-0.1c0.2,0,0.2-0.1,0.2-0.1V26.3z"/>
				</g>
			</g>
			<g>
				<g>
					<path class="st2" d="M87,36.9l-1,0c0.4,0.3,1,0.7,1.4,0.8l0.4,0.2c1.3,0.7,2.3,1.6,3,2.5c4.6-0.4,7.8-1.2,10.7-2.4
						c0.3-0.1,0.6-0.3,0.8-0.6c0.2-0.1,0.4-0.1,0.5-0.2c0.6-0.3,1.1-0.9,1.1-1.5l0-0.5l-0.5,0.1C99.5,36.2,94.2,36.7,87,36.9z"/>
					<path class="st2" d="M93.8,40.9l-2.1,0l-0.7,0c0,0,0,0,0,0c0.8,1.1,1.1,2.4,0.9,3.7c2.3-0.2,4-0.6,5.8-1.1
						c0.3-0.1,0.6-0.3,0.9-0.6c0.1,0,0.2-0.1,0.3-0.1c0.7-0.2,1.2-0.8,1.3-1.4l0-0.5l-0.5,0C97.6,41,95.8,40.9,93.8,40.9z"/>
					<path class="st2" d="M28.6,44.2l-0.1-0.5l-0.2-1.3c0-0.3-0.1-0.6-0.1-0.8h0l0-0.4l0-0.4c0,0-0.4,0-0.4,0l-1.7,0
						c-2.2,0-4.5,0.1-7,0l-0.5,0l0,0.5c0.1,0.6,0.6,1.2,1.3,1.4c0.1,0,0.2,0.1,0.3,0.1c0.2,0.3,0.5,0.5,0.9,0.6
						c2.2,0.7,4.8,1,7.5,1.3v0C28.6,44.6,28.6,44.4,28.6,44.2L28.6,44.2z"/>
					<path class="st2" d="M28,39.9L28,39.9l0-0.5l-0.3-2.3l0-0.3l-0.3,0c-3.3-0.2-7.3-0.5-11.8-1.3L15,35.3l0,0.5
						c0,0.6,0.5,1.3,1.1,1.5c0.2,0.1,0.4,0.1,0.5,0.2c0.2,0.3,0.5,0.5,0.8,0.6c2.9,1.2,6.5,2,10.7,2.4L28,39.9z"/>
					<path class="st2" d="M105.8,25.7c-6.1,3.3-11.9,5.1-19,5.9c-3.9,0.4-5.6,1.8-6.4,3.2c-0.1,0.1-0.2,0.3-0.3,0.4l0.3-2.5l0.1-0.5
						l-0.5,0c-1.8,0.1-4.1,0.2-6.2,0.3c-2,0.1-3.3,1-3.6,2.6c-0.2,0.4-0.3,0.8-0.4,1.3c0,0-0.2,3.5-0.3,6.3l-0.1,0
						c-1.8-0.1-3.4-0.1-4.5-0.1c0-1.8,0.2-8.5,0.2-9.4v-0.4l-0.4,0c0,0-1.2,0-2.1,0c-1.2,0-1.8,0.7-1.8,1.8c0,0.1,0,0.3,0,0.5
						c0,0.1,0,0.3,0,0.5c0,0.5,0,2.1,0,4c-0.1-0.6-0.3-1.1-0.7-1.4c-0.4-0.4-1-0.6-1.8-0.6H55h-0.4l0.1,4h2.2l0,1.6
						c-0.2,0.1-0.5,0.1-0.7,0.1c-1,0-1.5-0.6-1.8-1.5c-0.1-0.5-0.1-1-0.1-1.6c0-1.2,0-2.7,0.5-3.3c0.2-0.2,0.4-0.3,0.8-0.3
						c0.4,0,0.7,0.1,0.9,0.3c0.1,0.1,0.1,0.2,0.1,0.3v0.4h0.4h3.3h0.4l0-0.8V36c0-1.6-1.4-3.5-5.5-3.6c-1.7,0-3.1,0.5-4,1.5
						c-1.1,1.2-1.6,3-1.5,5.5c0,0.3,0,0.5,0.1,0.8l-1.9-5.1c0-0.1-0.1-0.2-0.1-0.3l-0.2-0.7c-0.4-1-1.2-1.6-2.1-1.6
						c-0.7,0-2.7-0.1-2.7-0.1l-0.3,0l-0.1,0.3c-0.3,1.3-0.6,2.6-0.9,3.8l-0.1-0.2c-0.1-0.5-0.4-1-0.8-1.5c-0.7-1.7-2.8-2.8-5.5-3
						c-8.3-0.6-15.6-2.7-21.8-6.2l-0.6-0.3l0,0.7c0,0.8,0.3,1.5,1,2.1c0.4,0.4,0.9,0.8,1.4,1.1c3.1,2.7,8.2,5.1,13.4,6.3l0.4,4
						c0.2,2.2,0.4,4.1,0.5,4.7c0.3,2.1,1,3.4,2.1,4.2c0.2,0.1,0.4,0.2,0.6,0.3c0.1,0.1,0.1,0.1,0.2,0.2c1.2,0.8,2.8,0.9,5.3,0.2
						l2.3-0.6c1.2-0.3,2.3-0.6,3.5-0.9l0.2-0.1l0.1-0.2c0.6-3,1.1-5.5,1.5-8l0.7,2.5l1.1,4.2l0.1,0.3c0,0,0.1,0,0.2,0l0.1,0.2
						l0.1,0.3c0,0,0.3,0,0.3,0c1.1-0.1,2.3-0.3,3.8-0.4l0.5,0L51.9,46l-0.6-1.5c1.3,1.8,3.4,2.2,4.7,2.2c1.6,0,3.3-0.6,4.4-1.5
						l0.2-0.2c0,0.5,0,0.8,0,0.8v0.4l0.4,0c2.4,0,6,0.2,7.9,0.5l0.4,0.1l0,0c0.1,0,0.3,0,0.3,0c1.4,0.2,4.2,0.5,6.7,1.1
						c0.9,0.2,1.8,0.4,2.9,0.7c1.5,0.4,3,0.7,4.2,1c1.9,0.3,3.5-0.1,4.7-0.9c1.6-0.7,2.6-2,3-3.4c0.6-2.4-0.7-4.8-3.7-6.5l-0.4-0.2
						c-1.3-0.7-2.1-1.2-2-1.8c0.2-0.1,0.5-0.1,0.8-0.2c7.9-1.1,13.5-3.3,18.2-7.1c0.1-0.1,0.1-0.1,0.2-0.2c0.4-0.3,0.8-0.6,1.2-0.9
						c0.7-0.5,1-1.2,1-2.1l0-0.7L105.8,25.7z M39.2,44.2c-1.1,0.2-2.7,0.5-4,0.7c-0.1,0-0.2,0-0.3,0c0-0.1,0-0.2-0.1-0.3l0-0.3
						c-0.1-0.5-0.2-1.6-0.3-3c1.7,0.1,3.3,0.2,5,0.3l0.4,0C39.7,42.4,39.5,43.2,39.2,44.2z M40,41.4c0-0.1,0-0.4,0-0.4l-0.2-1.9
						l-0.1-0.9l0-0.4l-0.4,0c-0.1,0-0.1,0-0.2,0l0-0.5l0-0.4l-0.4,0C37,37,35.5,37,34.2,37l0,0l0-0.5c2.6,0.2,5,0.3,6.7,0.3h0.4
						C40.8,38.4,40.4,39.9,40,41.4z M74.4,37c1.3,0,2.8-0.1,4.7-0.2l0.4,0c0,0,0,0.1,0,0.1c0,0,0,0.1,0,0.1c-0.1,0-0.4,0-0.4,0
						l-4.6,0C74.4,37.1,74.4,37,74.4,37z M85.2,44.7C85.2,44.8,85.2,44.8,85.2,44.7c-0.2,0.1-0.4,0.1-0.4,0.1c-1,0-2.8-0.3-5.3-0.8
						c-1.9-0.4-3.8-0.7-5.4-0.9c0-0.6,0.1-1.3,0.1-1.9h4.1h0.4l0-0.4c0-0.1,0-0.2,0-0.4h0.1h0.4l0-0.4c0.1-0.5,0.1-0.9,0.1-1.3
						c0-0.4,0.1-0.9,0.1-1.3l0-0.1c-0.1,2.5,1.7,3.8,3.4,4.8C85.2,43.6,85.4,44.1,85.2,44.7z"/>
				</g>
				<g>
					<path class="st1" d="M60.3,39.8c0,1.5,0,4.4,0,4.4c-1,0.8-2.6,1.4-4.3,1.4c-2.5,0-5.6-1.3-5.9-6.3c-0.2-5,2.1-6.5,5.1-6.6
						c3.7,0,5.1,1.7,5.1,3.2c-1.2,0-2.1,0-3.4,0c0-0.6-0.7-1-1.5-1c-1.6,0-1.9,1.8-1.8,4.2c0.1,2.3,0.4,4.3,2.6,4.3
						c0.3,0,0.9-0.1,1.1-0.3c0-1,0-1.9,0-3c-0.7,0-1.5,0-2.2,0c0-0.8,0-1.6,0-2.5c0,0,2.5,0,3.3,0C59.4,37.8,60.3,38.4,60.3,39.8z
						 M64.7,33.2c0,0-1.2,0-2.1,0c-0.9,0-1.4,0.5-1.4,1.4c0,1.3-0.1,10.6-0.1,10.6c2.3,0,6.1,0.2,8.2,0.5l0.1-2.6
						C67.9,43.1,66,43,64.5,43C64.5,43,64.7,34.3,64.7,33.2z M13.8,27.8c3.4,3,9.1,5.5,14.8,6.6c0.4,3.3,0.9,8.7,1.1,9.7
						c0.6,4.4,2.9,5.1,7.1,4c2.1-0.5,3.9-0.9,6-1.5c0.8-3.9,1.3-6.9,2-10.6c0.9,3.5,1.8,6.6,2.6,9.9c1.3-0.2,2.8-0.3,3.9-0.4
						c0,0-2.6-6.9-4.2-11.2C46.7,33.4,46,33,45.3,33c-0.7,0-2.7-0.1-2.7-0.1c-1,4-1.9,7.4-3,11.6c-1.1,0.2-2.8,0.5-4.3,0.7
						c-1.1,0.2-1.4-0.4-1.5-1.3c0-0.3-0.2-1.7-0.4-3.9c1.9,0.2,3.8,0.3,5.6,0.3c-0.1-1-0.2-1.9-0.3-2.9c-2,0-3.8-0.1-5.6-0.1
						c-0.1-0.8-0.2-1.6-0.2-2.2c2.5,0.2,5.4,0.4,7.3,0.4c-0.5-2-2.8-3.1-5.3-3.3C27,31.7,19.5,29.7,13,26
						C13,26.8,13.2,27.4,13.8,27.8z M27.3,37.1c-3.6-0.2-7.5-0.5-11.9-1.3c0,0.4,0.3,0.9,0.9,1.2c3,1.2,6.8,2.1,11.3,2.5L27.3,37.1z
						 M27.8,41.3c-2.8,0-5.7,0.1-8.7,0c0,0.4,0.5,0.9,1,1c2.4,0.8,5.3,1.1,8,1.4L27.8,41.3z M86.7,35.1c8.1-1.1,13.9-3.4,18.5-7.3
						c0.6-0.5,0.8-1.1,0.8-1.8c-6.2,3.3-12,5.1-19.1,5.9c-4,0.4-6.1,1.9-6.4,4.2c-0.3,2.4,1,3.8,3.3,5.1c2.3,1.3,2.9,1.9,2.6,3
						c-0.2,0.8-1,1.1-1.6,1c-1.3-0.1-3.5-0.4-5.4-0.8c-1.8-0.4-3.9-0.7-5.8-0.9c0-1,0.2-2.4,0.2-3.4c1.6,0,3.4,0,5,0
						c0.1-0.9,0.1-1.8,0.2-2.6c-1.7,0-3.4,0-5.1,0c0.1-0.9,0.1-0.9,0.2-1.8c1.8,0,3.6-0.1,5.6-0.2l0.3-2.9c-1.8,0.1-4.1,0.2-6.2,0.3
						c-2,0.1-3.1,1.2-3.2,2.6c-0.1,1.5-0.5,10.2-0.5,10.2c2,0.2,4.7,0.6,6.9,1.1c2.2,0.5,5.2,1.3,7.3,1.7c3.3,0.6,5.8-1.2,6.5-3.5
						c0.6-2.5-1-4.6-3.5-6.1c-1.4-0.8-2.8-1.5-2.6-2.5C84.8,35.7,85.3,35.3,86.7,35.1z M87.6,37.4l0.4,0.2c0.9,0.5,1.7,1.1,2.4,1.8
						c0,0,0.1,0.1,0.1,0.1c5.4-0.4,9-1.2,12.2-2.6c0.5-0.2,0.8-0.7,0.9-1.2c-4.4,0.9-9.9,1.3-16.2,1.5
						C87.5,37.4,87.5,37.4,87.6,37.4z M91.8,41.3c0.4,0.7,0.6,1.5,0.7,2.3c2.4-0.2,4.3-0.5,6.5-1.2c0.5-0.2,1-0.6,1-1
						C96.9,41.4,94.6,41.3,91.8,41.3z"/>
				</g>
			</g>
		</g>
	</g>
</g>
</svg>
