<?xml version="1.0" encoding="utf-8"?>
<!-- Generator: Adobe Illustrator 26.5.0, SVG Export Plug-In . SVG Version: 6.00 Build 0)  -->
<svg version="1.1" id="レイヤー_1" xmlns="http://www.w3.org/2000/svg" xmlns:xlink="http://www.w3.org/1999/xlink" x="0px"
	 y="0px" viewBox="0 0 120 64" style="enable-background:new 0 0 120 64;" xml:space="preserve">
<style type="text/css">
	.st0{fill:#FFFFFF;}
	.st1{fill:#B8A536;}
	.st2{fill:#000121;}
</style>
<g>
	<g>
		<path class="st0" d="M101.2,29.9c0-0.4-0.1-0.8-0.2-1.1c-0.2-0.6-0.5-1.2-0.9-1.7c0.2-0.1,0.4-0.3,0.5-0.5
			c0.5-0.6,0.8-1.3,0.9-2.1c0-0.3,0.1-0.8-0.1-1.3c-0.1-0.4-0.3-0.7-0.5-1c-0.3-0.3-0.7-0.6-1.1-0.7c-0.2-0.1-0.4-0.1-0.6-0.1
			s-0.4,0-0.6,0.1s-0.4,0.1-0.5,0.2c-0.7-0.9-1.5-2.3-1.5-2.3s-1.5,2.9-2.3,3.3c-0.3,0.1-0.4,0.2-1.1,0.2C92.5,23,92.4,23,91.8,23
			l-1.2-2.5l-4.4,2.3c-0.4,0.2-1,0.5-1.4,1c-0.2,0.2-0.3,0.4-0.5,0.6c-0.1-0.4-0.3-0.7-0.5-1c-0.4-0.6-0.9-1.1-1.6-1.8l-1.4-1.2
			l-1.2,1.5c-0.4,0.5-1.1,0.9-1.7,1C77.5,23,76.1,23,75.3,23c0-0.2,0-0.4,0-0.5c0.2-0.1,0.6-0.3,1-0.5l1-0.4c0,0-1.7-1.1-3.1-3
			c-1-1.3-2-3.8-2-3.8s-1,2.7-2.2,3.8C68.7,20,67.2,21,67.2,21l1,0.4c0.4,0.2,0.7,0.4,0.9,0.5v1.2c-0.3-0.2-0.7-0.4-1-0.8
			c-0.9-0.9-1.3-1.7-1.3-1.7l-0.4-0.7l-0.6,0.6c-0.5,0.4-1.8,1.6-2.4,2.1l-1.2-0.1c0.4-0.9,0.5-1.9,0.4-3s-0.7-2.7-1.1-3.4L60.8,15
			l-1,2.3c-0.5-0.3-1-0.4-1.6-0.4c-0.7,0-1.4,0.3-1.9,0.8c-0.4,0.4-0.7,0.8-0.9,1.4c0,0.1-0.1,0.2-0.1,0.3c0-0.1-0.1-0.2-0.1-0.3
			c-0.2-0.6-0.5-1-0.9-1.4c-0.5-0.5-1.3-0.8-2-0.8c-0.5,0-1.1,0.1-1.6,0.4L49.8,15l-0.7,1c-0.5,0.8-1,2.3-1.2,3.3c0,0.3,0,0.8,0,1.2
			c-0.6-0.9-1.1-2.3-1.1-2.3s-0.7,2.4-1.9,4c-0.3-0.4-0.9-1-1.3-1.4l-1.5-1.2c0,0-0.5,1.2-1,2.2c-0.1,0-0.1,0-0.2-0.1
			c-0.8-0.3-1.2-0.8-1.3-1.1c-0.5-3.9-3.5-6.4-7.7-6.4c-1.6,0-2.8,0.4-3.6,0.8c-0.8-0.6-2-1.1-3.5-1.1c-0.3,0-0.5,0-0.8,0.1
			c-2.5,0.3-4.2,2.1-4.2,4.3c0,2.1,1.4,3.3,2.3,3.7c0.4,0.2,1,0.3,1.4,0.4c0,0.1,0,0.3,0,0.3c0,1.2,0,1.7,0,2.4
			c-0.7,0.4-3.9,1.5-5.2,1.7c1,0.2,2.7,0.5,5.2,2.1C22,29.6,21,30.2,20,30.8c-1.3,0.9-2.1,2.2-2.1,3.9c-0.2,2.8,1.8,5,4.8,5.3
			c0.3,0,0.6,0,0.8,0c1.1,0,2.1-0.2,3.1-0.6c0.2-0.1,0.4-0.1,0.6-0.1c0.3,0,0.5,0.1,0.7,0.2c0.9,0.6,2.1,2.2,3.2,4.5
			c0,0,0.9-1.8,1.7-3.1c0,0,0.8,0.4,1.6,0.8c6.1,2.9,7.8,8,7.8,8s8-5.1,23.6-7.9c1.6-0.3,3-0.5,4.4-0.8c8.9-1.6,13-2.3,21.5-3.4
			l1.1-0.1c0.2,0.1,0.4,0.1,0.7,0.1c0.5,0,1.1-0.2,1.1-0.2c0.6-0.2,1.2-0.7,1.5-1c0.9-0.9,2.6-2.2,3.8-2.9c0.5-0.3,0.6-0.7,0.7-0.9
			l0.1-0.1c0.1-0.1,0.1-0.3,0.2-0.4c0.8-0.6,2.2-1.1,2.2-1.1S101.8,30.4,101.2,29.9z"/>
		<path class="st1" d="M100.6,30c0-0.3,0-0.7-0.1-1.1c-0.2-0.7-0.6-1.5-1.4-2c0.4-0.2,0.8-0.4,1.1-0.8c0.4-0.5,0.7-1.1,0.7-1.7
			c0-0.4,0-0.7-0.1-1.1c-0.1-0.2-0.2-0.5-0.4-0.7c-0.2-0.2-0.5-0.4-0.8-0.5c-0.4-0.1-0.7-0.1-0.9,0c-0.4,0.1-0.7,0.3-0.7,0.3
			l-0.2,0.1c-0.8-0.8-1.2-2-1.2-2s-1,2.1-1.9,2.6c-0.1,0.1-0.2,0.1-0.4,0.1c-0.3,0.1-0.6,0.1-0.9,0.2c-0.1,0-1.4,0.1-1.4,0.1
			l-0.1,0.7l-1.5-2.9l-3.9,2c-0.5,0.2-0.9,0.5-1.3,0.9c-0.6,0.6-0.9,1.3-1,2.2c-0.1,0.4-0.1,0.9-0.1,1.4c0-0.9,0-1.8-0.1-2.1
			c-0.1-0.7-0.3-1.4-0.7-2c-0.4-0.6-0.9-1.1-1.4-1.6L81,21.3l-0.8,1c-0.5,0.6-1.4,1.1-2.1,1.2S75,23.6,75,23.6v3.9h-0.1h-0.1
			c0-2.5,0-5,0-5.3s1.4-0.8,1.4-0.8s-1.6-1.3-2.4-2.4c-0.7-1-1.5-2.7-1.5-2.7s-0.7,1.8-1.6,2.8c-0.8,0.9-2.1,1.8-2.1,1.8
			s1.3,0.6,1.3,1v2.4c0,0-1.2-0.3-2.1-1.3c-1-1-1.4-1.8-1.4-1.8s-1.9,1.8-2.6,2.3l-2.4-0.1c0.7-1,0.9-2.3,0.8-3.5
			c-0.1-1-0.6-2.5-1-3.1l-0.8,1.8c-0.2-0.2-0.1-0.1-0.5-0.3c-0.4-0.2-0.9-0.4-1.4-0.4c-0.6,0-1.2,0.3-1.5,0.6
			c-0.4,0.4-0.6,0.7-0.7,1.1c-0.3,0.8-0.4,1.6-0.4,2.3c0,0.7-0.1,1.4-0.1,1.4c-0.1,0-0.2,0.1-0.2,0.1s-0.1,0-0.2-0.1
			c-0.1,0-0.1-0.8-0.1-1.4c0-0.7-0.1-1.5-0.4-2.3c-0.2-0.4-0.4-0.8-0.7-1.1c-0.4-0.3-1-0.6-1.5-0.6s-1,0.2-1.4,0.4
			c-0.3,0.2-0.2,0.1-0.5,0.4l-0.7-1.9c-0.5,0.7-1,2.3-1.1,3.1c-0.1,0.9,0,2.5,0.8,3.5l-1,0.1c-0.7-1-1.5-3.1-1.5-3.1s-1,2.5-2,3.5
			c-0.3-0.6-0.7-1.2-1.4-1.7l-1.2-1c0,0-0.5,1.8-1.1,2.5c-0.6,0.6-1.8,1.4-1.8,1.4s1,0.8,1,1.2c0,0.4,0,0.9,0,1.2
			c0,0.3-0.6,0.8-1.2,1.1c-0.3-0.6-0.7-1.2-1.2-1.6c0.5-0.6,1-1.6,1.1-2.9c0.1-0.8,1.2-1.2,1.6-1.3c-0.7-0.2-1.5-0.7-1.7-1.3
			c-0.5-3.6-3.2-5.8-7.1-5.8c-1.7,0-2.9,0.5-3.6,1c-0.7-0.6-1.9-1.3-3.4-1.3c-0.2,0-0.5,0-0.7,0c-2.1,0.3-3.6,1.8-3.6,3.7
			c0,1.7,1.2,2.7,1.9,3.1c0.7,0.3,1.9,0.4,1.9,0.4c0,0.2-0.1,0.8-0.1,0.9c-0.1,1.4,0,1.8,0.1,2.6c-0.7,0.7-3.3,1.4-3.6,1.4
			c0,0,2.8,0.7,3.6,1.5c-0.1,0.5-0.2,1-0.2,1.6c-0.1,0-0.1,0-0.2,0c0,0-0.1,0-0.2,0c-2.4,0-5.2,1.1-5.4,4.3
			c-0.1,2.5,1.6,4.3,4.2,4.6c0.3,0,0.5,0,0.8,0c1,0,1.9-0.2,2.9-0.5c0.3-0.1,0.6-0.2,0.8-0.2c0.4,0,0.8,0.1,1.1,0.3
			c0.4,0.3,1.5,0.9,2.8,3.9c0,0,0.3-0.7,1-2c0.1-0.2,0.3-0.4,0.4-0.6c4.1,2,7.8,3.9,10,8.6c0,0,7.5-4.7,23.2-7.6
			c12.3-2.2,16.1-3,26-4.2l1.2-0.2c0.2,0.1,0.5,0.1,0.8,0.1c0.2,0,0.4,0,0.6-0.1l0,0c0.6-0.2,1-0.4,1.4-0.8c1-1.1,2.7-2.3,3.9-3.1
			c0.3-0.2,0.5-0.6,0.6-0.8s0.1-0.3,0.2-0.5c0.1-0.3,1.6-0.8,1.6-0.8S100.6,30.4,100.6,30z M50.5,31.2c-0.4,0.1-1.1,0.1-1.1,0.1
			s0-0.5,0-1.7c0.2-0.1,0.6-0.3,0.9-0.4L50.5,31.2z M49.9,26.2l0.2,1.6c-0.2,0-0.5-0.1-0.7-0.2c0-0.9,0-1.2,0-1.2L49.9,26.2z
			 M40.3,29.7c0,0.3,0,1.2,0,1.7c-0.2-0.2-0.4-0.4-0.5-0.6c-0.1-0.7-0.3-1.3-0.5-1.9C39.8,29.1,40.3,29.5,40.3,29.7z M31.4,19.7
			c0.4,0,0.6,0.1,0.9,0.3c0.4,0.4,0.6,1.2,0.6,1.4c0,0.3-0.4,0.7-1.2,1.1c0.2,0.1,1.4,0.7,1.4,1.1c0,0.6-0.1,1.1-0.4,1.3
			c-0.3,0.3-1.4,0.7-2.1,0.7c-0.1,0-0.1,0-0.2,0v-5.1C30.4,19.9,31,19.7,31.4,19.7z M31.5,35.1h-0.1c-0.7,0-0.9-0.3-0.9-1
			s0-1.6,0-2.6v-0.3c0-0.8,0-1.6,0-2c0-0.3,0.1-0.3,0.2-0.3c1,0,1.7,0.2,2.1,0.7c0.3,0.3,0.5,0.8,0.5,1.5c0,0.5-1.2,1-1.4,1.1
			c0.4,0.1,1.4,0.8,1.4,1.2c0,0.6-0.2,1-0.6,1.4C32.3,34.9,31.9,35.1,31.5,35.1z M33,39.7c0.6-0.8,1.4-1.3,2.5-1.8
			c1.4-0.7,5.8-1.2,6.1-1.2c-0.9-0.5-1.9-1.6-2-2c-0.1-0.2,0-0.9,0.1-1.1l0,0c0.4,0.2,1,0.6,1.2,0.9c0.6,0.7,1.3,2.4,1.3,2.4
			l2.7-2.4c0,0.1,0.1,0.2,0.1,0.2c0.4,0.6,1,1,1.4,1.3l0.8,0.6l3.3-3.9l0.6,5.5L33,39.7z M53.7,37.9L55,26.1c0-0.2,0.1-0.4,0.2-0.5
			c0,0,0-0.1,0.1-0.1c0,0,0,0,0.1,0.1s0.2,0.3,0.2,0.5c0.1,0.7,1.2,11.6,1.2,11.6L53.7,37.9z M74.7,29.6
			C74.8,29.6,74.8,29.6,74.7,29.6h0.2v1.5h-0.2V29.6z M59.3,37.4l1.1-8.3c0,0,0,3.1,0,3.3c0,0.6,0.1,1.3,0.5,1.9
			c0.4,0.6,0.9,1.1,1.6,1.6l0.9,0.6c0,0,1.5-1.6,1.9-2c0.4,0.6,0.9,1.1,1.5,1.4l0.8,0.5l2.4-2.7c0.3,0.8,0.9,1.6,2,2.2l0.6,0.3
			L59.3,37.4z M72.9,36.3l2.3-3h0.1c0.7,0.5,2.4,1.7,3,2.4l0.1,0.1L72.9,36.3z M80,35.7l0.1-0.2c0.3-0.6,1.8-1.4,2.5-1.7
			c0.6-0.3,1-1,1.2-1.7c0.1-0.5,0.2-1,0.2-1.7c0,0.4,0.1,0.8,0.1,1.2c0.2,1.1,0.7,2.1,1.4,2.8c0.3,0.3,0.6,0.6,0.9,0.8L80,35.7z
			 M93.8,30.4c-0.3,0.1-0.6,0.2-0.9,0.4c-1.4,0.4-2.7,0.7-3.2,0.1c-0.1-0.1-0.4-0.4-0.5-0.7L92,28c0.2,0.5,0.4,1,0.9,1.4
			c0.4,0.4,0.9,0.6,1.3,0.8C94.1,30.4,93.9,30.4,93.8,30.4z"/>
		<path class="st0" d="M23.1,27.3c0.1,0,1.6-0.4,2.1-1.2l0,0c-0.1-1.1-0.2-1.4-0.1-2.9c0-0.7,0.2-1.6,0.5-2.3c-0.1,0-0.2,0-0.3,0
			c-0.1,0-0.3,0-0.4,0c-0.4-0.1-0.7-0.3-0.9-0.5c-0.2-0.1-0.2-0.2-0.3-0.2c0,0-0.1,0-0.2,0c-0.2,0.1-0.2,0.5-0.2,0.5v0.6l-0.5-0.2
			c-0.1,0-1.4-0.7-1.4-2.3c0-1.4,1.2-2.6,2.8-2.8c0.2,0,0.4,0,0.6,0c1.7,0,2.8,1,3.3,1.5c0.5-0.4,1.7-1.2,3.7-1.2
			c3.5,0,5.8,1.9,6.2,5.2c0.1,0.6,1.6,1.1,1.6,1.1s-1.5,0.5-1.5,1.2c-0.1,1.8-1,2.7-1.7,3.2c1.3,0.6,2.1,1.9,2.4,3.9
			c0.1,0.8,1.5,1.2,1.5,1.2s-1.5,0.6-1.6,1.3c-0.1,0.6-0.1,0.9-0.1,1.4c0,0.7,1.1,1.3,1.1,1.3c-0.2,0-3.1,0.2-4.8,1
			c-1.8,0.9-2.6,1.8-3.6,3.6L31,41.4l-0.3-0.7c0,0-0.6-1.3-2.1-2.4c-0.4-0.3-1-0.5-1.6-0.5c-0.4,0-0.8,0.1-1.1,0.2
			c-0.8,0.3-1.7,0.5-2.6,0.5c-0.2,0-0.5,0-0.7,0c-2.2-0.2-3.5-1.7-3.4-3.7c0.2-3.5,4.1-3.5,4.6-3.5s0.9,0.2,0.9,0.2
			s-0.5,0.2-0.8,0.3c-0.8,0.3-1.1,0.7-1.2,1.2c-0.1,0.2,0,0.4,0,0.4c0.1,0.1,0.2,0.1,0.2,0.1c0.1,0,0.3-0.1,0.5-0.1
			c0.2-0.1,0.5-0.2,0.9-0.2c0.1,0,0.3,0,0.4,0s0.2,0,0.3,0c-0.1-0.6-0.1-1.1-0.1-2c0.1-1,0.1-1.8,0.4-2.6
			C24.8,27.7,23.2,27.3,23.1,27.3z M32.8,32.1c0,0,1.2-0.4,1.2-0.8c0.1-1-0.2-1.8-0.7-2.4c-0.6-0.6-1.5-0.9-2.7-0.9
			c-0.6,0-1,0.5-1,1.2c0,0.5,0,1.3,0,2.1c0,1,0,2.1,0,2.8c0,1.2,0.6,1.8,1.8,1.9c0.1,0,0.1,0,0.2,0c0.7,0,1.3-0.2,1.7-0.7
			c0.5-0.5,0.8-1.3,0.8-2.2C34,32.7,32.9,32.1,32.8,32.1z M32.7,22.6c0,0,1.1-0.5,1.1-0.8c0-0.5-0.2-1.6-0.9-2.3
			c-0.4-0.4-0.9-0.6-1.5-0.6c-1.1,0-1.9,0.7-1.9,1.8v5.1c0,0.6,0.2,0.9,1,0.9c0.9,0,2.2-0.4,2.7-0.9s0.7-1.3,0.6-2.1l0,0
			C33.8,23,32.7,22.6,32.7,22.6z M41.1,31.4c0-0.7,0-2.1,0-2.1c0-0.2-0.1-0.3-0.2-0.4c-0.3-0.2-1-0.4-1.2-0.4c0.2,0,0.9-0.3,1.2-0.5
			c0.1-0.1,0.2-0.2,0.2-0.4c0,0,0-1.2,0-1.7S40,24.8,40,24.8c0.4-0.1,1.2-0.5,1.7-1s0.8-1.5,0.8-1.5c0.7,0.4,1.2,1,1.5,1.6
			c0.3,0.5,0.3,1,0.3,1s0.6-0.3,1.4-1.2c0.2-0.3,0.4-0.6,0.6-0.9c0.3-0.5,0.5-0.9,0.5-0.9s0.3,1,1.2,2c0.7,0.7,1.5,1.3,1.5,1.3
			s-0.6,0.1-0.8,0.3c-0.2,0.2-0.2,0.3-0.2,0.8v1.3c0,0.4,1.2,0.7,1.8,0.7c-0.6,0.1-1.8,0.2-1.8,0.8v2.1c0,0.4,0.1,0.5,0.1,0.6
			c0.1,0.1,0.1,0.1,0.2,0.1c0.4,0,1.3-0.1,1.3-0.1l-2.9,3.4L47,35.3c-0.4-0.3-0.9-0.6-1.2-1.1c-0.2-0.3-0.4-0.7-0.5-1.1l-2.8,2.5
			c0,0-0.4-1.1-1.1-1.8c-0.6-0.6-1.4-1-1.4-1S41.1,32.1,41.1,31.4z M44.5,31.7c0,0.1,0,0.3,0,0.4c0,0.1,0.1,0.2,0.1,0.2s0,0,0.1,0
			c0,0,0.1,0,0.1-0.1l0.4-0.4V26c0-0.2-0.1-0.4-0.2-0.5c-0.1-0.1-0.2-0.2-0.2-0.2l-0.4-0.2c0.1,0.4,0.1,0.7,0.1,1L44.5,31.7z
			 M91.5,36.5c-10.2,1.3-14.1,2.1-25.8,4.2c-7.1,1.3-12.5,2.8-16.2,4.1c-4.6,1.7-6.6,3.1-6.6,3.1s-0.9-2-2.7-3.8
			c-1.9-1.9-4.3-2.9-6.3-3.9l18.2-1.5c-0.3-2.4-1-7.7-1.3-10.7c-0.1-1-0.2-1.8-0.2-2c0-0.4-0.2-0.7-0.4-0.9
			c-0.2-0.2-1.1-0.9-1.1-0.9s2.5-0.3,2.9-0.3c0.4-0.1,0.7-0.3,1-0.6c0.2-0.3,0.3-0.7,0.3-1.2c0-0.1,0-0.2-0.1-0.2
			c0,0-0.2,0.1-0.3,0.3c-0.2,0.2-0.4,0.5-0.7,0.7c-0.4,0.3-1.2,0.3-1.7,0c-0.2-0.1-0.5-0.4-0.6-0.7c-0.3-0.5-0.4-1.2-0.4-2
			c0-0.6,0.1-1.3,0.3-2c0,0,0.2,0.8,0.6,1.8c0.1-0.1,0.7-0.9,1.1-1.1c0.3-0.2,0.5-0.3,0.9-0.3s0.7,0.2,1,0.4
			c0.2,0.2,0.4,0.5,0.5,0.8c0.3,0.6,0.3,1.4,0.3,2V22c0,0.4,0,0.7,0.1,1.1c0,0.3,0.2,0.6,0.3,0.8c0.1,0.1,0.2,0.2,0.4,0.2l0.4,0.1
			l0.4-0.1c0.2,0,0.3-0.1,0.4-0.2c0.1-0.1,0.2-0.3,0.2-0.4c0.1-0.4,0.1-0.9,0.1-1.4v-0.2c0-0.4,0.1-0.9,0.2-1.4
			c0.1-0.5,0.3-1,0.7-1.3c0.2-0.2,0.5-0.4,0.9-0.4c0.5,0,0.9,0.2,1.2,0.5s0.8,0.9,0.8,0.9c0.1-0.1,0.6-1.8,0.6-1.8
			c0.2,0.6,0.3,1.6,0.3,2c0,0.6-0.1,1.2-0.2,1.6c-0.1,0.5-0.4,0.8-0.7,1c-0.2,0.2-0.5,0.2-0.8,0.2c-0.5,0-0.9-0.2-1.2-0.5
			c-0.3-0.2-0.4-0.5-0.6-0.6C57.6,22,57.6,22,57.5,22l-0.1,0.2c0,0.5,0.1,0.9,0.4,1.2c0.2,0.3,0.5,0.5,0.9,0.5
			c0.4,0.1,1,0.1,1.4,0.1s0.8,0.1,0.9,0.1c0.1,0,1,0,1,0s-1,0.6-1.1,0.6c-0.1,0.1-0.3,0.2-0.4,0.3c-0.2,0.3-0.5,0.6-0.5,1
			c0,0.2-0.1,0.9-0.2,1.9c0,0.2-0.1,0.5-0.1,0.7c0.8-0.1,1.5-0.4,1.5-0.8V27c0-0.6,0.1-1,0.4-1.4c0.3-0.4,0.7-0.7,1.2-0.9
			c1.1-0.5,2.3-1.4,3-2.1l0.3-0.3l0.2,0.3c0.5,0.9,1.9,2,3.2,2.3l0.8,0.2c0,0-0.8,0.4-1,0.6c-0.1,0.1-0.3,0.3-0.4,0.5
			c-0.1,0.1-0.1,0.3-0.1,0.4v1.1c0,0.1,0,0.3,0.1,0.3c0.1,0.1,0.3,0.2,0.8,0.2c0,0,0.9,0,1-0.5V22c0-0.3-0.1-0.5-0.3-0.7
			c-0.2-0.2-0.5-0.3-0.5-0.3s0.8-0.4,1.3-1.1c0.5-0.6,1.1-1.6,1.1-1.6s0.5,1.2,1.2,1.9c0.5,0.5,1.3,1.2,1.3,1.2s-0.6,0.2-0.7,0.3
			c-0.2,0.2-0.2,0.8-0.2,0.8v5.4c0,0.2,0.3,0.5,1,0.5c0.8,0,1-0.4,1-0.5v-3.4h0.3c0.1,0,0.3,0,0.4,0c1.6,0,3.3-0.5,4.4-1.8l0.2-0.3
			l0.3,0.3c0.8,0.8,1.3,1.3,1.6,2.1c0.3,0.8,0.4,1.7,0.4,3c0,0.1,0.1,0.2,0.2,0.3c0.1,0.1,0.5,0.2,0.7,0.2s0.5-0.1,0.7-0.3
			c0.1-0.1,0.1-0.3,0.1-0.3s0.1-1.7,0.5-2.4c0.4-0.6,0.7-0.9,1.4-1.2l3.2-1.7l2.2,4.4l-4,3.1c0.1,0.5,0.3,0.9,0.7,1.4
			c0.6,0.7,1.4,0.7,1.4,0.7c0.2,0,0.5-0.1,0.8-0.2c0.4-0.1,0.9-0.3,1.5-0.5c0,0-0.2,0.6-0.8,1c-1.3,0.9-3.2,3.1-3.2,3.1L88,35.1
			c-1-0.5-1.6-1-2.2-1.8c-0.6-0.9-0.9-2.1-0.9-3.6v-0.3c0-0.1-0.1-0.2-0.2-0.3c-0.1-0.1-0.4-0.2-0.6-0.3c-0.2,0-0.6,0.2-0.7,0.2
			c-0.1,0.1-0.2,0.2-0.2,0.4c0,1.1-0.1,1.8-0.3,2.4c-0.2,0.6-0.4,0.9-0.8,1.2c-0.3,0.2-0.6,0.3-0.9,0.4c-0.5,0.1-0.8,0.3-1.1,0.5
			c-0.3,0.3-0.6,0.6-0.8,1.1l-0.2,0.6l-0.4-0.4c-0.4-0.4-1-0.9-1.6-1.4s-2-1.4-2-1.4l-2.7,3l-0.2-0.1c-0.8-0.5-1.3-1.1-1.6-1.7
			c-0.2-0.6-0.3-1.1-0.3-1.4c0-0.1,0-2.8,0-2.8c0-0.3-0.2-0.5-1-0.6c0,0-0.9,0-0.9,0.6v1.8c0,0.3,0,0.5,0.1,0.7
			c0,0.2,0.1,0.3,0.1,0.3h0.1c0,0,0.3,0,1.4-0.3l-2.9,3.5L67,35.3c-0.9-0.5-1.5-1.3-1.7-2.1c-0.7,0.6-1.4,1.3-2,2.1l-0.2,0.2
			L63,35.3c-0.8-0.6-1.2-1-1.5-1.6c-0.3-0.5-0.3-1.1-0.3-1.8v-2.6c0-0.2-0.2-0.5-0.6-0.6c-0.3-0.1-0.6-0.2-0.8-0.2
			c-0.1,0.8-0.2,1.8-0.3,2.8c-0.3,2.4-0.7,5.1-0.9,6.8l32.9-2.8l0.8,1L91.5,36.5z M99.6,31.4c-0.1,0.1-0.1,0.3-0.2,0.5
			c-0.1,0.1-0.1,0.3-0.3,0.4c-0.1,0.1-0.2,0.2-0.4,0.3c-0.1,0.1-0.3,0.2-0.4,0.3c-0.3,0.2-0.7,0.5-1,0.7c-0.8,0.6-1.6,1.6-1.6,1.6
			l-0.2-0.4l-0.4,0.7c0,0-0.1,0.2-0.3,0.4c-0.2,0.2-0.7,0.4-1.2,0.4s-1-0.3-1.3-0.7s-0.4-0.9-0.4-1.5s0.3-1.4,0.7-1.9
			c0.5-0.6,1.1-1,2-1s1.6,0.3,2,0.6c0.1,0.1,0.2,0.1,0.3,0.2c0-0.3,0-0.4-0.1-0.5c-0.2-0.2-1.3-0.5-1.3-0.5c0.8-0.2,1.2-0.5,1.2-0.5
			c-0.1-0.1-0.2-0.3-0.4-0.3c-1-0.1-1.7-0.2-2.8-1.2c-0.8-0.7-0.9-2-0.9-3.1c0-0.6,0.1-1.4,0.1-1.4s1.5,0.1,2.5-0.5
			c0.9-0.5,1.4-1.8,1.4-1.8s0.4,1.1,1.2,1.6c0,0,0.4-0.3,0.7-0.5c0.4-0.2,0.6-0.3,1-0.2c0.4,0.1,0.6,0.6,0.6,1.2
			c0,0.8-0.3,1.3-0.9,1.8c-0.5,0.4-1.2,0.6-2,0.6c-1.1-0.1-1.8-0.6-1.8-0.6c0,0.3,0.2,0.7,0.5,0.9c0.3,0.2,0.5,0.2,0.9,0.3
			c0.4,0.1,1.1,0.3,1.6,0.6c0.5,0.3,0.8,0.7,1,1.1s0.3,0.9,0.2,1.5c0,0.2,1.2,0.7,1.2,0.7S99.7,31.2,99.6,31.4z M80,26.9
			c0-0.5-0.1-0.8-0.2-1.1c-0.1-0.2-0.3-0.4-0.6-0.5V31c0.3,0.2,0.6,0.5,0.9,0.7C80,31.7,80,26.9,80,26.9z M89.2,28l-1-2.2
			c0,1,0,3,0,3.1L89.2,28z M94.9,34.2c-0.3-0.1-0.8-0.3-1.2,0.2c-0.3,0.3-0.1,0.8,0.4,0.8c0.6,0,0.7-0.1,1.4-0.4
			C95.5,34.8,95.1,34.3,94.9,34.2z M64.6,32.5L64.6,32.5C64.7,32.5,64.7,32.5,64.6,32.5L64.6,32.5l0.7-0.5v-5.5
			c-0.3-0.2-0.6-0.4-0.8-0.7v6.1C64.5,32.1,64.6,32.4,64.6,32.5z M54.6,25c-0.2,0.2-0.4,0.6-0.5,1c-0.1,0.9-0.9,9.4-1.2,12.6
			l4.6-0.4c-0.3-3.5-1.1-11.4-1.1-12.2c0-0.4-0.2-0.7-0.5-1c-0.2-0.3-0.7-0.5-0.7-0.5S54.8,24.8,54.6,25z M73.9,29.4v1.7
			c0,0.3,0,0.6,0.1,0.7c0,0.2,0.1,0.3,0.1,0.3s0.1,0,0.2,0S74.8,32,75,32c0.2-0.1,0.5-0.2,0.7-0.2c0.1,0,0.1,0,0.1-0.1l0.1-0.1
			c0.1-0.1,0.1-0.3,0.1-0.4v-1.8c0-0.1,0-0.2-0.1-0.3c-0.3-0.2-0.9-0.3-0.9-0.3c-0.5,0-0.7,0.2-0.8,0.3
			C73.9,29.2,73.9,29.3,73.9,29.4z"/>
		<path class="st2" d="M37.7,21.5c-0.4-3-2.4-4.9-5.9-4.9c-2.6,0-3.7,1.4-3.7,1.4s-1.5-1.9-3.8-1.6c-1.4,0.2-2.5,1.1-2.5,2.5
			s1.2,2,1.2,2s-0.1-0.7,0.4-0.9c0.7-0.2,0.7,0.4,1.6,0.6c0.5,0.1,1-0.1,1.5-0.4c-0.4,0.2-0.9,1.9-1,3.1c-0.1,1.5,0,1.8,0.1,3
			c-0.7,1.1-1.8,1.1-1.8,1.1s1.3,0,1.9,1.2c-0.2,0.8-0.3,1.5-0.4,2.7c-0.1,1.1,0,1.7,0.2,2.6c-0.1-0.2-0.5-0.4-1.1-0.3
			c-1,0.2-1.4,0.6-1.9,0.2c-0.5-0.4,0.1-1.9,1.5-2.1c0,0-4.2-0.1-4.4,3.2c-0.1,1.9,1.2,3.1,3.1,3.3c1,0.1,2.1,0,3.1-0.4
			c1.1-0.4,2.3-0.3,3.1,0.3c1.6,1.2,2.2,2.5,2.2,2.5c1-2,1.9-2.9,3.7-3.8c1.8-0.9,4.2-0.9,4.2-0.9c-0.4-0.2-0.8-0.7-0.8-1.1
			c0-0.6,0-0.9,0.1-1.5c0.2-1,1.4-1.2,1.4-1.2S38.5,32,38.4,31c-0.3-2-1-3.5-2.9-3.9c0,0,2-0.7,2.2-3.3c0.1-0.9,1.3-1.1,1.3-1.1
			S37.8,22.4,37.7,21.5z M29.1,20.6c0-1.3,0.9-2.2,2.2-2.2c2.2,0,2.8,2.4,2.7,3.3c0,0.7-0.9,0.8-0.9,0.8s1,0.1,1,0.9
			c0.1,0.9-0.1,1.8-0.7,2.4c-0.6,0.6-2.1,1-3,1S29,26.4,29,25.6C29.1,24.8,29.1,22,29.1,20.6z M31.2,36.3c-1.3-0.1-2.1-0.9-2.1-2.3
			s0-3.9,0-4.9c0-0.9,0.6-1.5,1.4-1.5c2.5,0,3.9,1.3,3.8,3.7c0,0.7-1,0.8-1,0.8s1,0.2,1,0.9C34.3,35,33,36.4,31.2,36.3z M91.3,35.7
			l0.3,0.4c-9.8,1.2-13.7,2-26,4.2c-16.9,3-22.7,7-22.7,7s-2-4.6-8-6.9L52.4,39c-0.4-2.9-1.5-12.1-1.6-13c-0.1-1-1.1-1.6-1.1-1.6
			s1.3-0.1,2.1-0.2c1-0.1,1.6-1,1.6-2.1c0-0.3-0.1-0.6-0.3-0.6c-0.7,0-0.7,1.2-2,1.2c-1,0-1.4-0.9-1.4-2.6c0-0.4,0-0.8,0-1.3
			c0,0,0.2,1.5,0.6,1.5c0.4,0,0.8-1.5,2.1-1.5c1.2,0,1.5,1.8,1.5,2.9s0,2.3,1,2.6c0,0-0.9,0.5-1,1.6c-0.1,0.9-0.9,10.1-1.2,13
			l5.3-0.5c-0.3-3.3-1.1-11.7-1.2-12.6c-0.1-1.1-1-1.6-1-1.6c1-0.2,1-1.5,1-2.6s0.4-2.9,1.5-2.9c1.2,0,1.6,1.5,2,1.5
			s0.6-1.5,0.6-1.5c0,0.5,0,0.9,0,1.3c0,1.6-0.4,2.6-1.4,2.6c-1.2,0-1.3-1.2-2-1.2c-0.2,0-0.3,0.3-0.3,0.5c0,1.1,0.6,1.9,1.6,2.1
			c0.8,0.1,2.1,0.2,2.1,0.2s-1,0.6-1.1,1.6c-0.1,0.9-1.1,9.2-1.5,12.5L91.3,35.7z M90.3,32.3c0.6,0,1.7-0.7,1.7-0.7
			c-1.3,1.1-2.3,2-3.5,3.3c-2.2-1-3.4-2.3-3.4-5.4c0-0.1,0-0.2,0-0.3c0-0.4-0.4-0.8-0.8-0.8c0.5,0,0.9-0.4,0.9-0.8
			c0.1-2,0.5-2.7,1.8-3.4l2.8-1.5l1.9,3.9l-4,3.1C88.2,31.2,89.1,32.3,90.3,32.3z M87.9,29.5l1.7-1.4l-1.7-3.8
			c0,1.5-0.1,2.9-0.1,4.1C87.8,29,87.8,29.2,87.9,29.5z M99.4,30.2c0-0.9-0.2-1.8-1.1-2.4S96.6,27.3,96,27c-0.7-0.3-0.8-0.8-0.9-2
			c0,0,0.9,1,2.2,1c1.5,0,2.5-0.8,2.5-1.9c0-0.7-0.2-1-0.6-1c-0.3,0-0.5,0.2-0.5,0.2s0.6,0,0.5,0.4C99.1,24,98.6,24,98,23.9
			c-1-0.2-1.4-1.2-1.4-1.2s-0.5,0.9-1.4,1.4S93,24.7,93,24.7s-0.4,3,0.7,3.9s1.8,1.1,2.6,1.1c0.6,0,0.8,0.7,0.8,0.7
			s-0.2,0.3-0.5,0.4c0,0,0.5,0.2,0.6,0.5s0,1.2,0,1.2s-1-1-2.5-1c-1.6,0-2.5,1.4-2.5,2.6c0,1,0.4,1.8,1.4,1.8c0.8,0,1.2-0.6,1.2-0.6
			s-0.4,0.2-1,0.1c-0.6-0.1-0.8-0.6-0.6-1.1c0.2-0.5,0.7-0.7,1.4-0.5c0.6,0.1,1.1,0.9,1.1,0.9s0.5-0.6,1.3-1.3
			c0.7-0.6,1-0.8,1.7-1.2c0.3-0.2,0.4-0.5,0.5-0.9c0-0.3,0.7-0.5,0.7-0.5S99.4,30.6,99.4,30.2z M75.3,28.6c0.5,0,0.8-0.3,0.9-0.8v-3
			c1.7,0.1,3.8-0.4,5-1.9c1.6,1.4,1.8,2.2,1.9,4.8c0,0.4,0.4,0.8,0.9,0.8c-0.5,0-0.8,0.4-0.9,0.8c-0.1,2.9-0.4,3.4-1.8,3.8
			c-1,0.3-1.6,0.7-2.1,1.9c-1-1.2-3.6-2.9-3.6-2.9c0.6-0.2,0.6-0.7,0.7-0.9v-1.9C76.1,28.9,75.8,28.6,75.3,28.6z M78.8,31.2
			c0.6,0.4,1.1,0.9,1.5,1.4V27c0-1-0.2-1.7-1.5-2.1V31.2z M40.5,32.7c0.9,0.5,1.6,1.2,2.1,2.3l2.9-2.6c0,1.4,0.8,2,1.6,2.6l2.3-2.6
			c0,0-0.4,0.1-0.7,0.1s-0.6-0.3-0.6-1.1v-2.1c0-0.4,0.4-0.8,0.9-0.8c-0.5,0-0.8-0.4-0.9-0.8v-1.3c0-0.8,0.1-1.1,0.6-1.2
			c0,0-1.5-1.1-2-2.4c0,0-0.8,1.5-1.8,2.1c0,0,0.5,0.3,0.5,1v6L45,32.4c-0.1,0.1-0.2,0.2-0.4,0.2c-0.3,0-0.4-0.5-0.4-0.9V26
			c0-0.7,0-2-1.4-3.1c0,0-0.4,0.9-0.8,1.3c-0.4,0.5-1.2,0.8-1.2,0.8c0.5,0.1,0.7,0.4,0.7,1v1.8c0,0.4-0.4,0.8-0.9,0.8
			c0.5,0,0.9,0.4,0.9,0.8v2.1C41.5,32.3,40.5,32.7,40.5,32.7z M70,28.6c0.5,0,0.8,0.3,0.9,0.8V32c0,0.2-0.2,1.9,1.7,3l2.4-2.6
			c0,0-0.4,0.1-0.7,0.1c-0.6,0-0.6-0.6-0.6-1.4v-1.7c0-0.4,0.4-0.8,0.9-0.8c-0.5,0-0.9-0.4-0.9-0.8v-5.4c0-0.8,0.1-1.1,0.6-1.2
			c0,0-1.5-1.1-2-2.4c0,0-0.8,1.4-1.8,2.1c0,0,0.5,0.3,0.5,1v5.9C70.9,28.2,70.5,28.5,70,28.6z M61.5,27.8V27c0-1.1,0.4-1.5,1.4-2
			c1.5-0.7,2.4-1.5,3.1-2.2c0.6,0.9,2,2.1,3.4,2.4c0,0-1,0.6-1,1.4v1.1c0,0.4,0.4,0.8,0.9,0.8c-0.5,0-0.9,0.4-0.9,0.8v1.8
			c0,0.7,0.2,1.3,0.6,1.3c0.2,0,0.4,0,0.7-0.1L67.3,35c-1-0.6-1.5-1.5-1.6-2.5c-0.9,0.8-1.7,1.6-2.5,2.5c-1.5-1.1-1.7-1.7-1.7-3
			v-2.6c0-0.4-0.4-0.7-0.9-0.8C61.1,28.5,61.5,28.2,61.5,27.8z M64.2,24.8v7c0,0.6,0.1,1.1,0.4,1.1c0.2,0,0.3-0.1,0.4-0.2l0.7-0.6
			v-5.8C65.2,25.9,64.6,25.3,64.2,24.8z"/>
	</g>
</g>
</svg>
