<?xml version="1.0" encoding="UTF-8"?><svg id="_レイヤー_1" xmlns="http://www.w3.org/2000/svg" viewBox="0 0 78.98 32.05"><defs><style>.cls-1,.cls-2{fill:#fff;}.cls-3,.cls-2{stroke:#fff;stroke-width:.09px;}.cls-4{fill:#231815;}</style></defs><path class="cls-2" d="M25,.05h-.07c-1.53,.19-3.7,.66-4.91,2.61-1.35,2.17-2.53,4.42-3.67,6.61l-.03,.05-.36-3.5v-.26c-.02,.09-.03,.18-.04,.27l.05-.36-.26-2.37-.19-1.83v-.08c0-.23-.07-.46-.2-.65-.21-.3-.58-.45-.94-.36l-.2,.03-.42,.36-1.82,1.59c-.6-.02-1.19,.03-1.78,.15-1.39,.16-2.67,1.04-3.91,2.68-1.24,1.65-2.69,3.66-2.69,6.14,0,.24,.01,.48,.04,.72l.04,.36,.07,.03c.23,1.07,.58,2.11,1.03,3.11l.23,.56,.08,.1h0l.07,.17c.07,.21,.19,.41,.34,.59l.04,.04,.04,.04c.33,.26,.8,.26,1.14,0l.05-.04,.32-.38-.09,.29c-.06,.22-.14,.42-.24,.62-.27,0-.55-.02-.82-.05l-.69-.05h-.13c-.4-.14-.85-.03-1.15,.27l-.05,.06L.23,23.83l.11-.14c-.23,.22-.33,.54-.28,.86,.07,.38,.37,.67,.75,.72,1.15,.18,2.3,.29,3.46,.33,2.8,.15,5.43-1.37,6.7-3.88v-.05c.26-.62,.47-1.25,.67-1.88,.07,.81,.14,1.68,.2,2.69v.1h0c-.02,.33,.09,.65,.31,.88l.05,.05,.06,.04c.29,.19,.67,.2,.98,.03l.12-.06,.09-.1c.67-.7,1.39-1.34,2.17-1.93l.76-.61,.07-.15c.09-.21,.18-.4,.27-.6,.21,.92,.75,1.72,1.53,2.25,1.82,1.25,3.58,.16,4.85-.64l.32-.2,.22,.18h0c1.68,.91,3.37-.05,4.53-.89,.51,.47,1.17,.75,1.86,.79h.05c1.61,0,3.19-.39,4.62-1.13,1.09-.6,2.02-1.44,2.74-2.45v.04c.22,.89,.85,1.62,1.7,1.97,1.63,.72,3.02-.22,4.09-1.04,.36,.33,.8,.57,1.28,.68,.29,.06,.6,.08,.9,.05,.74-.06,1.44-.34,2.01-.81v.14l.1,.17c.09,.12,.2,.23,.33,.3-1.96,.19-3.92,.4-5.89,.61-4.24,.46-8.44,1.05-12,1.56l-1.39,.22-4.03,.65c-8.76,1.41-16.42,2.96-23.44,4.75h-.05c-.34,.11-.59,.4-.66,.75v.12c0,.36,.23,.69,.57,.82l.17,.08h.17c8.61,0,15.63,.95,21.45,2.86l.09,.03-.13-.04,.91,.05,.03-.13c1.92-1.36,4.02-2.47,6.22-3.3,7.04-2.71,14.75-3.75,20.67-4.33h0l.83-.09,.59-.07h.07c3.57-.3,7.27-.61,10.95-.72,1.81-.05,3.62-.2,5.42-.44,2.8-.44,5.74-1.11,8.26-2.97,1.4-1,2.25-2.59,2.3-4.31,0-.44-.06-.88-.18-1.31-.26-1.12-1.01-2.06-2.03-2.57h-.04c-.58-.25-1.21-.37-1.85-.36-.29,0-.58,.01-.87,.06-.03-.21-.04-.42-.04-.63,0-.24,.04-.49,.11-.72,.23-.33,.43-.68,.61-1.03l.02-.03v-.05c.08-.14,.13-.3,.13-.47,0-.2-.07-.38-.2-.53l-.72-.86-.27-.3-.13-.16c-.4-.47-.81-.96-1.28-1.41l-.16-.15-.22-.04c-.38-.06-.75,.11-.95,.44l-.02,.03-.02,.03c-.38,.81-.81,1.66-1.28,2.53-.38,.71-.82,1.39-1.32,2.03,.05-.25,.08-.5,.09-.75h0c.06-1.14-.59-2.19-1.63-2.66-1.26-.45-2.82-.26-4.32,.52-1,.54-1.87,1.31-2.53,2.24h0v-.22c0-.88-.51-1.67-1.29-2.06-.58-.27-1.24-.33-1.87-.19h-.06l-.06,.02c-.56,.24-1.1,.53-1.61,.86l-.04,.02-.33-.39c-.66-.55-1.58-.68-2.37-.34-.99,.41-1.94,.91-2.83,1.5,.41-.48,.65-1.08,.68-1.7v-.16c0-.41-.07-.82-.24-1.2-.46-.99-1.47-1.61-2.56-1.56-1.06,.03-2.01,.67-2.44,1.64-.18,.37-.27,.77-.26,1.18,0,.5,.12,.99,.36,1.42l-.56,.29-.02,.03-.05,.05c-.4,.15-.67,.53-.69,.95v.09l.18,.68c-.39-1.06-1.29-1.85-2.39-2.09h-.06c-2.56-.29-4.75,.69-6.77,1.7l-.08,.05-.23,.12c-.19,.08-.36,.18-.52,.31-.2-.34-.47-.64-.8-.87-.9-.72-2.12-.72-3.09-.61-3.58,.39-5.91,3.56-7.05,6.62,.55-2.91,1.25-5.91,2.11-9.12l-.02,.07,.16-.53c0-.06,.04-.11,.05-.17,.09,.03,.19,.06,.28,.1l.11,.05c.35,.24,.81,.25,1.18,.04l.14-.09,1.24-2.12,1.05-1.81h0l.05-.3-.03,.14,.03-.15v-.24c-.08-.32-.32-.57-.64-.65l.07,.02-.13-.05c-1.1-.46-2.27-.72-3.46-.76ZM9.53,7.21v0Zm35.63,1.44h0s.04,.06,.06,.08l-.06-.08Zm-1.23,2.03v.05s0-.03,0-.05Zm4.93,1.18l.02-.09s.05-.19,.1-.36l.22,.65,.05,.08s.05,.04,.08,.07-.05,.16-.07,.23l-.65,.36,.26-.94Zm-15.12,1.73l.09-.33c.05,.16,.1,.33,.16,.49,.03,.07,.07,.14,.12,.21v.05c-.23,.68-.56,1.33-.98,1.92,.04-.13,.06-.26,.09-.4l.22-.88,.3-1.06Zm36.3,1.11h0Zm4.29,.86s0,.04,0,.06c0,.01,0,.02,0,.04-.13,.34-.38,.61-.7,.78,.19-.26,.35-.54,.49-.83,.07-.02,.14-.04,.21-.05h0Zm-23.27,3.2l.84-.32,.13-.04c.42-.08,.78-.37,.93-.77,0,0,.08-.26,.18-.61,0,.05,0,.09,.03,.14,.3,.9,1.07,1.57,2.01,1.73h.05c1.34,.13,2.34-.54,3.22-1.13l.3-.19c.43,.55,1.04,.94,1.72,1.11-2.6,.1-5.14,.26-7.52,.44-1.28,.08-2.53,.2-3.79,.32l1.91-.67Zm15.07-1.13c.23,.19,.48,.36,.75,.49,.11,.05,.23,.07,.36,.1-1.1,.13-2.22,.22-3.34,.3,.78-.21,1.53-.51,2.23-.91h0Z"/><path class="cls-1" d="M48.66,9.36c.03,.84-.36,1.53-.48,2.3-.25,.83-.44,1.67-.67,2.49,.02,.02,.03,.03,.03,.05,.78-.4,1.53-.87,2.3-1.29,.12-.33,.21-.66,.28-1-.12,0-.22-.07-.28-.17-.21-.61-.42-1.23-.64-1.84-.08-.17,.08-.3,.21-.39,.98-.67,2.03-1.24,3.14-1.7,.56-.23,1.2-.13,1.66,.26,.12,.09,.16,.27,.28,.36,.05,.13,.08,.27,.11,.4,.01,.03,.05,.05,.08,.04,0,0,0,0,0,0,.69-.45,1.42-.86,2.17-1.2,.47-.11,.96-.07,1.41,.13,.6,.29,.97,.92,.91,1.58-.13,.69-.3,1.37-.52,2.04-.22,.83-.47,1.62-.66,2.46h.03c.32-.13,.62-.28,.92-.45,.42-2.22,1.62-4.41,3.79-5.57,1.08-.56,2.5-.94,3.72-.5,.76,.36,1.23,1.14,1.18,1.98-.08,2.38-2.53,3.61-4.17,4.86-.25,.21-.51,.36-.76,.55-.03,.08,.08,.09,.12,.11,.94-.04,1.72-.49,2.48-1,2.04-1.38,3.72-3.24,4.87-5.42,.46-.84,.89-1.7,1.3-2.55,.05-.08,.14-.12,.23-.11,.49,.48,.94,.99,1.38,1.53,.36,.39,.69,.74,1,1.15,.09,.11-.03,.21-.06,.31-.18,.37-.39,.74-.62,1.08-.18,.63-.21,1.29-.08,1.93,.07,.14,.08,.31,.16,.45,.45-.11,.92-.17,1.39-.17,.54,0,1.08,.1,1.58,.31,.85,.42,1.46,1.21,1.67,2.13,.55,1.91-.39,3.74-1.86,4.86-2.33,1.71-5.09,2.38-7.95,2.83-1.77,.24-3.55,.39-5.34,.44-3.74,.1-7.39,.41-11.07,.72-.48,.05-.95,.13-1.42,.16-7.2,.72-14.33,1.89-20.86,4.4-2.27,.86-4.42,2-6.4,3.41-.09,.03-.18,.03-.27,0-6.74-2.21-14.24-2.89-21.67-2.89-.09-.05-.2-.08-.2-.2,.02-.1,.09-.17,.19-.2,7.65-1.95,15.44-3.48,23.39-4.74,1.81-.31,3.61-.58,5.42-.86,3.97-.58,7.95-1.12,11.97-1.56,3.67-.4,7.32-.79,10.99-1.04,3.33-.25,6.57-.47,9.95-.53,3.68-.25,7.48-.48,10.67-2.03,.58-.33,1.27-.78,1.41-1.48,.08-.34-.07-.7-.36-.89-.36-.07-.72-.02-1.05,.14-.24,.62-.62,1.17-1.12,1.6-1.41,1.14-3.59,1.59-5.32,.85-.36-.19-.68-.44-.97-.72-1.47,.93-3.18,1.39-4.92,1.34-.98,0-1.86-.56-2.27-1.44-.03,0-.05-.05-.06-.06-1.18,.65-2.2,1.73-3.67,1.59-.67-.12-1.23-.6-1.44-1.25-.44-1.44,.28-2.79,.56-4.13,.05-.19,.11-.39,.16-.59v-.03c-.31,.17-.62,.36-.92,.55-.44,1.56-.86,3.13-1.33,4.66-.09,.28-.42,.28-.66,.36-1.12,.42-2.21,.86-3.36,1.23-.08,0-.15-.06-.19-.13,.05-.38,.14-.75,.28-1.11,.05-.16,.09-.29,.14-.45h-.07c-1.03,.57-1.86,1.67-3.12,1.73-.23,.02-.46,0-.69-.03-.54-.12-1.01-.45-1.31-.92-.02-.02-.06-.02-.08,0-1.08,.84-2.37,1.96-3.84,1.32-.65-.26-1.13-.8-1.31-1.48-.12-.42-.12-.87,0-1.3,.34-1.59,1.01-3.04,1.42-4.59-.09-.06-.22,0-.31,.06-.2,.61-.36,1.23-.55,1.84-.75,2.29-2.03,4.7-4.31,5.92-1.33,.69-2.8,1.04-4.29,1.04-.74-.03-1.41-.42-1.81-1.04-.17,.06-.28,.23-.44,.33-1.08,.81-2.53,1.64-3.87,.9-.19-.13-.33-.3-.48-.42-1.44,.8-3.11,2.32-4.85,1.12-1.08-.79-1.56-2.17-1.22-3.46,.09-.68,.25-1.34,.31-2.01-.69,1.36-1.33,2.75-1.94,4.14-1.02,.77-1.97,1.61-2.86,2.53-.08,.05-.19,.05-.27,0-.14-.14-.09-.36-.11-.55-.08-1.29-.17-2.53-.31-3.83,.03-.08,.03-.17,0-.25-.04-.65-.06-1.31-.16-1.95,.07-.05,0-.11,0-.16-.03-.14,0-.31-.03-.45-.14,.16-.14,.43-.22,.65-.38,1.68-.88,3.33-1.51,4.93-1.13,2.25-3.48,3.63-6,3.51-1.15-.04-2.29-.15-3.42-.33-.08,0-.15-.07-.17-.16-.01-.09,.01-.18,.08-.24,1.22-2.06,2.42-4.15,3.61-6.23,.22-.23,.5,0,.76-.03,.64,.03,1.22,.12,1.89,.09,.36-.39,.47-.92,.64-1.42,.26-.98,.53-1.95,.79-2.91,0,0-.03-.03-.05-.03-.78,.87-1.47,1.81-2.25,2.65-.08,.07-.19,.07-.27,0-.19-.2-.2-.51-.39-.72-.53-1.14-.93-2.33-1.2-3.55-.08-.06,0-.2-.08-.25-.28-2.49,1.14-4.49,2.53-6.36,.84-1.12,2-2.26,3.45-2.41,.64-.12,1.29-.17,1.94-.14,.72-.62,1.51-1.32,2.26-1.99,.09,0,.21,0,.25,.08s.05,.28,.08,.42c.17,1.42,.25,2.79,.45,4.19-.04,.11,.05,.22,0,.34,.16,1.34,.25,2.57,.4,3.93,.08,.58,.11,1.26,.19,1.82,0,0,.03-.02,.05-.02,1.53-2.89,2.97-5.81,4.71-8.6,.98-1.61,2.7-2.1,4.4-2.3,1.22,0,2.26,.36,3.32,.75,.07,.02,.11,.07,.13,.14v.16c-.72,1.23-1.41,2.46-2.14,3.68-.22,.14-.42-.07-.62-.14-.31-.15-.65-.24-1-.25-.19,.4-.33,.81-.44,1.23-1.02,3.71-1.85,7.46-2.5,11.25,0,.05-.03,.26,.09,.16,.41-.13,.8-.31,1.2-.48,.83-3.27,3.15-7.13,6.88-7.59,.87-.09,1.91-.11,2.59,.47,.66,.46,1.02,1.24,.92,2.04-.22,.79-.47,1.57-.69,2.35-.23,.97-.52,1.92-.69,2.91,.02,.01,.03,.03,.05,.05,1.48-.36,2.17-1.96,2.65-3.21,.06-.2,.12-.42,.2-.62-.08-.05-.26,.03-.31-.11-.17-.5-.31-1.02-.42-1.54-.08-.27-.15-.55-.2-.83,.19-.31,.56-.36,.86-.56,1.94-.98,4.01-1.9,6.37-1.64,.98,.21,1.75,.96,1.98,1.93,.08,.34,.1,.68,.06,1.02-.24,1.13-.58,2.23-1.03,3.29l.03,.03c.47-.33,1-.59,1.48-.92,.31-1.08,.61-2.17,.87-3.25,.07-.16-.05-.26-.08-.4-.09-.36-.2-.7-.3-1.08,0-.27,.31-.3,.48-.44,.39-.23,.8-.39,1.21-.59,0-.11-.16-.17-.22-.28-.53-.65-.65-1.54-.3-2.3,.32-.71,1.02-1.18,1.81-1.21,.82-.05,1.6,.41,1.94,1.17,.13,.32,.19,.67,.17,1.01-.04,.71-.41,1.35-1,1.75,.14,.21,.23,.44,.27,.69ZM10.15,7.38c-.48,.17-.91,.47-1.25,.86-.21,.33-.58,.61-.56,1.03,.16,.48,.4,.93,.72,1.33,.03,.11,.16,.2,.2,.26,.3-1.08,.56-2.17,.86-3.27,.03-.05,.01-.14,.03-.2Zm19.14,5.73c-1.22,.42-1.87,1.73-2.17,2.87-.1,.34-.15,.69-.14,1.04,.53-.35,1.03-.75,1.5-1.18,.14-.48,.27-.95,.44-1.42,.09-.39,.25-.78,.36-1.18,0-.04,.01-.08,0-.13h0Zm41.15,.24c-.31,.27-.55,.56-.87,.84-.01,.01-.02,.03-.02,.05,.12,.19,.33,.3,.55,.28,.14,0,.3,0,.36-.14,.07-.34,.07-.69-.02-1.03Z"/><path class="cls-3" d="M48.66,9.35c.03,.84-.36,1.52-.48,2.3-.25,.82-.44,1.67-.67,2.49,.02,.01,.03,.03,.03,.05,.78-.4,1.53-.87,2.3-1.29,.12-.32,.21-.66,.28-1-.12,0-.22-.07-.28-.17-.21-.61-.42-1.23-.64-1.84-.08-.17,.08-.29,.21-.39,.98-.67,2.03-1.24,3.14-1.7,.56-.23,1.2-.12,1.66,.27,.12,.09,.16,.26,.28,.36,.05,.13,.08,.27,.11,.4,0,.03,.04,.05,.08,.04,0,0,.01,0,.02,0,.69-.45,1.42-.85,2.17-1.2,.47-.12,.96-.07,1.41,.12,.6,.29,.96,.92,.91,1.58-.13,.69-.3,1.37-.52,2.04-.22,.82-.47,1.62-.66,2.46h.03c.32-.13,.62-.28,.92-.45,.42-2.22,1.62-4.41,3.79-5.57,1.08-.56,2.5-.93,3.72-.49,.76,.36,1.23,1.14,1.18,1.98-.08,2.38-2.53,3.61-4.17,4.86-.25,.2-.51,.36-.76,.55-.03,.08,.08,.09,.12,.11,.94-.05,1.72-.5,2.48-1,2.04-1.38,3.72-3.24,4.87-5.42,.46-.84,.89-1.7,1.3-2.55,.05-.08,.14-.13,.23-.11,.5,.48,.94,1.01,1.38,1.53,.36,.39,.69,.75,1,1.15,.09,.11-.03,.2-.06,.31-.18,.38-.39,.74-.62,1.08-.18,.63-.21,1.29-.08,1.93,.07,.14,.08,.31,.16,.45,.45-.12,.92-.17,1.39-.17,.54-.01,1.08,.09,1.58,.31,.85,.42,1.46,1.21,1.67,2.13,.55,1.91-.39,3.74-1.86,4.86-2.33,1.72-5.09,2.38-7.95,2.84-1.77,.24-3.55,.38-5.34,.44-3.74,.11-7.39,.41-11.07,.72-.48,.05-.95,.12-1.42,.16-7.2,.72-14.33,1.89-20.86,4.39-2.27,.86-4.42,2.01-6.4,3.41-.09,.02-.18,.02-.27,0-6.74-2.21-14.24-2.89-21.67-2.89-.09-.05-.2-.08-.2-.2,.02-.1,.09-.17,.19-.2,7.65-1.95,15.44-3.47,23.39-4.75,1.81-.31,3.61-.57,5.42-.86,3.97-.57,7.95-1.12,11.97-1.56,3.67-.4,7.32-.79,10.99-1.04,3.33-.25,6.57-.47,9.95-.53,3.68-.25,7.48-.48,10.67-2.02,.58-.33,1.27-.78,1.41-1.48,.08-.34-.07-.7-.36-.89-.36-.07-.72-.02-1.05,.14-.24,.62-.62,1.17-1.12,1.6-1.41,1.14-3.59,1.59-5.32,.84-.36-.18-.68-.42-.97-.7-1.47,.93-3.18,1.39-4.92,1.34-.97,0-1.86-.56-2.27-1.44-.02-.02-.04-.04-.06-.07-1.18,.66-2.2,1.73-3.67,1.59-.67-.12-1.23-.6-1.44-1.25-.44-1.44,.28-2.79,.56-4.13,.05-.19,.11-.39,.16-.59v-.03c-.31,.17-.62,.36-.92,.55-.44,1.56-.86,3.13-1.33,4.66-.09,.28-.42,.28-.66,.36-1.12,.42-2.21,.86-3.36,1.23-.08-.01-.15-.06-.19-.13,.05-.38,.14-.75,.28-1.11,.05-.16,.09-.3,.14-.45h-.07c-1.03,.58-1.86,1.67-3.12,1.73-.23,.02-.46,.01-.69-.03-.54-.12-1.01-.45-1.31-.92-.02-.01-.05-.01-.08,0-1.08,.84-2.37,1.96-3.84,1.33-.65-.26-1.13-.81-1.31-1.48-.12-.42-.12-.87,0-1.29,.34-1.59,1.01-3.04,1.42-4.59-.09-.06-.22,0-.31,.06-.2,.61-.36,1.23-.55,1.84-.79,2.28-2.07,4.68-4.35,5.89-1.33,.69-2.8,1.05-4.29,1.04-.74-.03-1.41-.42-1.81-1.04-.17,.06-.28,.23-.44,.33-1.08,.81-2.53,1.64-3.87,.91-.19-.13-.33-.3-.48-.42-1.44,.79-3.11,2.32-4.85,1.12-1.08-.79-1.56-2.17-1.22-3.46,.09-.69,.25-1.34,.31-2.01-.66,1.37-1.3,2.76-1.91,4.14-1.02,.76-1.97,1.6-2.86,2.51-.09,.05-.17,.08-.27,0-.14-.14-.09-.36-.11-.55-.08-1.29-.17-2.53-.31-3.83,.03-.08,.03-.17,0-.25-.04-.65-.06-1.31-.16-1.94,.07-.05,0-.11,0-.16-.03-.14,0-.31-.03-.45-.14,.16-.14,.44-.22,.65-.38,1.69-.88,3.34-1.51,4.96-1.13,2.26-3.48,3.63-6,3.51-1.15-.04-2.29-.15-3.42-.33-.08,0-.15-.07-.17-.16-.02-.09,.01-.18,.08-.25,1.22-2.06,2.42-4.14,3.61-6.23,.22-.23,.5,0,.76-.03,.63,.06,1.26,.1,1.89,.09,.36-.39,.47-.92,.64-1.42,.26-.98,.53-1.95,.79-2.91,0,0-.03-.03-.05-.03-.78,.87-1.47,1.81-2.25,2.65-.08,.06-.19,.06-.27,0-.19-.2-.2-.52-.39-.72-.53-1.14-.93-2.33-1.2-3.55-.08-.06,0-.2-.08-.25-.28-2.49,1.14-4.49,2.53-6.36,.84-1.12,2-2.26,3.45-2.41,.64-.13,1.29-.17,1.94-.14,.72-.62,1.51-1.33,2.26-1.99,.09,0,.21,0,.25,.08s.05,.28,.08,.42c.17,1.42,.25,2.79,.45,4.19-.04,.11,.05,.22,0,.34,.16,1.34,.25,2.57,.4,3.93,.08,.57,.11,1.26,.19,1.81,0,.02,.03,0,.05,0,1.53-2.89,2.97-5.81,4.71-8.6,.98-1.6,2.7-2.09,4.4-2.3,1.22,0,2.26,.36,3.32,.75,.06,.02,.11,.07,.13,.14v.16c-.72,1.23-1.41,2.46-2.14,3.68-.22,.14-.42-.06-.62-.14-.31-.15-.65-.24-1-.25-.19,.39-.33,.81-.44,1.23-1.02,3.71-1.85,7.46-2.5,11.25,0,.05-.03,.26,.09,.16,.41-.14,.81-.3,1.2-.48,.83-3.27,3.15-7.14,6.88-7.59,.87-.09,1.91-.11,2.59,.47,.66,.46,1.02,1.24,.92,2.04-.22,.79-.47,1.57-.69,2.35-.23,.96-.52,1.92-.69,2.91l.05,.04c1.48-.36,2.17-1.96,2.65-3.21,.06-.2,.12-.42,.2-.62-.08-.05-.26,.03-.31-.11-.17-.51-.31-1.02-.42-1.54-.08-.27-.15-.55-.2-.82,.19-.31,.56-.36,.86-.56,1.94-.98,4.01-1.9,6.37-1.64,.98,.21,1.75,.96,1.98,1.93,.08,.34,.1,.69,.06,1.03-.24,1.13-.58,2.23-1.03,3.29l.03,.03c.47-.33,1-.59,1.48-.92,.31-1.08,.61-2.17,.87-3.25,.07-.16-.05-.27-.08-.4-.09-.36-.2-.7-.3-1.08,0-.26,.31-.29,.48-.43,.39-.23,.8-.39,1.21-.59,0-.11-.16-.17-.22-.28-.53-.65-.65-1.54-.3-2.3,.32-.72,1.02-1.19,1.81-1.22,.83-.05,1.6,.42,1.94,1.17,.13,.32,.19,.67,.17,1.01-.04,.71-.41,1.35-1,1.74,.14,.21,.23,.44,.27,.69ZM10.15,7.37c-.48,.17-.91,.47-1.25,.86-.21,.33-.58,.61-.56,1.03,.16,.48,.4,.93,.72,1.32,.03,.11,.16,.2,.2,.27,.3-1.08,.56-2.17,.86-3.27,.03-.05,.01-.14,.03-.2Zm19.14,5.73c-1.22,.42-1.87,1.73-2.17,2.87-.1,.34-.15,.69-.14,1.04,.53-.35,1.03-.74,1.5-1.18,.14-.48,.27-.95,.44-1.42,.09-.39,.25-.78,.36-1.18,0-.04,.01-.08,0-.12h0Zm41.15,.25c-.31,.26-.55,.56-.87,.84-.01,.01-.02,.03-.02,.05,.12,.19,.33,.3,.55,.28,.14,0,.3,0,.36-.14,.07-.34,.07-.69-.02-1.03Z"/><path class="cls-2" d="M50.56,11.61c-.02-.06-.02-.13-.08-.17-.12,0-.24,.04-.34,.09-.23-.51-.36-1.08-.59-1.59-.03-.04-.03-.1,0-.14,.99-.67,2.04-1.25,3.14-1.72,.49-.17,1.03-.03,1.37,.36,.16,.27,.23,.58,.2,.89,.05,.06,.14,.08,.2,.03,.79-.42,1.58-.94,2.39-1.34,.52-.2,1.1-.1,1.53,.26,.34,.29,.51,.74,.44,1.18-.25,.97-.53,1.9-.77,2.87-.03,0-.03,.05-.05,.08-.17,.62-.33,1.25-.48,1.87,.16,.25,.41-.05,.61-.09,.36-.16,.72-.36,1.08-.53,.09-.05,.03-.16,.08-.23,.36-1.87,1.2-3.71,2.89-4.86,.99-.75,2.21-1.13,3.45-1.08,.62,.03,1.17,.38,1.47,.92,.5,1.14-.09,2.35-.87,3.19-1.22,1.15-2.59,1.99-3.9,2.94-.07,.07-.09,.18-.05,.27,.08,.15,.21,.26,.36,.33,1.03,.06,1.86-.42,2.67-.92,1.08-.75,2.08-1.6,2.98-2.55,1.44-1.62,2.44-3.54,3.34-5.47,.13,0,.21,.2,.31,.28,.56,.66,1.2,1.37,1.76,2.04-.17,.5-.61,.89-.72,1.4-.19,.79-.14,1.61,.13,2.37,.03,.11,.03,.25,.16,.31,1.22-.47,2.79-.36,3.75,.58,.86,.89,1.03,2.3,.72,3.54-.83,2.38-3.4,3.52-5.56,4.22-3.23,1-6.74,1.29-10.27,1.35-3.04,.16-6.18,.36-9.16,.65-8.05,.76-15.99,1.84-23.23,4.61-2.28,.87-4.45,2.02-6.45,3.43-6.48-2.04-13.57-2.89-20.75-2.89,0-.03-.03,0-.03-.03,7.7-1.9,15.61-3.33,23.57-4.66,3.42-.55,6.86-1.06,10.35-1.5,1.37-.19,2.76-.36,4.12-.53,2.81-.36,5.72-.56,8.52-.9,1.81-.14,3.68-.3,5.54-.42,1.73-.14,3.56-.23,5.31-.31,4.31-.18,8.67-.25,12.6-1.54,1.12-.4,2.42-.92,2.99-2.07,.16-.42,.11-.89-.12-1.28-.08-.05-.12-.16-.23-.17-.48-.31-1.08-.07-1.54,.12-.14,.13-.14,.33-.23,.48-.86,1.7-2.83,2.34-4.7,2.21-.81-.07-1.55-.46-2.06-1.08-.05-.04-.11-.06-.17-.05-1.24,.72-2.55,1.34-4.06,1.4-.55,.06-1.11,.02-1.64-.14-.61-.22-1.08-.73-1.26-1.35-.05-.05-.08-.13-.16-.14-1.03,.56-1.92,1.39-3.06,1.72-.61,.15-1.26-.07-1.64-.58-.56-.84-.3-1.95-.06-2.85s.48-1.78,.72-2.65c0-.06,0-.16-.09-.17s-.08,0-.13,0c-.48,.31-.98,.59-1.47,.9-.48,1.57-.9,3.18-1.37,4.75-.12,.13-.31,.11-.45,.2-1.01,.36-2.02,.72-3.01,1.11-.07-.09,.05-.17,.05-.26,.14-.55,.36-1.06,.47-1.62-.04-.06-.12-.12-.2-.06-.91,.62-1.76,1.29-2.68,1.86-.68,.34-1.49,.29-2.12-.13-.22-.2-.4-.45-.53-.72-.04-.05-.11-.06-.17-.03-1,.72-1.91,1.71-3.22,1.64-.68-.09-1.27-.51-1.59-1.12-.41-1,.11-2.03,.34-2.96,.03-.09,.06-.19,.08-.28,.12-.25,.21-.51,.27-.78,.25-.67,.48-1.34,.67-2.02,0-.11-.06-.19-.06-.28-.07-.08-.17-.13-.28-.14-.23,.06-.53,.05-.67,.28-.75,3.05-2.03,6.5-5.2,7.88-1.01,.43-2.07,.69-3.16,.77-.84,.03-1.67-.28-2.01-1.04-.02-.06-.06-.12-.11-.16h-.11c-.95,.78-1.92,1.6-3.18,1.68-.58,.02-1.12-.27-1.42-.76-.26-.14-.45,.2-.69,.28-.9,.52-1.73,1.2-2.81,1.31-.88,.03-1.7-.43-2.14-1.18-.48-.79-.45-1.81-.23-2.73,.2-1.14,.41-2.28,.61-3.41,0-.04-.03-.07-.06-.09-.11-.03-.2,.08-.23,.16-.89,1.89-1.78,3.75-2.62,5.64-.93,.67-1.79,1.42-2.59,2.24-.03-.21-.04-.42-.04-.63-.22-2.55-.39-5.02-.6-7.56-.03-.04-.06-.12-.12-.14-.08,0-.14,.06-.16,.14-.53,2.17-1.01,4.33-1.75,6.44-.65,1.57-1.91,2.81-3.49,3.43-1.15,.56-2.56,.36-3.9,.3-.55-.08-1.14-.11-1.69-.22,1.17-2.03,2.33-4.09,3.54-6.09,.81,.11,1.62,.16,2.43,.14,.36-.07,.47-.47,.62-.75,.44-1.26,.72-2.6,1.11-3.89,.07-.36,.17-.66,.23-.98,0-.04-.03-.08-.06-.11-.17-.03-.28,.17-.36,.28-.83,1.03-1.72,2.01-2.53,3.01-.12-.23-.26-.48-.36-.75-.51-1.14-.91-2.33-1.17-3.55-.16-1.67,.61-3.18,1.44-4.54,1.03-1.44,2.12-3.25,3.97-3.69,.75-.16,1.52-.22,2.29-.17,.72-.58,1.41-1.26,2.11-1.86,.11,.05,.02,.16,.07,.23,.11,.98,.17,1.89,.3,2.87,.05,.2,0,.39,.06,.57,.17,1.89,.36,3.82,.58,5.72,.05,.42,.08,.9,.14,1.31,.05,.18-.05,.42,.13,.53,.16,0,.2-.17,.26-.26,1.58-3.07,3.11-6.19,4.97-9.17,.72-1.17,2.03-1.67,3.28-1.95s2.39,.08,3.45,.42c.11,.08,.27,.08,.36,.17-.67,1.12-1.3,2.26-1.97,3.38-.5-.26-1.05-.4-1.61-.4-.07,.02-.13,.07-.16,.14-1.05,3.23-1.75,6.59-2.45,9.95-.17,1.04-.38,2.1-.48,3.21,.08,.12,.26,.05,.39,.03,.53-.14,1.04-.34,1.53-.59,.12-.2,.2-.42,.23-.65,.58-1.89,1.47-3.74,2.95-5.16,.52-.47,1.11-.86,1.75-1.15,.86-.39,1.79-.59,2.73-.59,.76,.02,1.47,.4,1.91,1.03,.09,.16,.16,.33,.2,.51,.09,.42,.04,.87-.14,1.26-.5,1.62-.92,3.27-1.25,4.94,0,.11,.09,.13,.17,.16,.43-.03,.85-.17,1.22-.4,1.42-1.01,1.89-2.65,2.36-4.16-.03-.05,0-.14-.09-.16-.19-.08-.46,.36-.46-.03-.19-.55-.28-1.12-.44-1.67-.06-.08-.08-.22,.07-.22,.79-.44,1.6-.83,2.43-1.17,.9-.39,1.86-.64,2.84-.75,.94-.11,1.98-.03,2.59,.7,.43,.47,.66,1.09,.64,1.73-.05,.03,0,.08,0,.12-.31,1.34-.74,2.65-1.28,3.91,.02,.04,.03,.11,.09,.12,.04,0,.08,0,.13,0,.72-.4,1.41-.84,2.09-1.29,.2-.14,.14-.39,.23-.57,.08-.33,.19-.66,.25-.98,.05-.12,.09-.24,.11-.36,.16-.58,.31-1.15,.44-1.73-.05-.14-.08-.3-.14-.44s-.09-.33-.14-.48-.11-.25-.09-.39c.58-.36,1.2-.67,1.84-.92,.03-.05,.09-.09,.05-.16-.24-.17-.46-.38-.64-.61-.28-.41-.38-.91-.3-1.4,.05-.06,.02-.17,.07-.23,.18-.53,.59-.95,1.11-1.15,.45-.16,.94-.11,1.34,.14,.23,.11,.43,.28,.58,.5,.44,.56,.36,1.47,0,2.06-.22,.31-.51,.56-.86,.72-.16,.17,.16,.26,.25,.36,.08,.15,.14,.32,.16,.5,.02,.32-.03,.64-.14,.94-.39,1.44-.75,2.85-1.12,4.28,.02,.05,.06,.09,.11,.11,.39-.17,.76-.36,1.13-.57,.59-.33,1.2-.67,1.81-1,0,0,.09,0,.29-.72l.2-.85ZM10.41,6.95c-.66,.14-1.26,.49-1.72,.98-.28,.39-.67,.75-.7,1.23,.1,.51,.32,.98,.64,1.39,.11,.19,.23,.33,.36,.51,.09,.14,.2,.27,.33,.39,.07,.03,.11-.03,.14-.06,.31-1.17,.62-2.34,.94-3.49,.08-.3,.14-.61,.19-.92-.03-.05-.11-.03-.17-.03Zm19.11,5.75c-.55,.12-1.06,.4-1.44,.81-.82,.89-1.33,2.02-1.44,3.23,0,.23-.09,.56,.13,.72,.4-.03,.69-.36,1.03-.57,.36-.28,.69-.57,1.01-.89,.3-1.06,.66-2.1,.95-3.18,.01-.15-.14-.12-.23-.12Zm41.01,.11c-.46,.4-.9,.82-1.31,1.26-.05,.06,0,.11,0,.19,.08,.27,.3,.48,.57,.56,.31,.08,.63,.02,.89-.17,.3-.51,.17-1.21,0-1.76-.04-.02-.09-.08-.15-.08Z"/><path class="cls-4" d="M27.34,2c-.06,.17-.14,.32-.23,.47-.39,.69-.77,1.39-1.2,2.04-.57-.21-1.18-.3-1.78-.25-.51,1.3-.92,2.64-1.23,4.01-.75,2.94-1.37,5.89-1.9,8.91-.01,.22-.05,.44-.09,.65,.05,.25-.08,.62,.22,.76,.49,.02,.98-.08,1.42-.28,.4-.16,.78-.36,1.18-.51,.08-.03,.03-.12,.08-.19,.72-3.02,2.68-6.57,6.1-7.12,.61-.06,1.33-.2,1.86,.11,.5,.21,.84,.69,.87,1.23,0,.21-.05,.42-.13,.62-.52,1.68-.95,3.39-1.28,5.13,0,.14-.05,.3,.06,.4,.03,.1,.1,.19,.19,.25,.9,.11,1.8-.22,2.42-.89,1.34-1.44,1.81-3.25,2.22-5.08l-.03-.03c-.27,.12-.55,.23-.83,.31-.09-.03-.03-.13-.06-.19-.09-.28-.16-.58-.23-.86,.41-.25,.83-.48,1.26-.69,.42-.19,.86-.37,1.3-.51,.22-.13,.47-.14,.69-.25,.53-.15,1.07-.26,1.62-.34,.87-.09,1.83,0,2.34,.72,.48,.55,.39,1.37,.19,2.03-.23,.72-.44,1.44-.72,2.17-.17,.5-.36,.98-.53,1.48-.03,.17-.05,.4,.16,.47,.33,.04,.58-.17,.86-.28,.83-.45,1.59-.98,2.41-1.5,.36-1.29,.72-2.57,1.01-3.88-.09-.36-.2-.7-.28-1.08,.48-.27,.98-.51,1.5-.72,.28-.09,.59-.08,.86,.03,.55,.44,.02,1.06-.03,1.59-.11,.33-.16,.67-.28,1-.16,.79-.42,1.54-.59,2.32-.09,.47-.33,.89-.28,1.35,.02,.09,.1,.15,.19,.16,.44-.08,.79-.39,1.17-.55,.91-.55,1.83-1.01,2.73-1.53,.14-.34,.24-.7,.33-1.06,.18-.58,.3-1.17,.36-1.77-.28-.03-.5,.22-.78,.25-.07-.11-.12-.23-.16-.36-.03-.18-.16-.36-.14-.55,.86-.56,1.77-1.05,2.72-1.44,.31-.03,.72-.06,.89,.23,.07,.31,.04,.64-.06,.94-.09,.25-.16,.51-.21,.78,1.14-.67,2.28-1.32,3.45-1.96,.34-.18,.74-.15,1.06,.06,.13,.11,.24,.24,.33,.39,.11,.65-.22,1.2-.34,1.81-.09,.36-.2,.72-.3,1.08-.26,.92-.51,1.85-.75,2.79-.03,.16,.06,.25,.11,.36,.39,.14,.69-.2,1.03-.28,.53-.25,1.06-.51,1.59-.78,.06-.07,0-.16,.05-.22,.36-1.89,1.14-3.74,2.86-4.88,.92-.67,2.05-.98,3.19-.87,.38,.04,.71,.26,.91,.59,.15,.34,.2,.72,.12,1.08-.13,.5-.37,.97-.7,1.37-.83,.94-1.95,1.62-2.92,2.35-.45,.31-.92,.64-1.36,.97-.03,.21-.02,.42,.05,.62,.17,.37,.53,.62,.94,.64,.6-.02,1.18-.17,1.72-.44,.45-.19,.87-.43,1.26-.72,1.72-1.2,3.4-2.77,4.45-4.58,.59-.92,1.04-1.87,1.57-2.84,0,0,.03,.03,.05,0,.41,.52,.91,1.01,1.31,1.51-.15,.31-.33,.61-.53,.9-.29,1.05-.25,2.16,.11,3.18,.09,.2,.09,.43,.19,.64,1.06-.56,2.62-.75,3.64,.07,.62,.53,.81,1.28,.89,2.07,.04,1.31-.64,2.37-1.62,3.16-.78,.63-1.65,1.11-2.59,1.44-4.02,1.63-8.69,1.69-13.27,1.9-2.41,.13-4.84,.33-7.22,.52-4.09,.39-8.18,.87-12.16,1.59-2.59,.46-5.16,1.06-7.68,1.81-1.49,.43-2.95,.95-4.38,1.56-1.04,.44-2.06,.93-3.05,1.48-.83,.45-1.64,.98-2.43,1.51-1.73-.43-3.43-.96-5.22-1.31-3.75-.82-7.58-1.26-11.43-1.29-.18,.02-.39,0-.58,0,0-.03,.03-.03,.05-.05,4.4-1.04,8.84-1.95,13.35-2.76,7.2-1.34,14.55-2.38,21.92-3.27,1.44-.19,3.03-.3,4.49-.45,5.24-.56,10.65-.94,16.05-1.14,3.09-.12,6.29-.31,9.21-1.01,1.65-.45,3.39-.95,4.59-2.3,.16-.26,.29-.54,.36-.84,.05-.62-.03-1.29-.53-1.65-.72-.47-1.67-.17-2.34,.14-.1,.07-.07,.19-.08,.27-.21,.61-.62,1.13-1.16,1.49-1.14,.75-2.54,.98-3.86,.62-.58-.13-1.05-.53-1.26-1.08-.05-.03-.03-.17-.12-.12-1.49,1.13-3.32,1.71-5.19,1.66-.7,0-1.32-.43-1.56-1.08-.09-.3-.14-.62-.16-.93-.02-.03-.03-.03-.05-.05-.87,.64-1.78,1.21-2.7,1.77-.46,.3-1.01,.43-1.55,.36-.47-.21-.75-.69-.72-1.2-.08-.64,.17-1.17,.3-1.76,.26-1.08,.58-2.17,.87-3.27,0-.14,.05-.28,.03-.39-.25-.14-.47,.13-.69,.21-.69,.48-1.4,.82-2.09,1.28-.33,1.06-.64,2.13-.92,3.21-.16,.49-.3,1.01-.45,1.51-.36,.16-.75,.3-1.12,.44s-.78,.3-1.2,.4c0-.03-.03,0-.03-.03,.21-.65,.39-1.32,.62-1.98,0-.2,.14-.36,.11-.56-1.18,.9-2.45,1.78-3.67,2.65-.53,.33-1.38,.56-1.95,.16-.45-.33-.48-.94-.36-1.44-.09-.06-.11,.06-.17,.06-.94,.69-1.81,1.51-2.86,2.01-.47,.21-1.01,.16-1.44-.11-.48-.31-.73-.88-.64-1.44,.05-.72,.36-1.35,.55-2.04,.27-.94,.58-1.84,.91-2.74,0-.2,.09-.4,0-.58,0-.22-.17-.34-.33-.47-.49-.11-1.01-.03-1.44,.22-.07,.11-.11,.23-.11,.36-.36,1.48-.89,2.92-1.58,4.28-1.03,2.04-2.99,3.46-5.24,3.8-.72,.17-1.65,.3-2.29-.11-.45-.39-.64-1-.48-1.57,0-.03,0,.03-.05,0-.83,.89-1.81,1.62-2.89,2.17-.45,.16-1.08,.26-1.51,0-.28-.21-.47-.52-.55-.86-.08-.09-.21,.05-.3,.11-.99,.61-1.92,1.31-3,1.7-.62,.17-1.29,0-1.75-.45-.51-.54-.74-1.28-.64-2.01,.39-2.38,.81-4.75,1.34-7.09-.03-.11,.05-.2,.08-.3,.09-.42,.19-.86,.26-1.26-1.28,2.37-2.43,4.8-3.58,7.22-.39,.84-.78,1.7-1.17,2.53-.61,.43-1.14,.93-1.73,1.37-.08,0-.05-.08-.08-.11,0-.36-.05-.81-.08-1.2s-.06-.77-.09-1.12c-.09-.93-.14-1.81-.22-2.74-.09-1.5-.23-2.96-.36-4.45,.08-.13-.04-.23,0-.36-.03-.09,.03-.26-.03-.36,0-.2-.02-.45-.03-.67-.13,.09-.11,.31-.16,.47-.28,1.4-.62,2.77-.94,4.14-.23,1.03-.5,2.03-.76,3.04-.47,1.47-.64,3.04-1.81,4.21-1.14,1.32-2.84,2.01-4.58,1.85-.75-.05-1.5-.08-2.25-.14,0,0,0-.03-.03-.05,.99-1.73,1.98-3.46,3-5.17,.74,.09,1.49,.12,2.23,.11,.7-.13,.95-.89,1.16-1.44,.77-2.65,1.47-5.31,2.14-7.99,.05-.12,.06-.25,.11-.36,.2-.87,.46-1.74,.66-2.6-.92-.07-1.84,.24-2.53,.86-.57,.61-1.28,1.28-1.15,2.17,.08,.03,0,.13,.06,.17,.07,.22,.16,.43,.28,.62,0,.09,.09,.17,.12,.26,.36,.44,.58,.9,.92,1.31,0,.09-.16,.19-.19,.26-.81,.95-1.62,1.98-2.47,2.89h-.03c-.23-.59-.48-1.17-.69-1.76-.02-.19-.14-.34-.16-.53-.07-.21-.13-.42-.17-.64-.07-.22-.12-.44-.16-.67-.02-.31,.05-.59,.03-.92,.06-.27,.13-.53,.22-.79,.26-.85,.65-1.66,1.16-2.4,1.03-1.39,2.11-3.32,4.01-3.51,.65-.09,1.3-.11,1.95-.05,.53-.47,1.06-.96,1.62-1.4,.03,.06,0,.14,.05,.2,.11,1.33,.27,2.63,.39,3.93,.05,.14,0,.36,.08,.53-.05,.11,.03,.23,0,.36,.14,1.23,.26,2.53,.36,3.71,.05,.14,0,.34,.07,.49,.06,.7,.14,1.42,.23,2.13-.03,.27,.07,.5,.07,.79,.16-.09,.16-.31,.26-.47,1.94-3.61,3.68-7.34,5.93-10.86,.7-.86,1.69-1.23,2.7-1.48s2.16,.02,3.11,.35Zm20,3.54c-.48,.03-.9,.32-1.11,.75-.22,.5-.13,1.09,.22,1.51,.28,.3,.68,.43,1.08,.36,.39-.1,.72-.36,.91-.72,.24-.53,.13-1.14-.27-1.56-.22-.22-.52-.34-.83-.34Zm16.86,3.8c-.32,0-.62,.15-.81,.4-.8,.94-1.17,2.07-1.48,3.23,.86-.49,1.62-1.14,2.23-1.93,.2-.28,.32-.6,.36-.94,.05-.21,.02-.43-.08-.62-.07-.04-.15-.09-.22-.14Zm4.53,4.53c-.06,.4,.07,.82,.36,1.11,.46,.36,1.07,.45,1.61,.23,.34-.13,.57-.45,.59-.81,.11-.9-.2-1.81-.47-2.62-.75,.72-1.36,1.42-2.09,2.09Zm-39.56-1.57c-1.95,.62-2.81,2.76-3.01,4.64,0,.39-.05,.87,.28,1.12,.25,.08,.47-.08,.67-.17,.75-.46,1.45-1,2.09-1.6,.31-.84,.5-1.74,.78-2.6,.15-.42,.27-.84,.36-1.28-.28-.3-.81-.23-1.17-.11Z"/></svg>