<?xml version="1.0" encoding="utf-8"?>
<!-- Generator: Adobe Illustrator 26.5.0, SVG Export Plug-In . SVG Version: 6.00 Build 0)  -->
<svg version="1.1" id="レイヤー_1" xmlns="http://www.w3.org/2000/svg" xmlns:xlink="http://www.w3.org/1999/xlink" x="0px"
	 y="0px" viewBox="0 0 120 64" style="enable-background:new 0 0 120 64;" xml:space="preserve">
<style type="text/css">
	.st0{fill:none;}
	.st1{fill:#FFFFFF;}
</style>
<path class="st0" d="M0,0h120v64H0V0z"/>
<g>
	<g>
		<path class="st1" d="M96.7,33.4v-5.4h-8.3v6h7.1L96.7,33.4L96.7,33.4z M95,32.3h-5v-2.7h5V32.3L95,32.3z"/>
		<polygon class="st1" points="88.4,34.4 88.4,40.8 90.1,40.8 90.1,36.1 92.4,36.1 94.6,40.8 96.5,40.8 93.5,34.4 88.4,34.4 		"/>
		<polygon class="st1" points="86.3,40.8 87.9,40.8 87.9,27.4 97.2,27.4 97.2,33.7 95.7,34.4 94,34.4 97,40.8 98.8,40.8 96.5,35.9 
			98.8,34.7 98.8,25.8 86.3,25.8 86.3,40.8 		"/>
		<polygon class="st1" points="6.5,40.8 8.1,40.8 8.1,27.4 19.1,27.4 19.1,25.8 6.5,25.8 6.5,40.8 		"/>
		<polygon class="st1" points="8.6,33.1 16.4,33.1 16.4,31.4 10.3,31.4 10.3,29.6 19.1,29.6 19.1,27.9 8.6,27.9 8.6,33.1 		"/>
		<polygon class="st1" points="8.6,40.8 10.3,40.8 10.3,35.2 16.4,35.2 16.4,33.6 8.6,33.6 8.6,40.8 		"/>
		<polygon class="st1" points="23.1,40.8 24.7,40.8 24.7,25.8 23.1,25.8 23.1,40.8 		"/>
		<polygon class="st1" points="20.9,25.8 20.9,40.8 22.6,40.8 22.6,25.8 20.9,25.8 		"/>
		<polygon class="st1" points="29.6,38.7 37.9,38.7 37.9,32.6 36.2,33.5 36.2,37 31.3,37 31.3,29.6 40,29.6 40,27.9 29.6,27.9 
			29.6,38.7 		"/>
		<polygon class="st1" points="27.5,40.8 40,40.8 40,31.4 38.4,32.3 38.4,39.2 29.1,39.2 29.1,27.4 40,27.4 40,25.8 27.5,25.8 
			27.5,40.8 		"/>
		<polygon class="st1" points="63.5,40.8 65.1,40.8 65.1,29.6 68.8,29.6 68.8,27.9 63.5,27.9 63.5,40.8 		"/>
		<polygon class="st1" points="57.6,27.9 57.6,29.6 61.3,29.6 61.3,40.8 63,40.8 63,27.9 57.6,27.9 		"/>
		<polygon class="st1" points="57.6,27.4 68.8,27.4 68.8,25.8 57.6,25.8 57.6,27.4 		"/>
		<polygon class="st1" points="71.1,40.8 83.7,40.8 83.7,39.2 72.8,39.2 72.8,27.4 83.7,27.4 83.7,25.8 71.1,25.8 71.1,40.8 		"/>
		<polygon class="st1" points="73.3,33.1 81,33.1 81,31.4 74.9,31.4 74.9,29.6 83.7,29.6 83.7,27.9 73.3,27.9 73.3,33.1 		"/>
		<polygon class="st1" points="73.3,38.7 83.7,38.7 83.7,37 74.9,37 74.9,35.2 81,35.2 81,33.6 73.3,33.6 73.3,38.7 		"/>
		<polygon class="st1" points="111.5,33.6 102.7,33.6 102.7,27.4 113.6,27.4 113.6,25.8 101.1,25.8 101.1,35.2 109.8,35.2 109.8,37 
			101.1,37 101.1,38.7 111.5,38.7 111.5,33.6 		"/>
		<polygon class="st1" points="104.9,31.4 104.9,29.6 113.6,29.6 113.6,27.9 103.2,27.9 103.2,33.1 112,33.1 112,39.2 101.1,39.2 
			101.1,40.8 113.6,40.8 113.6,31.4 104.9,31.4 		"/>
		<polygon class="st1" points="44.9,33.6 44.9,40.8 46.6,40.8 46.6,35.2 51.5,35.2 51.5,40.8 53.2,40.8 53.2,33.6 44.9,33.6 		"/>
		<polygon class="st1" points="53.2,33.1 53.2,25.8 51.5,25.8 51.5,31.4 46.6,31.4 46.6,25.8 44.9,25.8 44.9,33.1 53.2,33.1 		"/>
		<polygon class="st1" points="53.7,40.8 55.3,40.8 55.3,25.8 53.7,25.8 53.7,40.8 		"/>
		<polygon class="st1" points="42.8,25.8 42.8,40.8 44.4,40.8 44.4,25.8 42.8,25.8 		"/>
	</g>
</g>
</svg>
