<?xml version="1.0" encoding="utf-8"?>
<!-- Generator: Adobe Illustrator 27.4.0, SVG Export Plug-In . SVG Version: 6.00 Build 0)  -->
<svg version="1.1" xmlns="http://www.w3.org/2000/svg" xmlns:xlink="http://www.w3.org/1999/xlink" x="0px" y="0px"
	 viewBox="0 0 120 64" enable-background="new 0 0 120 64" xml:space="preserve">
<g id="レイヤー_1" display="none">
	<g display="inline">
		<g>
			<path fill="#FFFFFF" d="M41,54.1c-0.1,0-0.3,0-0.4-0.1h-0.2c-7.9-2.6-15.5-2.8-17.7-2.8c-0.2,0-1.4,0-3.5-0.1l0,0
				c-0.1,0-1.2,0-1.9,0l0,0c-0.8,0-1.2-0.5-1.2-1c0-0.2,0.1-0.8,0.8-1.1c0,0,1.9-0.5,1.9-0.6l2.9-0.7c0.1,0,10.2-2.4,19.2-3.9
				c2.6-0.4,5-0.8,7.2-1.1c-0.7-0.1-1.2-0.4-1.6-0.8c-1.5,1.1-2.7,1.3-3.4,1.3c-0.2,0-0.3,0-0.4,0c-0.5-0.1-1-0.3-1.4-0.6
				c-0.3,0.2-0.6,0.3-0.7,0.4c-1,0.7-2,1.1-3,1.1c-0.8,0-1.6-0.3-2.2-0.8c-0.7-0.6-1.2-1.3-1.4-2.1l-0.2,0.4
				c-0.1,0.2-0.2,0.3-0.4,0.5l-2.6,2.1c-0.2,0.2-0.5,0.3-0.9,0.3c-0.2,0-0.4,0-0.5-0.1c-0.5-0.2-0.8-0.6-0.8-1.2l-0.2-2.1
				c-0.5,1.4-1.1,3-3.2,4.5c-1.3,0.9-2.8,1.4-4.4,1.4c-0.2,0-0.4,0-0.6,0l0,0c-0.5,0-2.5-0.1-2.5-0.1H17c-0.5,0-0.9-0.3-1.1-0.7
				c-0.2-0.4-0.2-0.9,0-1.3l3.8-6.5c0.2-0.4,0.7-0.7,1.2-0.7c0.1,0,0.1,0,0.2,0h0.3c0,0,0.7,0.1,1.6,0.1c0-0.1,0.1-0.3,0.1-0.4
				c-0.2,0.2-0.4,0.3-0.8,0.3l0,0c-0.3,0-0.8-0.1-1.1-0.9L20.9,36c0,0-0.3-0.7-0.7-1.9c-0.5-1.4-1-3-0.4-5c0.6-1.9,1.7-3.4,2.4-4.4
				l0.1-0.1c0.6-0.9,1.9-2.5,3.6-3c0.6-0.2,1.5-0.3,2.5-0.3c0.1,0,0.2,0,0.3,0l1.8-1.6c0.3-0.2,0.8-0.7,1.5-0.4
				c0.6,0.2,0.7,0.7,0.8,1.3l0.8,8.2c1.4-2.7,3-5.5,3.9-6.9c1.4-2.1,3.8-2.7,5.1-2.9c0.2,0,0.4,0,0.6,0c1.4,0,2.9,0.5,3,0.6l0.4,0.2
				c0.4,0.1,0.7,0.4,0.8,0.8s0.1,0.8-0.1,1.1l-0.2,0.4c-0.3,0.5-1.3,2.3-1.6,2.8l-0.2,0.3c-0.3,0.4-0.7,0.6-1.2,0.6
				c-0.2,0-0.3,0-0.5-0.1l-0.3-0.1h-0.1c-0.2,0.5-0.4,1.2-0.6,2c-0.6,2.2-1.2,5.1-1.7,7.4c0.2-0.4,0.4-0.7,0.6-1.1
				c1.3-2.2,2.5-3.5,4.4-4.4c1.4-0.7,2.8-0.8,3.5-0.8c0.2,0,0.5,0,0.6,0l0,0c0.3,0,1.7,0.3,2.5,1.6c0,0,0,0,0,0.1l0.1-0.1l0.3-0.2
				c0.8-0.5,2.2-1.3,4.6-1.9c0.9-0.2,1.6-0.3,2.3-0.3c1.4,0,2.5,0.5,3.2,1.4c0.1,0.1,0.2,0.2,0.2,0.3c0-0.5,0.3-1,0.7-1.2l0.3-0.1
				c0.1,0,0.2-0.1,0.3-0.2c-0.2-0.5-0.4-1-0.4-1.5c0-1.9,1.6-3.2,3.1-3.2c0.9,0,1.6,0.3,2.2,0.9s0.9,1.4,0.9,2.3
				c0,0.6-0.2,1.1-0.4,1.5c0.4-0.2,1-0.5,1.5-0.8c1.1-0.6,1.7-0.7,2.2-0.7h0.1c0.7,0,1.4,0.3,1.9,0.9c0,0,0,0,0.1,0.1
				c0.5-0.3,0.9-0.5,1.2-0.6c0.5-0.3,1-0.4,1.5-0.4c0.8,0,1.6,0.3,2.1,0.9c0.5,0.5,0.6,1.1,0.7,1.7c1.3-1.6,3.4-3.1,5.8-3.1h0.1
				c1.8,0,2.6,0.9,2.9,1.5c0.4,0.7,0.5,1.5,0.4,2.2c0.2-0.2,0.3-0.5,0.4-0.7C92,27,92.5,26,92.5,26l0.3-0.5c0.2-0.4,0.6-0.7,1.1-0.7
				c0.1,0,0.1,0,0.2,0c0.4,0,0.8,0.2,1,0.5l2,2.3c0.4,0.4,0.4,1.1,0.2,1.6l-0.1,0.2c-0.1,0.2-0.4,0.7-0.6,1c0,0.1-0.1,0.3-0.1,0.4
				s0,0.3,0.1,0.6c0.3-0.1,0.6-0.1,1-0.1c1.3,0,2.4,0.5,3.3,1.4c0.9,1,1.4,2.5,1.2,4c-0.2,2.3-2,4.3-5.2,5.8c-2.1,1-5.4,2-14.5,2.3
				c-7.7,0.3-17.2,1.6-20,2c-4,0.6-14,2.5-20.3,7l-0.2,0.1C41.5,54,41.3,54.1,41,54.1L41,54.1z M56.6,39.1c-0.3,0.4-0.8,0.9-1.3,1.3
				c-1.2,1-2.1,1.5-2.9,1.8c2.3-0.3,4.5-0.6,6.5-0.9c-0.4-0.1-0.7-0.3-1-0.5C57.3,40.4,56.8,39.8,56.6,39.1L56.6,39.1z M62.8,40.1
				c-0.5,0.4-1,0.7-1.4,0.9c0.9-0.1,1.8-0.2,2.7-0.3c-0.3-0.1-0.6-0.2-0.9-0.4C63.1,40.2,63,40.1,62.8,40.1
				C62.9,40,62.9,40.1,62.8,40.1z M67.4,40c-0.1,0.1-0.4,0.3-0.8,0.4c0.5,0,0.9-0.1,1.3-0.1c0,0-0.1,0-0.1-0.1
				c-0.1-0.1-0.2-0.2-0.3-0.4C67.6,39.8,67.5,40,67.4,40z M73.7,38.3c-0.1,0.4-0.4,0.8-0.8,0.9L70.6,40c1.8-0.2,3.4-0.3,4.8-0.4
				c-0.5-0.2-1.2-0.6-1.6-1.6L73.7,38.3z M78.9,39c-0.1,0.1-0.5,0.3-1,0.5c1.2-0.1,2.2-0.1,3.1-0.1c-0.5-0.2-0.9-0.5-1.2-1
				C79.4,38.7,79.1,38.9,78.9,39L78.9,39z M87.9,38.5c-0.5,0.3-0.9,0.5-1.4,0.6c0.8-0.1,1.5-0.1,2.1-0.2
				C88.4,38.8,88.1,38.7,87.9,38.5L87.9,38.5z"/>
			<path fill="#231815" d="M41,53.2c-0.1,0-0.1,0-0.1,0l-0.2-0.1c-8.1-2.6-15.8-2.8-17.9-2.8c-0.2,0-2.1,0-3.5-0.1l0,0
				c-0.2,0-1.9,0-1.9,0c-0.1,0-0.3,0-0.3-0.2c0-0.1,0.1-0.2,0.2-0.2c0,0,1.8-0.5,1.9-0.5l2.9-0.7c0.1,0,10.2-2.4,19.1-3.8
				c25-4,36.3-4.3,41.2-4.5l0,0c0.5,0,1,0,1.4-0.1c5.4-0.2,9.2-0.8,11.3-1.7c2.7-1.2,2.6-2.1,2.6-2.4c-0.1-0.6-0.2-0.7-0.6-0.7l0,0
				c-0.2,0-0.5,0.1-0.9,0.2c-0.2,0.6-0.7,1.4-1.6,2c-1.3,0.9-2.8,1-3.4,1c-0.1,0-0.1,0-0.1,0c-1.3,0-2.3-0.4-2.9-1.2
				c-1.6,1-3.3,1.5-4.9,1.5c-0.2,0-0.4,0-0.5,0c-1.2-0.1-2-0.7-2.4-1.7c-0.9,0.6-1.4,0.9-1.7,1.1c-0.1,0.1-1.2,0.7-2.1,0.7
				c-0.2,0-0.4,0-0.6-0.1c-0.9-0.3-1.8-1.3-1.1-3.7l0.2-0.8c0.2-0.6,0.4-1.4,0.5-2.1c-0.3,0.2-0.6,0.4-1.1,0.6l-1.4,5
				c0,0.1-0.2,0.3-0.3,0.3L69,39.7c-0.1,0-0.1,0-0.2,0s-0.2,0-0.3-0.1c-0.1-0.1-0.2-0.3-0.1-0.5l0.3-0.8c0,0,0.1-0.2,0.1-0.4
				c-1.1,0.8-1.7,1.3-1.9,1.3c-0.1,0.1-0.9,0.6-2,0.6c-0.5,0-0.9-0.1-1.3-0.4c-0.3-0.2-0.5-0.4-0.6-0.7c-0.3,0.2-0.5,0.4-0.8,0.6
				c-1,0.8-1.8,1.1-2.6,1.1c-0.5,0-0.9-0.1-1.3-0.4c-1-0.7-1.3-2-0.9-3.4c0.1-0.3,0.2-0.6,0.3-1v-0.1c0.2-0.7,0.5-1.5,0.9-2.7
				c0.1-0.2,0.1-0.3,0.1-0.4c0-0.1,0.1-0.2,0.1-0.2c-0.1,0-0.2,0-0.4,0.1c-0.4,1.6-1.3,3.7-1.5,4.2c-0.3,0.6-0.9,2-2.3,3.1
				c-1.9,1.5-3.1,1.8-4.2,2l0,0c-0.1,0-0.2,0-0.3,0.1c-0.5,0.1-0.9,0.2-1.3,0.2c-0.8,0-1.5-0.2-1.9-0.7c-0.1-0.1-0.3-0.3-0.4-0.5
				c-1.7,1.5-2.9,1.7-3.5,1.7c-0.1,0-0.2,0-0.3,0c-0.5-0.1-1-0.4-1.4-0.8c-0.6,0.3-1.1,0.7-1.3,0.8l0,0c-0.9,0.6-1.7,0.9-2.5,0.9
				c-0.6,0-1.2-0.2-1.7-0.6c-1.6-1.3-1.3-3.1-0.8-5.8l-2,4.5c0,0.1-0.1,0.1-0.1,0.2l-2.6,2.1c-0.1,0.1-0.2,0.1-0.3,0.1
				c-0.1,0-0.1,0-0.2,0c-0.2-0.1-0.3-0.2-0.3-0.4L29,36c-0.5,2.1-1,4.1-1.3,4.8c-0.5,1.4-1,2.9-2.9,4.2c-1.1,0.8-2.4,1.2-3.9,1.2
				c-0.2,0-0.4,0-0.5,0l0,0c-0.4,0-2.2-0.1-2.5-0.1h-0.7c-0.2,0-0.3-0.1-0.4-0.3c-0.1-0.1-0.1-0.3,0-0.5l3.8-6.5
				c0.1-0.1,0.2-0.2,0.4-0.2h0.1h0.3c0,0,0.7,0.1,1.8,0.1l0,0c0.5,0,0.6,0,1-1.3c0.1-0.4,0.5-1.7,1-3.6l-2.3,2.7
				c-0.1,0.1-0.3,0.4-0.4,0.4c-0.2,0-0.3-0.1-0.3-0.3l-0.3-0.8c0,0-0.3-0.7-0.7-1.9c-0.5-1.3-0.9-2.6-0.4-4.4
				c0.6-1.8,1.6-3.2,2.3-4.1l0.1-0.1c0.6-0.8,1.7-2.2,3.2-2.7c0.6-0.2,1.3-0.3,2.2-0.3c0.2,0,0.4,0,0.6,0l2.2-1.9
				c0,0,0.3-0.3,0.5-0.2c0.2,0.1,0.2,0.3,0.2,0.3l1.1,11.4c1.6-3.1,4-7.7,5.2-9.5c1.2-1.8,3.3-2.3,4.4-2.5c0.2,0,0.3,0,0.5,0
				c1.3,0,2.7,0.5,2.7,0.6l0.4,0.2c0.1,0.1,0.2,0.2,0.3,0.3c0,0.1,0,0.3,0,0.4l-0.2,0.4c-0.1,0.2-1.2,2.2-1.6,2.8l-0.2,0.3
				c-0.1,0.1-0.2,0.2-0.4,0.2c-0.1,0-0.1,0-0.2,0L43.8,25c-0.3-0.1-0.7-0.2-1-0.2c-0.2,0.6-0.5,1.5-0.9,2.7
				c-1.1,3.9-2.2,10.1-2.4,11.1c0.2-0.1,0.4-0.1,0.7-0.3c0.3-0.1,0.5-0.2,0.8-0.4c0.3-1.2,0.7-2.5,1.4-3.6c1.2-2.1,2.3-3.2,4-4
				c1.2-0.6,2.5-0.7,3.1-0.7c0.2,0,0.4,0,0.5,0l0,0c0.1,0,1.3,0.2,1.9,1.2c0.3,0.4,0.5,1.1,0.2,2c-0.5,1.6-1,3.8-1.3,5.1
				c0,0.1,0,0.1,0,0.2h0.1c0.4,0,2-0.8,2.7-3.3c0.1-0.4,0.2-0.7,0.3-1c-0.1,0-0.1,0-0.2,0c-0.1-0.1-0.2-0.2-0.3-0.3L53,31.6
				c-0.1-0.2,0-0.4,0.2-0.6l0.3-0.2c0.8-0.5,2.1-1.2,4.4-1.8c0.8-0.2,1.5-0.3,2.1-0.3c1.1,0,1.9,0.4,2.5,1.1
				c0.9,1.2,0.8,2.2,0.5,3.1c-0.2,0.7-0.6,1.9-1,2.9c0.5-0.3,1.2-0.8,1.7-1.1l1-3.7l-0.3-1.3c-0.1-0.2,0-0.4,0.2-0.6l0.3-0.1
				c0.1-0.1,1-0.5,1.2-0.6c0,0,0,0,0.1,0c-0.5-0.4-0.8-1.1-0.8-1.8c0-1.4,1.1-2.3,2.2-2.3c0.6,0,1.2,0.2,1.6,0.7
				c0.4,0.4,0.7,1,0.6,1.7c0,0.9-0.5,1.6-1.1,2c0,0.1,0.1,0.1,0.1,0.2c0.3,0.5,0.2,1.1,0.1,1.7c-0.1,0.5-0.4,1.4-0.6,2.3l0,0
				c-0.2,0.6-0.3,1.3-0.5,1.9c0.6-0.3,1.5-0.8,2.6-1.4c0.1-0.4,0.2-0.8,0.3-1.2h-0.1c-0.1-0.1-0.2-0.2-0.3-0.3L69.5,30
				c-0.1-0.2,0-0.5,0.2-0.6l0.3-0.2c0.1-0.1,1.1-0.6,2-1.1c1-0.5,1.4-0.6,1.7-0.6h0.1c0.5,0,0.9,0.2,1.2,0.5
				c0.2,0.2,0.3,0.5,0.3,0.8c1-0.5,1.6-0.9,2-1.2c0.3-0.2,0.7-0.3,1.1-0.3c0.6,0,1.1,0.2,1.4,0.6c0.7,0.8,0.4,1.7,0.3,2.2
				c-0.1,0.2-0.2,0.9-0.4,1.5v0.1c-0.2,0.8-0.5,1.8-0.7,2.5c0.3-0.1,0.6-0.3,1.1-0.5c0.1-0.7,0.4-1.7,1-2.9c1-1.9,3.2-3.9,5.9-3.9
				c0,0,0,0,0.1,0c1.3,0,1.9,0.6,2.2,1c0.6,0.9,0.3,2.1,0,2.7c-0.7,1.5-2.5,2.7-4.4,4.1l0,0c-0.2,0.1-0.4,0.3-0.6,0.5
				c0.1,0,0.2,0.1,0.3,0.1l0,0c0,0,1.3,0,2.8-1.2l0.1-0.1c1.5-1.2,3.2-2.6,4.3-4.5c1.2-2.1,1.7-3.1,1.7-3.1l0.3-0.5
				c0.1-0.1,0.2-0.2,0.4-0.3c0,0,0,0,0.1,0s0.3,0.1,0.4,0.2l2,2.3c0.1,0.2,0.2,0.4,0.1,0.6L96.3,29c-0.1,0.2-0.5,0.8-0.6,1.1
				c0,0.1-0.1,0.5-0.1,0.8c0,0.2,0.1,0.9,0.3,1.7c0.6-0.2,1.1-0.3,1.6-0.3c1.1,0,2,0.4,2.6,1.1c0.7,0.8,1.1,2,1,3.3
				c-0.2,2.5-2.7,4.1-4.7,5c-2.1,1-5.2,1.9-14.2,2.2c-7.7,0.3-17.3,1.6-20.1,2C58,46.5,47.9,48.5,41.4,53l-0.2,0.1
				C41.2,53.2,41.1,53.2,41,53.2L41,53.2z M47.8,33.4c-0.1,0-0.3,0.1-0.3,0.1h-0.1c-0.3,0.2-1.3,0.7-1.8,2.3
				c-0.3,0.9-0.4,1.5-0.4,1.8c0.3-0.2,0.6-0.4,0.9-0.7c0.4-0.3,0.6-0.5,0.8-0.7C47,35.9,47.5,34.5,47.8,33.4L47.8,33.4z M91.6,34.6
				c0.1,0.2,0.2,0.3,0.3,0.3c0.1,0,0.2,0,0.2,0c0.2,0,0.4,0,0.5-0.2c0-0.1,0.1-0.5-0.1-1.2L91.6,34.6z M26.9,27.1
				c-0.4,0.1-0.8,0.4-1.1,0.7c-0.7,0.7-0.9,1.1-0.9,1.5c0,0.3,0.4,0.8,1,1.7C26.3,29.6,26.7,28.1,26.9,27.1L26.9,27.1z"/>
			<path fill="#FFFFFF" d="M41,52.9C41,52.9,40.9,52.8,41,52.9l-0.2-0.1c-8.1-2.6-15.9-2.8-18-2.8c-0.2,0-1.4,0-3.5-0.1
				c-0.1,0-0.9,0-0.9,0s0.8-0.2,0.9-0.2L22,49c0.1,0,10.2-2.4,19.1-3.8c25-4,36.3-4.3,41.1-4.5l0,0c0.6,0,1,0,1.5-0.1
				c5.5-0.2,9.3-0.8,11.4-1.8c2.7-1.2,2.9-2.1,2.8-2.8c-0.1-0.8-0.4-0.9-0.9-1c0,0,0,0-0.1,0c-0.3,0-0.7,0.1-1.2,0.3
				c-0.2,0.6-0.6,1.3-1.5,1.9c-1.3,0.9-2.7,0.9-3.2,0.9h-0.1c-1.3,0-2.3-0.5-2.8-1.3c-1.7,1.1-3.4,1.6-5,1.6c-0.2,0-0.3,0-0.5,0
				c-1.2-0.1-2-0.7-2.3-1.9c-1.1,0.7-1.8,1.2-2.1,1.3c0,0-1.1,0.7-1.9,0.7c-0.2,0-0.3,0-0.5-0.1c-1.1-0.4-1.4-1.5-0.9-3.2l0.2-0.8
				c0.2-0.9,0.6-2.2,0.8-2.9c-0.3,0.2-1,0.6-2,1.2l-1.5,5.2c0,0,0,0.1-0.1,0.1l-3.5,1.3l0,0h-0.1v-0.1l0.3-0.8c0,0,0.2-0.6,0.5-1.5
				c-1.7,1.2-2.6,1.9-2.8,2c-0.3,0.2-1,0.6-1.7,0.6c-0.4,0-0.8-0.1-1.1-0.3c-0.3-0.2-0.6-0.6-0.7-1c-0.4,0.3-0.8,0.6-1.2,0.9
				c-0.9,0.7-1.7,1-2.3,1c-0.4,0-0.8-0.1-1.1-0.4c-0.9-0.6-1.2-1.7-0.7-3c0.1-0.3,0.2-0.7,0.3-1.1v-0.1c0.2-0.7,0.5-1.5,0.9-2.7
				c0-0.2,0.1-0.3,0.1-0.4c0.1-0.2,0.1-0.2,0.1-0.3c0-0.3-0.1-0.4-0.3-0.4l0,0c-0.1,0-0.4,0-0.8,0.2c-0.4,1.5-1.3,3.9-1.6,4.4
				c-0.2,0.5-0.9,2-2.2,3c-1.8,1.5-3,1.7-4.1,1.9l0,0c-0.1,0-0.2,0-0.3,0.1c-0.4,0.1-0.8,0.1-1.2,0.1c-0.7,0-1.3-0.2-1.7-0.6
				c-0.2-0.2-0.4-0.5-0.5-0.8c-1.9,1.7-3.1,1.9-3.7,1.9c-0.1,0-0.2,0-0.3,0c-0.5-0.1-1-0.4-1.3-0.9c-0.7,0.4-1.3,0.8-1.6,1l0,0l0,0
				c-0.8,0.6-1.6,0.9-2.3,0.9c-0.5,0-1-0.2-1.4-0.5c-1.5-1.3-1.1-3.1-0.5-6.3c0.1-0.7,0.3-1.4,0.4-2.1l-3.4,7.1l0,0l-2.6,2.1
				c0,0,0,0-0.1,0l0,0l-0.1-0.1L29,33.4c-0.6,2.7-1.4,6.1-1.8,7.1c-0.5,1.4-1,2.8-2.8,4c-1,0.7-2.3,1.1-3.7,1.1c-0.2,0-0.4,0-0.5,0
				l0,0c-0.4,0-2-0.1-2.5-0.1H17c0,0-0.1,0-0.1-0.1v-0.1l3.8-6.5l0.1-0.1l0,0h0.3c0,0,0.7,0.1,1.8,0.1l0,0c0.8,0,0.9-0.2,1.3-1.5
				c0.2-0.6,0.9-3.2,1.4-5.2l-3.3,4l-0.1,0.2l-0.1-0.2c0-0.1-0.2-0.6-0.2-0.6s-0.3-0.7-0.7-1.9c-0.5-1.3-0.9-2.5-0.3-4.1
				c0.6-1.7,1.6-3.1,2.2-4l0.1-0.1c0.5-0.8,1.7-2.1,3-2.6c0.5-0.2,1.2-0.3,2.1-0.3c0.3,0,0.6,0,0.7,0l2.3-1.9l0.1-0.1c0,0,0,0,0,0.1
				l1.2,12.5c1.6-3.1,4.4-8.5,5.8-10.5c1.1-1.7,3.1-2.2,4.2-2.3c0.1,0,0.3,0,0.5,0c1.2,0,2.5,0.5,2.6,0.5l0.4,0.2c0,0,0.1,0,0.1,0.1
				v0.1L46,21.6c0,0.1-1.2,2.2-1.6,2.8l-0.2,0.3l-0.1,0.1l0,0l-0.3-0.1c-0.5-0.2-1-0.2-1.4-0.2c-0.2,0.5-0.6,1.6-1,3
				c-1.1,4.1-2.3,10.4-2.4,11.3v0.1c0,0.1,0,0.3,0,0.3c0.2,0,0.5-0.1,1.3-0.4c0.3-0.1,0.7-0.3,1-0.4c0.2-1.2,0.7-2.5,1.4-3.6
				c1.1-2,2.2-3.1,3.8-3.9c1.2-0.6,2.3-0.7,3-0.7c0.2,0,0.4,0,0.5,0c0,0,1.1,0.2,1.6,1c0.2,0.3,0.4,0.9,0.2,1.7
				c-0.5,1.6-1,3.8-1.3,5.2c-0.1,0.4-0.1,0.5-0.1,0.6c0.1,0,0.2,0,0.3,0s0.1,0,0.2,0c0.5,0,2.2-0.9,3.1-3.5c0.2-0.7,0.4-1.2,0.5-1.7
				c0,0-0.3,0.1-0.4,0.2l0,0l0,0c0,0-0.1,0-0.1-0.1l-0.5-1.9c0-0.1,0-0.1,0.1-0.1l0.3-0.2c0.8-0.4,2.1-1.2,4.3-1.8
				c0.8-0.2,1.4-0.3,2-0.3c1,0,1.7,0.3,2.2,0.9c0.7,1,0.7,1.8,0.4,2.7c-0.3,0.9-1,2.9-1.3,3.8c0.1-0.1,0.3-0.1,0.4-0.2
				c0.4-0.2,1.6-1,2.3-1.5l1-3.9l-0.4-1.3c0-0.1,0-0.1,0.1-0.1l0.3-0.1c0,0,1-0.5,1.2-0.6h0.1c0.2-0.1,0.4-0.2,0.7-0.3
				c-0.8-0.2-1.3-1-1.3-1.9c0-1.2,1-1.9,1.8-1.9c0.5,0,1,0.2,1.3,0.5c0.4,0.4,0.5,0.9,0.5,1.4c0,1-0.7,1.7-1.6,1.9
				c0.3,0.1,0.5,0.2,0.7,0.5c0.2,0.4,0.2,0.9,0,1.4c-0.1,0.5-0.4,1.4-0.6,2.3l0,0c-0.3,1-0.6,2.2-0.7,2.7c0,0,0.1,0,0.1-0.1
				c0.4-0.3,1.6-0.9,3.4-1.9c0.2-0.8,0.4-1.5,0.5-2l-0.4,0.2c0,0,0,0-0.1,0l0,0c0,0-0.1,0-0.1-0.1L70.1,30c0-0.1,0-0.1,0.1-0.1
				l0.3-0.2c0.1-0.1,1.1-0.6,2-1.1s1.3-0.6,1.6-0.6h0.1c0.4,0,0.7,0.1,0.9,0.4c0.2,0.3,0.3,0.7,0.2,1.3c1.3-0.7,2.2-1.2,2.6-1.5
				c0.3-0.2,0.6-0.2,0.9-0.2c0.4,0,0.9,0.2,1.1,0.5c0.5,0.6,0.3,1.4,0.2,1.8c-0.1,0.2-0.2,0.8-0.4,1.5v0.1c-0.3,1.1-0.7,2.6-0.9,3.2
				v0.1c0.2-0.1,0.7-0.3,2-1c0.1-0.7,0.3-1.7,1-2.9c0.9-1.8,3-3.7,5.5-3.7c0,0,0,0,0.1,0c1.1,0,1.6,0.5,1.9,0.9
				c0.5,0.8,0.2,1.9,0,2.3c-0.7,1.4-2.4,2.6-4.3,3.9l0,0c-0.3,0.2-0.6,0.4-0.9,0.6c0,0.1,0,0.3,0.1,0.4c0.2,0.2,0.4,0.2,0.6,0.2l0,0
				c0.1,0,1.4,0,3-1.3l0.1-0.1c1.5-1.2,3.3-2.6,4.4-4.6c1.2-2.1,1.7-3.1,1.7-3.1l0.3-0.5l0.1-0.1l0,0h0.1l2,2.3v0.1L96,28.8
				c-0.1,0.1-0.5,0.8-0.6,1.1c-0.1,0.2-0.2,0.6-0.2,1c0,0.3,0.2,1.4,0.5,2.2c0.7-0.2,1.3-0.4,1.9-0.4c0.9,0,1.8,0.3,2.3,1
				c0.7,0.7,1,1.9,0.9,3c-0.2,2.3-2.5,3.8-4.5,4.7s-5.1,1.9-14.1,2.2c-7.7,0.3-17.4,1.6-20.1,2c-4.1,0.6-14.3,2.6-20.9,7.2L41,52.9z
				 M48.3,32.9c-0.4,0-0.8,0.2-1,0.3h-0.1c-0.4,0.2-1.4,0.8-2,2.5c-0.6,1.6-0.4,2.4-0.4,2.5c0.3-0.1,0.9-0.5,1.5-1
				c0.4-0.4,0.7-0.6,0.8-0.7C47.4,36.1,48,34.1,48.3,32.9L48.3,32.9z M91.2,34.5c0,0.4,0.3,0.7,0.6,0.8c0.1,0,0.2,0,0.3,0
				c0.2,0,0.6,0,0.8-0.3c0.1-0.2,0.2-1-0.2-2.1l0,0L91.2,34.5z M27.4,26.6c-0.7,0.1-1.4,0.4-1.9,0.9c-0.8,0.8-1.1,1.3-1,1.8
				s0.7,1.4,1.3,2.2l0,0c0,0.1,0.1,0.1,0.1,0.2l0.1,0.1C26.6,29.8,27.1,27.7,27.4,26.6L27.4,26.6L27.4,26.6z"/>
			<path fill="#231815" d="M67.4,28c0.7-0.1,1.3-0.6,1.3-1.4s-0.5-1.4-1.3-1.4c-0.7,0-1.3,0.6-1.3,1.4S66.7,28.1,67.4,28z
				 M95.3,33.7c-0.3-1.1-0.7-2.4-0.6-2.9c0-0.3,0.1-0.9,0.3-1.2c0.2-0.3,0.6-1.1,0.6-1.1l-1.5-1.7c0,0-0.5,1-1.7,3.1s-3,3.6-4.6,4.8
				c-1.6,1.3-3,1.4-3.4,1.4s-1.3-0.2-1.2-1.4c2.2-1.6,4.5-3,5.2-4.5c0.2-0.5,0.8-2.5-1.4-2.5c-2.2,0-4.2,1.6-5.2,3.5
				c-0.7,1.3-0.9,2.4-1,3.1c-0.8,0.4-2.1,1-2.3,1.1c-0.4,0.2-0.9,0.3-0.6-0.7s1.2-4.3,1.3-4.8c0.1-0.5,0.2-1-0.1-1.3
				c-0.3-0.4-0.9-0.4-1.4-0.2c-0.7,0.4-2.4,1.4-3.7,2.1c0.1-0.3,0.2-0.7,0.3-1.2c0.3-1.1-0.5-1-0.6-1s-0.4,0-1.4,0.5s-2,1.1-2,1.1
				l0.3,1c0,0,0.5-0.2,0.6-0.3c0.1,0,0.1,0,0.2,0c0,0.5-0.3,1.7-0.7,3.1c-1.3,0.7-3,1.7-3.6,2c-0.9,0.5-1.1,0.3-0.9-0.3
				c0.1-0.6,1.1-4.3,1.4-5.3s0.1-1.2-0.5-1.3c-0.3-0.1-0.8,0.2-1,0.3c-0.2,0.1-1.2,0.6-1.2,0.6l0.3,1.2l-1.1,4.2
				c-0.7,0.4-2,1.3-2.5,1.6c-0.6,0.3-1.5,0.7-1.2-0.3c0.3-0.9,1.1-2.9,1.3-3.9c0.3-0.9,0.2-1.5-0.3-2.3c-0.6-0.7-1.6-1-3.6-0.4
				c-2.1,0.6-3.4,1.3-4.2,1.7l0.3,1.2c0,0,0.4-0.2,1-0.4c-0.1,0.4-0.3,1.2-0.7,2.7c-0.9,2.9-2.9,3.9-3.6,3.9c-0.7,0-1.2,0.1-0.9-1.2
				s0.8-3.5,1.3-5.2s-1.3-2.1-1.4-2.1S48,30.3,46.5,31s-2.5,1.7-3.6,3.7c-0.7,1.3-1.2,2.6-1.3,3.7c-0.4,0.2-0.8,0.4-1.2,0.6
				c-2.1,0.9-2,0.2-1.9-0.6s1.3-7.2,2.4-11.3c0.6-2.1,1.1-3.4,1.1-3.4s1-0.1,1.9,0.3c0.3-0.5,1.6-2.7,1.6-2.7s-1.6-0.6-2.8-0.5
				C41.6,21,40,21.5,39,22.9c-1.8,2.7-6.5,12-6.5,12l-1.3-13.4l-1.8,1.6c0,0-1.8-0.2-2.8,0.2c-1.1,0.4-2.1,1.4-2.7,2.4
				c-0.7,0.9-1.7,2.3-2.3,4.1c-0.5,1.4-0.2,2.5,0.3,3.8s0.7,1.9,0.7,1.9l2.9-3.5c-0.4-0.6-1.4-1.9-1.5-2.6s0.3-1.4,1.1-2.2
				c0.8-0.8,2-1.2,2.9-1.1c-0.2,1-2.7,10.3-3.1,11.6c-0.4,1.3-0.7,1.9-1.9,1.9c-1.2,0-1.9-0.1-1.9-0.1l-3.3,5.7c0,0,2,0.1,2.5,0.1
				s2.2,0.1,3.8-1c1.7-1.2,2.1-2.4,2.6-3.8c0.6-1.7,2.5-10.4,2.5-10.4l0.9,12.3l1.9-1.6l5.2-10.7c0,0-0.6,3-1.3,6
				c-0.6,3-1,4.7,0.3,5.8s3-0.3,3.2-0.4c0.1,0,1.2-0.7,2.1-1.3c0.2,0.7,0.7,1.1,1.2,1.2c0.6,0.1,1.9-0.3,3.6-1.9
				c0.3-0.3,0.5-0.5,0.7-0.7c0,0.2-0.2,1.1,0.4,1.6c0.4,0.4,1.2,0.6,2.4,0.3s2.3-0.4,4.2-1.9c1.1-0.9,1.7-2.2,2-2.8s1.3-3.1,1.6-4.6
				c0.6-0.2,1-0.3,1.2-0.3c0.1,0,0.8,0.1,0.7,1c0,0.2-0.1,0.4-0.3,0.8c-0.6,1.9-0.9,2.9-1.2,3.8c-0.3,0.9-0.3,1.8,0.5,2.4
				c0.8,0.6,1.8,0.2,2.9-0.7c0.7-0.5,1.5-1.2,2-1.6c-0.1,0.5-0.1,1.3,0.4,1.7c0.7,0.5,1.8,0,2.2-0.3c0.3-0.2,2.6-1.9,4-2.9
				c-0.5,1.6-0.9,2.9-0.9,2.9l2.6-1l1.5-5.2c0.9-0.6,2-1.2,2.3-1.4c0.6-0.3,0.9-0.5,0.7,0.2c-0.2,0.7-0.9,3.3-1.1,4.2
				c-0.2,0.9-0.4,2.2,0.6,2.6c0.7,0.3,1.9-0.5,1.9-0.5c0.4-0.3,1.8-1.2,2.7-1.8c0,0.9,0.4,2.2,1.9,2.3c2.8,0.2,5.1-1.4,5.7-1.9
				c0.4,1.4,2,1.5,2.6,1.5s1.9-0.1,3.1-0.9c0.8-0.6,1.2-1.3,1.3-1.9c0.7-0.3,1.4-0.5,1.8-0.4c0.7,0.1,1.2,0.5,1.3,1.5
				c0.1,1-0.4,2.1-3.1,3.3s-7.5,1.6-11.6,1.8s-14.7,0.1-42.5,4.5c-9,1.5-19.1,3.8-19.1,3.8s9.1-0.3,18.8,2.9
				c7.3-5.1,18.9-6.9,21.1-7.3c2.1-0.3,12-1.7,20.2-2s11.6-1.1,13.9-2.2c2.2-1,4-2.5,4.2-4.3C100.4,34.6,99.1,32,95.3,33.7z
				 M84.7,30c0.5-0.7,0.9-0.8,1.2-0.6c0.1,0.1,0.3,0.2,0.2,0.6c0,0.3-0.1,0.7-0.4,1.1c-0.8,1.1-1.8,1.7-2.5,2.2
				C83.8,31.4,84.2,30.7,84.7,30z M47.6,36.9c0,0-0.2,0.2-1,0.8c-0.7,0.6-1.7,1.2-2,1.1c-0.3-0.1-0.7-1,0.1-3.2
				c0.7-2,1.9-2.6,2.3-2.8c0.3-0.2,1.5-0.6,1.9-0.1C48.6,33.9,47.6,36.9,47.6,36.9z M93.4,35.3c-0.3,0.5-1,0.7-1.6,0.5
				c-0.6-0.1-1.1-0.8-1-1.5c1-1,2.3-2.3,2.3-2.3C93.6,33.5,93.7,34.8,93.4,35.3z"/>
		</g>
	</g>
</g>
<g id="レイヤー_2">
	<path fill="#FFFFFF" stroke="#FFFFFF" stroke-width="0.09" d="M44.018,19.361h-0.074c-1.627,0.202-3.935,0.702-5.221,2.776
		c-1.436,2.308-2.69,4.7-3.903,7.029l-0.032,0.053l-0.383-3.722v-0.276c-0.021,0.096-0.032,0.191-0.043,0.287l0.053-0.383
		l-0.276-2.52l-0.202-1.946v-0.085c0-0.245-0.074-0.489-0.213-0.691c-0.223-0.319-0.617-0.479-1-0.383l-0.213,0.032l-0.447,0.383
		l-1.935,1.691c-0.638-0.021-1.265,0.032-1.893,0.16c-1.478,0.17-2.839,1.106-4.158,2.85c-1.319,1.755-2.861,3.892-2.861,6.529
		c0,0.255,0.011,0.51,0.043,0.766l0.043,0.383l0.074,0.032c0.245,1.138,0.617,2.244,1.095,3.307l0.245,0.596l0.085,0.106l0,0
		l0.074,0.181c0.074,0.223,0.202,0.436,0.362,0.627l0.043,0.043l0.043,0.043c0.351,0.276,0.851,0.276,1.212,0l0.053-0.043
		l0.34-0.404l-0.096,0.308c-0.064,0.234-0.149,0.447-0.255,0.659c-0.287,0-0.585-0.021-0.872-0.053l-0.734-0.053h-0.138
		c-0.425-0.149-0.904-0.032-1.223,0.287l-0.053,0.064l-3.881,6.657l0.117-0.149c-0.245,0.234-0.351,0.574-0.298,0.915
		c0.074,0.404,0.393,0.712,0.798,0.766c1.223,0.191,2.446,0.308,3.679,0.351c2.978,0.16,5.774-1.457,7.125-4.126v-0.053
		c0.276-0.659,0.5-1.329,0.712-1.999c0.074,0.861,0.149,1.787,0.213,2.861v0.106l0,0c-0.021,0.351,0.096,0.691,0.33,0.936
		l0.053,0.053l0.064,0.043c0.308,0.202,0.712,0.213,1.042,0.032l0.128-0.064l0.096-0.106c0.712-0.744,1.478-1.425,2.308-2.052
		l0.808-0.649l0.074-0.16c0.096-0.223,0.191-0.425,0.287-0.638c0.223,0.978,0.798,1.829,1.627,2.393
		c1.935,1.329,3.807,0.17,5.158-0.681l0.34-0.213l0.234,0.191l0,0c1.787,0.968,3.584-0.053,4.817-0.946
		c0.542,0.5,1.244,0.798,1.978,0.84h0.053c1.712,0,3.392-0.415,4.913-1.202c1.159-0.638,2.148-1.531,2.914-2.605v0.043
		c0.234,0.946,0.904,1.723,1.808,2.095c1.733,0.766,3.212-0.234,4.349-1.106c0.383,0.351,0.851,0.606,1.361,0.723
		c0.308,0.064,0.638,0.085,0.957,0.053c0.787-0.064,1.531-0.362,2.137-0.861v0.149l0.106,0.181c0.096,0.128,0.213,0.245,0.351,0.319
		c-2.084,0.202-4.169,0.425-6.263,0.649c-4.509,0.489-8.975,1.117-12.761,1.659l-1.478,0.234l-4.286,0.691
		c-9.315,1.499-17.461,3.148-24.926,5.051H18.55c-0.362,0.117-0.627,0.425-0.702,0.798v0.128c0,0.383,0.245,0.734,0.606,0.872
		l0.181,0.085h0.181c9.156,0,16.621,1.01,22.81,3.041l0.096,0.032l-0.138-0.043l0.968,0.053l0.032-0.138
		c2.042-1.446,4.275-2.627,6.614-3.509c7.486-2.882,15.685-3.988,21.981-4.605l0,0l0.883-0.096l0.627-0.074h0.074
		c3.796-0.319,7.731-0.649,11.644-0.766c1.925-0.053,3.85-0.213,5.764-0.468c2.978-0.468,6.104-1.18,8.784-3.158
		c1.489-1.063,2.393-2.754,2.446-4.583c0-0.468-0.064-0.936-0.191-1.393c-0.276-1.191-1.074-2.191-2.159-2.733h-0.043
		c-0.617-0.266-1.287-0.393-1.967-0.383c-0.308,0-0.617,0.011-0.925,0.064c-0.032-0.223-0.043-0.447-0.043-0.67
		c0-0.255,0.043-0.521,0.117-0.766c0.245-0.351,0.457-0.723,0.649-1.095l0.021-0.032v-0.053c0.085-0.149,0.138-0.319,0.138-0.5
		c0-0.213-0.074-0.404-0.213-0.564l-0.766-0.915l-0.287-0.319l-0.138-0.17c-0.425-0.5-0.861-1.021-1.361-1.499l-0.17-0.16
		l-0.234-0.043c-0.404-0.064-0.798,0.117-1.01,0.468l-0.021,0.032l-0.021,0.032c-0.404,0.861-0.861,1.765-1.361,2.69
		c-0.404,0.755-0.872,1.478-1.404,2.159c0.053-0.266,0.085-0.532,0.096-0.798l0,0c0.064-1.212-0.627-2.329-1.733-2.829
		c-1.34-0.479-2.999-0.276-4.594,0.553c-1.063,0.574-1.989,1.393-2.69,2.382l0,0v-0.234c0-0.936-0.542-1.776-1.372-2.191
		c-0.617-0.287-1.319-0.351-1.989-0.202h-0.064l-0.064,0.021c-0.596,0.255-1.17,0.564-1.712,0.915l-0.043,0.021l-0.351-0.415
		c-0.702-0.585-1.68-0.723-2.52-0.362c-1.053,0.436-2.063,0.968-3.009,1.595c0.436-0.51,0.691-1.148,0.723-1.808v-0.17
		c0-0.436-0.074-0.872-0.255-1.276c-0.489-1.053-1.563-1.712-2.722-1.659c-1.127,0.032-2.137,0.712-2.595,1.744
		c-0.191,0.393-0.287,0.819-0.276,1.255c0,0.532,0.128,1.053,0.383,1.51l-0.596,0.308l-0.021,0.032l-0.053,0.053
		c-0.425,0.16-0.712,0.564-0.734,1.01v0.096l0.191,0.723c-0.415-1.127-1.372-1.967-2.542-2.223h-0.064
		c-2.722-0.308-5.051,0.734-7.199,1.808l-0.085,0.053l-0.245,0.128c-0.202,0.085-0.383,0.191-0.553,0.33
		c-0.213-0.362-0.5-0.681-0.851-0.925c-0.957-0.766-2.254-0.766-3.286-0.649c-3.807,0.415-6.285,3.786-7.497,7.04
		c0.585-3.095,1.329-6.285,2.244-9.698l-0.021,0.074l0.17-0.564c0-0.064,0.043-0.117,0.053-0.181
		c0.096,0.032,0.202,0.064,0.298,0.106l0.117,0.053c0.372,0.255,0.861,0.266,1.255,0.043l0.149-0.096l1.319-2.254l1.117-1.925l0,0
		l0.053-0.319l-0.032,0.149l0.032-0.16v-0.255c-0.085-0.34-0.34-0.606-0.681-0.691l0.074,0.021l-0.138-0.053
		c-1.17-0.489-2.414-0.766-3.679-0.808L44.018,19.361z M27.567,26.975L27.567,26.975z M65.457,28.507L65.457,28.507
		c0,0,0.043,0.064,0.064,0.085L65.457,28.507z M64.149,30.665v0.053C64.149,30.719,64.149,30.687,64.149,30.665z M69.391,31.92
		l0.021-0.096c0,0,0.053-0.202,0.106-0.383l0.234,0.691l0.053,0.085c0,0,0.053,0.043,0.085,0.074s-0.053,0.17-0.074,0.245
		l-0.691,0.383l0.276-1L69.391,31.92z M53.313,33.76l0.096-0.351c0.053,0.17,0.106,0.351,0.17,0.521
		c0.032,0.074,0.074,0.149,0.128,0.223v0.053c-0.245,0.723-0.596,1.414-1.042,2.042c0.043-0.138,0.064-0.276,0.096-0.425
		l0.234-0.936L53.313,33.76z M91.914,34.94L91.914,34.94z M96.476,35.855c0,0,0,0.043,0,0.064c0,0.011,0,0.021,0,0.043
		c-0.138,0.362-0.404,0.649-0.744,0.829c0.202-0.276,0.372-0.574,0.521-0.883C96.328,35.887,96.402,35.865,96.476,35.855
		C96.476,35.855,96.476,35.855,96.476,35.855z M71.731,39.258l0.893-0.34l0.138-0.043c0.447-0.085,0.829-0.393,0.989-0.819
		c0,0,0.085-0.276,0.191-0.649c0,0.053,0,0.096,0.032,0.149c0.319,0.957,1.138,1.67,2.137,1.84h0.053
		c1.425,0.138,2.488-0.574,3.424-1.202l0.319-0.202c0.457,0.585,1.106,1,1.829,1.18c-2.765,0.106-5.466,0.276-7.997,0.468
		c-1.361,0.085-2.69,0.213-4.03,0.34l2.031-0.712L71.731,39.258z M87.756,38.056c0.245,0.202,0.51,0.383,0.798,0.521
		c0.117,0.053,0.245,0.074,0.383,0.106c-1.17,0.138-2.361,0.234-3.552,0.319c0.829-0.223,1.627-0.542,2.371-0.968l0,0V38.056z"/>
	<path fill="#FFFFFF" d="M69.179,29.262c0.032,0.893-0.383,1.627-0.51,2.446c-0.266,0.883-0.468,1.776-0.712,2.648
		c0.021,0.021,0.032,0.032,0.032,0.053c0.829-0.425,1.627-0.925,2.446-1.372c0.128-0.351,0.223-0.702,0.298-1.063
		c-0.128,0-0.234-0.074-0.298-0.181c-0.223-0.649-0.447-1.308-0.681-1.957c-0.085-0.181,0.085-0.319,0.223-0.415
		c1.042-0.712,2.159-1.319,3.339-1.808c0.596-0.245,1.276-0.138,1.765,0.276c0.128,0.096,0.17,0.287,0.298,0.383
		c0.053,0.138,0.085,0.287,0.117,0.425c0.011,0.032,0.053,0.053,0.085,0.043l0,0c0.734-0.479,1.51-0.915,2.308-1.276
		c0.5-0.117,1.021-0.074,1.499,0.138c0.638,0.308,1.032,0.978,0.968,1.68c-0.138,0.734-0.319,1.457-0.553,2.169
		c-0.234,0.883-0.5,1.723-0.702,2.616h0.032c0.34-0.138,0.659-0.298,0.978-0.479c0.447-2.361,1.723-4.69,4.03-5.923
		c1.148-0.596,2.659-1,3.956-0.532c0.808,0.383,1.308,1.212,1.255,2.106c-0.085,2.531-2.69,3.839-4.434,5.168
		c-0.266,0.223-0.542,0.383-0.808,0.585c-0.032,0.085,0.085,0.096,0.128,0.117c1-0.043,1.829-0.521,2.637-1.063
		c2.169-1.468,3.956-3.445,5.179-5.764c0.489-0.893,0.946-1.808,1.382-2.712c0.053-0.085,0.149-0.128,0.245-0.117
		c0.521,0.51,1,1.053,1.468,1.627c0.383,0.415,0.734,0.787,1.063,1.223c0.096,0.117-0.032,0.223-0.064,0.33
		c-0.191,0.393-0.415,0.787-0.659,1.148c-0.191,0.67-0.223,1.372-0.085,2.052c0.074,0.149,0.085,0.33,0.17,0.479
		c0.479-0.117,0.978-0.181,1.478-0.181c0.574,0,1.148,0.106,1.68,0.33c0.904,0.447,1.553,1.287,1.776,2.265
		c0.585,2.031-0.415,3.977-1.978,5.168c-2.478,1.818-5.413,2.531-8.454,3.009c-1.882,0.255-3.775,0.415-5.679,0.468
		c-3.977,0.106-7.859,0.436-11.772,0.766c-0.51,0.053-1.01,0.138-1.51,0.17c-7.657,0.766-15.239,2.01-22.183,4.679
		c-2.414,0.915-4.7,2.127-6.806,3.626c-0.096,0.032-0.191,0.032-0.287,0c-7.167-2.35-15.143-3.073-23.044-3.073
		c-0.096-0.053-0.213-0.085-0.213-0.213c0.021-0.106,0.096-0.181,0.202-0.213c8.135-2.074,16.419-3.701,24.873-5.041
		c1.925-0.33,3.839-0.617,5.764-0.915c4.222-0.617,8.454-1.191,12.729-1.659c3.903-0.425,7.784-0.84,11.687-1.106
		c3.541-0.266,6.987-0.5,10.581-0.564c3.913-0.266,7.954-0.51,11.347-2.159c0.617-0.351,1.351-0.829,1.499-1.574
		c0.085-0.362-0.074-0.744-0.383-0.946c-0.383-0.074-0.766-0.021-1.117,0.149c-0.255,0.659-0.659,1.244-1.191,1.701
		c-1.499,1.212-3.818,1.691-5.657,0.904c-0.383-0.202-0.723-0.468-1.032-0.766c-1.563,0.989-3.382,1.478-5.232,1.425
		c-1.042,0-1.978-0.596-2.414-1.531c-0.032,0-0.053-0.053-0.064-0.064c-1.255,0.691-2.34,1.84-3.903,1.691
		c-0.712-0.128-1.308-0.638-1.531-1.329c-0.468-1.531,0.298-2.967,0.596-4.392c0.053-0.202,0.117-0.415,0.17-0.627v-0.032
		c-0.33,0.181-0.659,0.383-0.978,0.585c-0.468,1.659-0.915,3.328-1.414,4.956c-0.096,0.298-0.447,0.298-0.702,0.383
		c-1.191,0.447-2.35,0.915-3.573,1.308c-0.085,0-0.16-0.064-0.202-0.138c0.053-0.404,0.149-0.798,0.298-1.18
		c0.053-0.17,0.096-0.308,0.149-0.479h-0.074c-1.095,0.606-1.978,1.776-3.318,1.84c-0.245,0.021-0.489,0-0.734-0.032
		c-0.574-0.128-1.074-0.479-1.393-0.978c-0.021-0.021-0.064-0.021-0.085,0c-1.148,0.893-2.52,2.084-4.083,1.404
		c-0.691-0.276-1.202-0.851-1.393-1.574c-0.128-0.447-0.128-0.925,0-1.382c0.362-1.691,1.074-3.233,1.51-4.881
		c-0.096-0.064-0.234,0-0.33,0.064c-0.213,0.649-0.383,1.308-0.585,1.957c-0.798,2.435-2.159,4.998-4.583,6.295
		c-1.414,0.734-2.978,1.106-4.562,1.106c-0.787-0.032-1.499-0.447-1.925-1.106c-0.181,0.064-0.298,0.245-0.468,0.351
		c-1.148,0.861-2.69,1.744-4.115,0.957c-0.202-0.138-0.351-0.319-0.51-0.447c-1.531,0.851-3.307,2.467-5.158,1.191
		c-1.148-0.84-1.659-2.308-1.297-3.679c0.096-0.723,0.266-1.425,0.33-2.137c-0.734,1.446-1.414,2.924-2.063,4.403
		c-1.085,0.819-2.095,1.712-3.041,2.69c-0.085,0.053-0.202,0.053-0.287,0c-0.149-0.149-0.096-0.383-0.117-0.585
		c-0.085-1.372-0.181-2.69-0.33-4.073c0.032-0.085,0.032-0.181,0-0.266c-0.043-0.691-0.064-1.393-0.17-2.074
		c0.074-0.053,0-0.117,0-0.17c-0.032-0.149,0-0.33-0.032-0.479c-0.149,0.17-0.149,0.457-0.234,0.691
		c-0.404,1.787-0.936,3.541-1.606,5.243c-1.202,2.393-3.701,3.86-6.38,3.733c-1.223-0.043-2.435-0.16-3.637-0.351
		c-0.085,0-0.16-0.074-0.181-0.17C18.22,45.16,18.241,45.064,18.316,45c1.297-2.191,2.573-4.413,3.839-6.625
		c0.234-0.245,0.532,0,0.808-0.032c0.681,0.032,1.297,0.128,2.01,0.096c0.383-0.415,0.5-0.978,0.681-1.51
		c0.276-1.042,0.564-2.074,0.84-3.095c0,0-0.032-0.032-0.053-0.032c-0.829,0.925-1.563,1.925-2.393,2.818
		c-0.085,0.074-0.202,0.074-0.287,0c-0.202-0.213-0.213-0.542-0.415-0.766c-0.564-1.212-0.989-2.478-1.276-3.775
		c-0.085-0.064,0-0.213-0.085-0.266c-0.298-2.648,1.212-4.775,2.69-6.763c0.893-1.191,2.127-2.403,3.669-2.563
		c0.681-0.128,1.372-0.181,2.063-0.149c0.766-0.659,1.606-1.404,2.403-2.116c0.096,0,0.223,0,0.266,0.085
		c0.043,0.085,0.053,0.298,0.085,0.447c0.181,1.51,0.266,2.967,0.479,4.456c-0.043,0.117,0.053,0.234,0,0.362
		c0.17,1.425,0.266,2.733,0.425,4.179c0.085,0.617,0.117,1.34,0.202,1.935c0,0,0.032-0.021,0.053-0.021
		c1.627-3.073,3.158-6.178,5.009-9.145c1.042-1.712,2.871-2.233,4.679-2.446c1.297,0,2.403,0.383,3.531,0.798
		c0.074,0.021,0.117,0.074,0.138,0.149v0.17c-0.766,1.308-1.499,2.616-2.276,3.913c-0.234,0.149-0.447-0.074-0.659-0.149
		c-0.33-0.16-0.691-0.255-1.063-0.266c-0.202,0.425-0.351,0.861-0.468,1.308c-1.085,3.945-1.967,7.933-2.659,11.963
		c0,0.053-0.032,0.276,0.096,0.17c0.436-0.138,0.851-0.33,1.276-0.51c0.883-3.477,3.35-7.582,7.316-8.071
		c0.925-0.096,2.031-0.117,2.754,0.5c0.702,0.489,1.085,1.319,0.978,2.169c-0.234,0.84-0.5,1.67-0.734,2.499
		c-0.245,1.032-0.553,2.042-0.734,3.095c0.021,0.011,0.032,0.032,0.053,0.053c1.574-0.383,2.308-2.084,2.818-3.414
		c0.064-0.213,0.128-0.447,0.213-0.659c-0.085-0.053-0.276,0.032-0.33-0.117c-0.181-0.532-0.33-1.085-0.447-1.638
		c-0.085-0.287-0.16-0.585-0.213-0.883c0.202-0.33,0.596-0.383,0.915-0.596c2.063-1.042,4.264-2.02,6.774-1.744
		c1.042,0.223,1.861,1.021,2.106,2.052c0.085,0.362,0.106,0.723,0.064,1.085c-0.255,1.202-0.617,2.371-1.095,3.499l0.032,0.032
		c0.5-0.351,1.063-0.627,1.574-0.978c0.33-1.148,0.649-2.308,0.925-3.456c0.074-0.17-0.053-0.276-0.085-0.425
		c-0.096-0.383-0.213-0.744-0.319-1.148c0-0.287,0.33-0.319,0.51-0.468c0.415-0.245,0.851-0.415,1.287-0.627
		c0-0.117-0.17-0.181-0.234-0.298c-0.564-0.691-0.691-1.638-0.319-2.446c0.34-0.755,1.085-1.255,1.925-1.287
		c0.872-0.053,1.701,0.436,2.063,1.244c0.138,0.34,0.202,0.712,0.181,1.074c-0.043,0.755-0.436,1.436-1.063,1.861
		c0.149,0.223,0.245,0.468,0.287,0.734L69.179,29.262z M28.227,27.156c-0.51,0.181-0.968,0.5-1.329,0.915
		c-0.223,0.351-0.617,0.649-0.596,1.095c0.17,0.51,0.425,0.989,0.766,1.414c0.032,0.117,0.17,0.213,0.213,0.276
		c0.319-1.148,0.596-2.308,0.915-3.477c0.032-0.053,0.011-0.149,0.032-0.213L28.227,27.156z M48.58,33.25
		c-1.297,0.447-1.989,1.84-2.308,3.052c-0.106,0.362-0.16,0.734-0.149,1.106c0.564-0.372,1.095-0.798,1.595-1.255
		c0.149-0.51,0.287-1.01,0.468-1.51c0.096-0.415,0.266-0.829,0.383-1.255c0-0.043,0.011-0.085,0-0.138l0,0H48.58z M92.34,33.505
		c-0.33,0.287-0.585,0.596-0.925,0.893c-0.011,0.011-0.021,0.032-0.021,0.053c0.128,0.202,0.351,0.319,0.585,0.298
		c0.149,0,0.319,0,0.383-0.149C92.435,34.238,92.435,33.866,92.34,33.505z"/>
	<path stroke="#FFFFFF" stroke-width="0.09" d="M69.179,29.251c0.032,0.893-0.383,1.616-0.51,2.446
		c-0.266,0.872-0.468,1.776-0.712,2.648c0.021,0.011,0.032,0.032,0.032,0.053c0.829-0.425,1.627-0.925,2.446-1.372
		c0.128-0.34,0.223-0.702,0.298-1.063c-0.128,0-0.234-0.074-0.298-0.181c-0.223-0.649-0.447-1.308-0.681-1.957
		c-0.085-0.181,0.085-0.308,0.223-0.415c1.042-0.712,2.159-1.319,3.339-1.808c0.596-0.245,1.276-0.128,1.765,0.287
		c0.128,0.096,0.17,0.276,0.298,0.383c0.053,0.138,0.085,0.287,0.117,0.425c0,0.032,0.043,0.053,0.085,0.043c0,0,0.011,0,0.021,0
		c0.734-0.479,1.51-0.904,2.308-1.276c0.5-0.128,1.021-0.074,1.499,0.128c0.638,0.308,1.021,0.978,0.968,1.68
		c-0.138,0.734-0.319,1.457-0.553,2.169c-0.234,0.872-0.5,1.723-0.702,2.616h0.032c0.34-0.138,0.659-0.298,0.978-0.479
		c0.447-2.361,1.723-4.69,4.03-5.923c1.148-0.596,2.659-0.989,3.956-0.521c0.808,0.383,1.308,1.212,1.255,2.106
		c-0.085,2.531-2.69,3.839-4.434,5.168c-0.266,0.213-0.542,0.383-0.808,0.585c-0.032,0.085,0.085,0.096,0.128,0.117
		c1-0.053,1.829-0.532,2.637-1.063c2.169-1.468,3.956-3.445,5.179-5.764c0.489-0.893,0.946-1.808,1.382-2.712
		c0.053-0.085,0.149-0.138,0.245-0.117c0.532,0.51,1,1.074,1.468,1.627c0.383,0.415,0.734,0.798,1.063,1.223
		c0.096,0.117-0.032,0.213-0.064,0.33c-0.191,0.404-0.415,0.787-0.659,1.148c-0.191,0.67-0.223,1.372-0.085,2.052
		c0.074,0.149,0.085,0.33,0.17,0.479c0.479-0.128,0.978-0.181,1.478-0.181c0.574-0.011,1.148,0.096,1.68,0.33
		c0.904,0.447,1.553,1.287,1.776,2.265c0.585,2.031-0.415,3.977-1.978,5.168c-2.478,1.829-5.413,2.531-8.454,3.02
		c-1.882,0.255-3.775,0.404-5.679,0.468c-3.977,0.117-7.859,0.436-11.772,0.766c-0.51,0.053-1.01,0.128-1.51,0.17
		c-7.657,0.766-15.239,2.01-22.183,4.668c-2.414,0.915-4.7,2.137-6.806,3.626c-0.096,0.021-0.191,0.021-0.287,0
		c-7.167-2.35-15.143-3.073-23.044-3.073c-0.096-0.053-0.213-0.085-0.213-0.213c0.021-0.106,0.096-0.181,0.202-0.213
		c8.135-2.074,16.419-3.69,24.873-5.051c1.925-0.33,3.839-0.606,5.764-0.915c4.222-0.606,8.454-1.191,12.729-1.659
		c3.903-0.425,7.784-0.84,11.687-1.106c3.541-0.266,6.987-0.5,10.581-0.564c3.913-0.266,7.954-0.51,11.347-2.148
		c0.617-0.351,1.351-0.829,1.499-1.574c0.085-0.362-0.074-0.744-0.383-0.946c-0.383-0.074-0.766-0.021-1.117,0.149
		c-0.255,0.659-0.659,1.244-1.191,1.701c-1.499,1.212-3.818,1.691-5.657,0.893c-0.383-0.191-0.723-0.447-1.032-0.744
		c-1.563,0.989-3.382,1.478-5.232,1.425c-1.032,0-1.978-0.596-2.414-1.531c-0.021-0.021-0.043-0.043-0.064-0.074
		c-1.255,0.702-2.34,1.84-3.903,1.691c-0.712-0.128-1.308-0.638-1.531-1.329c-0.468-1.531,0.298-2.967,0.596-4.392
		c0.053-0.202,0.117-0.415,0.17-0.627v-0.032c-0.33,0.181-0.659,0.383-0.978,0.585c-0.468,1.659-0.915,3.328-1.414,4.956
		c-0.096,0.298-0.447,0.298-0.702,0.383c-1.191,0.447-2.35,0.915-3.573,1.308c-0.085-0.011-0.16-0.064-0.202-0.138
		c0.053-0.404,0.149-0.798,0.298-1.18c0.053-0.17,0.096-0.319,0.149-0.479H69.03c-1.095,0.617-1.978,1.776-3.318,1.84
		c-0.245,0.021-0.489,0.011-0.734-0.032c-0.574-0.128-1.074-0.479-1.393-0.978c-0.021-0.011-0.053-0.011-0.085,0
		c-1.148,0.893-2.52,2.084-4.084,1.414c-0.691-0.276-1.202-0.861-1.393-1.574c-0.128-0.447-0.128-0.925,0-1.372
		c0.362-1.691,1.074-3.233,1.51-4.881c-0.096-0.064-0.234,0-0.33,0.064c-0.213,0.649-0.383,1.308-0.585,1.957
		c-0.84,2.425-2.201,4.977-4.626,6.263c-1.414,0.734-2.978,1.117-4.562,1.106c-0.787-0.032-1.499-0.447-1.925-1.106
		c-0.181,0.064-0.298,0.245-0.468,0.351c-1.148,0.861-2.69,1.744-4.115,0.968c-0.202-0.138-0.351-0.319-0.51-0.447
		c-1.531,0.84-3.307,2.467-5.158,1.191c-1.148-0.84-1.659-2.308-1.297-3.679c0.096-0.734,0.266-1.425,0.33-2.137
		c-0.702,1.457-1.382,2.935-2.031,4.403c-1.085,0.808-2.095,1.701-3.041,2.669c-0.096,0.053-0.181,0.085-0.287,0
		c-0.149-0.149-0.096-0.383-0.117-0.585c-0.085-1.372-0.181-2.69-0.33-4.073c0.032-0.085,0.032-0.181,0-0.266
		c-0.043-0.691-0.064-1.393-0.17-2.063c0.074-0.053,0-0.117,0-0.17c-0.032-0.149,0-0.33-0.032-0.479
		c-0.149,0.17-0.149,0.468-0.234,0.691c-0.404,1.797-0.936,3.552-1.606,5.275c-1.202,2.403-3.701,3.86-6.38,3.733
		c-1.223-0.043-2.435-0.16-3.637-0.351c-0.085,0-0.16-0.074-0.181-0.17c-0.021-0.096,0.011-0.191,0.085-0.266
		c1.297-2.191,2.573-4.403,3.839-6.625c0.234-0.245,0.532,0,0.808-0.032c0.67,0.064,1.34,0.106,2.01,0.096
		c0.383-0.415,0.5-0.978,0.681-1.51c0.276-1.042,0.564-2.074,0.84-3.095c0,0-0.032-0.032-0.053-0.032
		c-0.829,0.925-1.563,1.925-2.393,2.818c-0.085,0.064-0.202,0.064-0.287,0c-0.202-0.213-0.213-0.553-0.415-0.766
		c-0.564-1.212-0.989-2.478-1.276-3.775c-0.085-0.064,0-0.213-0.085-0.266c-0.298-2.648,1.212-4.775,2.69-6.763
		c0.893-1.191,2.127-2.403,3.669-2.563c0.681-0.138,1.372-0.181,2.063-0.149c0.766-0.659,1.606-1.414,2.403-2.116
		c0.096,0,0.223,0,0.266,0.085c0.043,0.085,0.053,0.298,0.085,0.447c0.181,1.51,0.266,2.967,0.479,4.456
		c-0.043,0.117,0.053,0.234,0,0.362c0.17,1.425,0.266,2.733,0.425,4.179c0.085,0.606,0.117,1.34,0.202,1.925
		c0,0.021,0.032,0,0.053,0c1.627-3.073,3.158-6.178,5.009-9.145c1.042-1.701,2.871-2.223,4.679-2.446
		c1.297,0,2.403,0.383,3.531,0.798c0.064,0.021,0.117,0.074,0.138,0.149v0.17c-0.766,1.308-1.499,2.616-2.276,3.913
		c-0.234,0.149-0.447-0.064-0.659-0.149c-0.33-0.16-0.691-0.255-1.063-0.266c-0.202,0.415-0.351,0.861-0.468,1.308
		c-1.085,3.945-1.967,7.933-2.659,11.963c0,0.053-0.032,0.276,0.096,0.17c0.436-0.149,0.861-0.319,1.276-0.51
		c0.883-3.477,3.35-7.593,7.316-8.071c0.925-0.096,2.031-0.117,2.754,0.5c0.702,0.489,1.085,1.319,0.978,2.169
		c-0.234,0.84-0.5,1.67-0.734,2.499c-0.245,1.021-0.553,2.042-0.734,3.095l0.053,0.043c1.574-0.383,2.308-2.084,2.818-3.414
		c0.064-0.213,0.128-0.447,0.213-0.659c-0.085-0.053-0.276,0.032-0.33-0.117c-0.181-0.542-0.33-1.085-0.447-1.638
		c-0.085-0.287-0.16-0.585-0.213-0.872c0.202-0.33,0.596-0.383,0.915-0.596c2.063-1.042,4.264-2.02,6.774-1.744
		c1.042,0.223,1.861,1.021,2.106,2.052c0.085,0.362,0.106,0.734,0.064,1.095c-0.255,1.202-0.617,2.371-1.095,3.499l0.032,0.032
		c0.5-0.351,1.063-0.627,1.574-0.978c0.33-1.148,0.649-2.308,0.925-3.456c0.074-0.17-0.053-0.287-0.085-0.425
		c-0.096-0.383-0.213-0.744-0.319-1.148c0-0.276,0.33-0.308,0.51-0.457c0.415-0.245,0.851-0.415,1.287-0.627
		c0-0.117-0.17-0.181-0.234-0.298c-0.564-0.691-0.691-1.638-0.319-2.446c0.34-0.766,1.085-1.265,1.925-1.297
		c0.883-0.053,1.701,0.447,2.063,1.244c0.138,0.34,0.202,0.712,0.181,1.074c-0.043,0.755-0.436,1.436-1.063,1.85
		c0.149,0.223,0.245,0.468,0.287,0.734L69.179,29.251z M28.227,27.146c-0.51,0.181-0.968,0.5-1.329,0.915
		c-0.223,0.351-0.617,0.649-0.596,1.095c0.17,0.51,0.425,0.989,0.766,1.404c0.032,0.117,0.17,0.213,0.213,0.287
		c0.319-1.148,0.596-2.308,0.915-3.477c0.032-0.053,0.011-0.149,0.032-0.213L28.227,27.146z M48.58,33.239
		c-1.297,0.447-1.989,1.84-2.308,3.052c-0.106,0.362-0.16,0.734-0.149,1.106c0.564-0.372,1.095-0.787,1.595-1.255
		c0.149-0.51,0.287-1.01,0.468-1.51c0.096-0.415,0.266-0.829,0.383-1.255c0-0.043,0.011-0.085,0-0.128l0,0L48.58,33.239z
		 M92.34,33.505c-0.33,0.276-0.585,0.596-0.925,0.893c-0.011,0.011-0.021,0.032-0.021,0.053c0.128,0.202,0.351,0.319,0.585,0.298
		c0.149,0,0.319,0,0.383-0.149C92.435,34.238,92.435,33.866,92.34,33.505z"/>
	<path fill="#FFFFFF" stroke="#FFFFFF" stroke-width="0.09" d="M71.199,31.654c-0.021-0.064-0.021-0.138-0.085-0.181
		c-0.128,0-0.255,0.043-0.362,0.096c-0.245-0.542-0.383-1.148-0.627-1.691c-0.032-0.043-0.032-0.106,0-0.149
		c1.053-0.712,2.169-1.329,3.339-1.829c0.521-0.181,1.095-0.032,1.457,0.383c0.17,0.287,0.245,0.617,0.213,0.946
		c0.053,0.064,0.149,0.085,0.213,0.032c0.84-0.447,1.68-1,2.542-1.425c0.553-0.213,1.17-0.106,1.627,0.276
		c0.362,0.308,0.542,0.787,0.468,1.255c-0.266,1.032-0.564,2.02-0.819,3.052c-0.032,0-0.032,0.053-0.053,0.085
		c-0.181,0.659-0.351,1.329-0.51,1.989c0.17,0.266,0.436-0.053,0.649-0.096c0.383-0.17,0.766-0.383,1.148-0.564
		c0.096-0.053,0.032-0.17,0.085-0.245c0.383-1.989,1.276-3.945,3.073-5.168c1.053-0.798,2.35-1.202,3.669-1.148
		c0.659,0.032,1.244,0.404,1.563,0.978c0.532,1.212-0.096,2.499-0.925,3.392c-1.297,1.223-2.754,2.116-4.147,3.126
		c-0.074,0.074-0.096,0.191-0.053,0.287c0.085,0.16,0.223,0.276,0.383,0.351c1.095,0.064,1.978-0.447,2.839-0.978
		c1.148-0.798,2.212-1.701,3.169-2.712c1.531-1.723,2.595-3.764,3.552-5.817c0.138,0,0.223,0.213,0.33,0.298
		c0.596,0.702,1.276,1.457,1.872,2.169c-0.181,0.532-0.649,0.946-0.766,1.489c-0.202,0.84-0.149,1.712,0.138,2.52
		c0.032,0.117,0.032,0.266,0.17,0.33c1.297-0.5,2.967-0.383,3.988,0.617c0.915,0.946,1.095,2.446,0.766,3.764
		c-0.883,2.531-3.616,3.743-5.913,4.488c-3.435,1.063-7.167,1.372-10.921,1.436c-3.233,0.17-6.572,0.383-9.741,0.691
		c-8.56,0.808-17.004,1.957-24.703,4.902c-2.425,0.925-4.732,2.148-6.859,3.648c-6.891-2.169-14.43-3.073-22.066-3.073
		c0-0.032-0.032,0-0.032-0.032c8.188-2.02,16.6-3.541,25.065-4.956c3.637-0.585,7.295-1.127,11.006-1.595
		c1.457-0.202,2.935-0.383,4.381-0.564c2.988-0.383,6.083-0.596,9.06-0.957c1.925-0.149,3.913-0.319,5.891-0.447
		c1.84-0.149,3.786-0.245,5.647-0.33c4.583-0.191,9.22-0.266,13.399-1.638c1.191-0.425,2.573-0.978,3.18-2.201
		c0.17-0.447,0.117-0.946-0.128-1.361c-0.085-0.053-0.128-0.17-0.245-0.181c-0.51-0.33-1.148-0.074-1.638,0.128
		c-0.149,0.138-0.149,0.351-0.245,0.51c-0.915,1.808-3.009,2.488-4.998,2.35c-0.861-0.074-1.648-0.489-2.191-1.148
		c-0.053-0.043-0.117-0.064-0.181-0.053c-1.319,0.766-2.712,1.425-4.317,1.489c-0.585,0.064-1.18,0.021-1.744-0.149
		c-0.649-0.234-1.148-0.776-1.34-1.436c-0.053-0.053-0.085-0.138-0.17-0.149c-1.095,0.596-2.042,1.478-3.254,1.829
		c-0.649,0.16-1.34-0.074-1.744-0.617c-0.596-0.893-0.319-2.074-0.064-3.031s0.51-1.893,0.766-2.818c0-0.064,0-0.17-0.096-0.181
		c-0.096-0.011-0.085,0-0.138,0c-0.51,0.33-1.042,0.627-1.563,0.957c-0.51,1.67-0.957,3.382-1.457,5.051
		c-0.128,0.138-0.33,0.117-0.479,0.213c-1.074,0.383-2.148,0.766-3.201,1.18c-0.074-0.096,0.053-0.181,0.053-0.276
		c0.149-0.585,0.383-1.127,0.5-1.723c-0.043-0.064-0.128-0.128-0.213-0.064c-0.968,0.659-1.872,1.372-2.85,1.978
		c-0.723,0.362-1.584,0.308-2.254-0.138c-0.234-0.213-0.425-0.479-0.564-0.766c-0.043-0.053-0.117-0.064-0.181-0.032
		c-1.063,0.766-2.031,1.818-3.424,1.744c-0.723-0.096-1.351-0.542-1.691-1.191c-0.436-1.063,0.117-2.159,0.362-3.148
		c0.032-0.096,0.064-0.202,0.085-0.298c0.128-0.266,0.223-0.542,0.287-0.829c0.266-0.712,0.51-1.425,0.712-2.148
		c0-0.117-0.064-0.202-0.064-0.298c-0.074-0.085-0.181-0.138-0.298-0.149c-0.245,0.064-0.564,0.053-0.712,0.298
		c-0.798,3.243-2.159,6.912-5.53,8.38c-1.074,0.457-2.201,0.734-3.36,0.819c-0.893,0.032-1.776-0.298-2.137-1.106
		c-0.021-0.064-0.064-0.128-0.117-0.17h-0.117c-1.01,0.829-2.042,1.701-3.382,1.787c-0.617,0.021-1.191-0.287-1.51-0.808
		c-0.276-0.149-0.479,0.213-0.734,0.298c-0.957,0.553-1.84,1.276-2.988,1.393c-0.936,0.032-1.808-0.457-2.276-1.255
		c-0.51-0.84-0.479-1.925-0.245-2.903c0.213-1.212,0.436-2.425,0.649-3.626c0-0.043-0.032-0.074-0.064-0.096
		c-0.117-0.032-0.213,0.085-0.245,0.17c-0.946,2.01-1.893,3.988-2.786,5.998c-0.989,0.712-1.904,1.51-2.754,2.382
		c-0.032-0.223-0.043-0.447-0.043-0.67c-0.234-2.712-0.415-5.338-0.638-8.039c-0.032-0.043-0.064-0.128-0.128-0.149
		c-0.085,0-0.149,0.064-0.17,0.149c-0.564,2.308-1.074,4.605-1.861,6.848c-0.691,1.67-2.031,2.988-3.711,3.648
		c-1.223,0.596-2.722,0.383-4.147,0.319c-0.585-0.085-1.212-0.117-1.797-0.234c1.244-2.159,2.478-4.349,3.764-6.476
		c0.861,0.117,1.723,0.17,2.584,0.149c0.383-0.074,0.5-0.5,0.659-0.798c0.468-1.34,0.766-2.765,1.18-4.137
		c0.074-0.383,0.181-0.702,0.245-1.042c0-0.043-0.032-0.085-0.064-0.117c-0.181-0.032-0.298,0.181-0.383,0.298
		c-0.883,1.095-1.829,2.137-2.69,3.201c-0.128-0.245-0.276-0.51-0.383-0.798c-0.542-1.212-0.968-2.478-1.244-3.775
		c-0.17-1.776,0.649-3.382,1.531-4.828c1.095-1.531,2.254-3.456,4.222-3.924c0.798-0.17,1.616-0.234,2.435-0.181
		c0.766-0.617,1.499-1.34,2.244-1.978c0.117,0.053,0.021,0.17,0.074,0.245c0.117,1.042,0.181,2.01,0.319,3.052
		c0.053,0.213,0,0.415,0.064,0.606c0.181,2.01,0.383,4.062,0.617,6.083c0.053,0.447,0.085,0.957,0.149,1.393
		c0.053,0.191-0.053,0.447,0.138,0.564c0.17,0,0.213-0.181,0.276-0.276c1.68-3.265,3.307-6.583,5.285-9.751
		c0.766-1.244,2.159-1.776,3.488-2.074c1.329-0.298,2.542,0.085,3.669,0.447c0.117,0.085,0.287,0.085,0.383,0.181
		c-0.712,1.191-1.382,2.403-2.095,3.594c-0.532-0.276-1.117-0.425-1.712-0.425c-0.074,0.021-0.138,0.074-0.17,0.149
		c-1.117,3.435-1.861,7.008-2.605,10.581c-0.181,1.106-0.404,2.233-0.51,3.414c0.085,0.128,0.276,0.053,0.415,0.032
		c0.564-0.149,1.106-0.362,1.627-0.627c0.128-0.213,0.213-0.447,0.245-0.691c0.617-2.01,1.563-3.977,3.137-5.487
		c0.553-0.5,1.18-0.915,1.861-1.223c0.915-0.415,1.904-0.627,2.903-0.627c0.808,0.021,1.563,0.425,2.031,1.095
		c0.096,0.17,0.17,0.351,0.213,0.542c0.096,0.447,0.043,0.925-0.149,1.34c-0.532,1.723-0.978,3.477-1.329,5.253
		c0,0.117,0.096,0.138,0.181,0.17c0.457-0.032,0.904-0.181,1.297-0.425c1.51-1.074,2.01-2.818,2.51-4.424
		c-0.032-0.053,0-0.149-0.096-0.17c-0.202-0.085-0.489,0.383-0.489-0.032c-0.202-0.585-0.298-1.191-0.468-1.776
		c-0.064-0.085-0.085-0.234,0.074-0.234c0.84-0.468,1.701-0.883,2.584-1.244c0.957-0.415,1.978-0.681,3.02-0.798
		c1-0.117,2.106-0.032,2.754,0.744c0.457,0.5,0.702,1.159,0.681,1.84c-0.053,0.032,0,0.085,0,0.128
		c-0.33,1.425-0.787,2.818-1.361,4.158c0.021,0.043,0.032,0.117,0.096,0.128c0.043,0,0.085,0,0.138,0
		c0.766-0.425,1.499-0.893,2.223-1.372c0.213-0.149,0.149-0.415,0.245-0.606c0.085-0.351,0.202-0.702,0.266-1.042
		c0.053-0.128,0.096-0.255,0.117-0.383c0.17-0.617,0.33-1.223,0.468-1.84c-0.053-0.149-0.085-0.319-0.149-0.468
		c-0.064-0.149-0.096-0.351-0.149-0.51c-0.053-0.16-0.117-0.266-0.096-0.415c0.617-0.383,1.276-0.712,1.957-0.978
		c0.032-0.053,0.096-0.096,0.053-0.17c-0.255-0.181-0.489-0.404-0.681-0.649c-0.298-0.436-0.404-0.968-0.319-1.489
		c0.053-0.064,0.021-0.181,0.074-0.245c0.191-0.564,0.627-1.01,1.18-1.223c0.479-0.17,1-0.117,1.425,0.149
		c0.245,0.117,0.457,0.298,0.617,0.532c0.468,0.596,0.383,1.563,0,2.191c-0.234,0.33-0.542,0.596-0.915,0.766
		c-0.17,0.181,0.17,0.276,0.266,0.383c0.085,0.16,0.149,0.34,0.17,0.532c0.021,0.34-0.032,0.681-0.149,1
		c-0.415,1.531-0.798,3.031-1.191,4.551c0.021,0.053,0.064,0.096,0.117,0.117c0.415-0.181,0.808-0.383,1.202-0.606
		c0.627-0.351,1.276-0.712,1.925-1.063c0,0,0.096,0,0.308-0.766l0.213-0.904L71.199,31.654z M28.503,26.699
		c-0.702,0.149-1.34,0.521-1.829,1.042c-0.298,0.415-0.712,0.798-0.744,1.308c0.106,0.542,0.34,1.042,0.681,1.478
		c0.117,0.202,0.245,0.351,0.383,0.542c0.096,0.149,0.213,0.287,0.351,0.415c0.074,0.032,0.117-0.032,0.149-0.064
		c0.33-1.244,0.659-2.488,1-3.711c0.085-0.319,0.149-0.649,0.202-0.978c-0.032-0.053-0.117-0.032-0.181-0.032H28.503z
		 M48.825,32.813c-0.585,0.128-1.127,0.425-1.531,0.861c-0.872,0.946-1.414,2.148-1.531,3.435c0,0.245-0.096,0.596,0.138,0.766
		c0.425-0.032,0.734-0.383,1.095-0.606c0.383-0.298,0.734-0.606,1.074-0.946c0.319-1.127,0.702-2.233,1.01-3.382
		c0.011-0.16-0.149-0.128-0.245-0.128H48.825z M92.435,32.93c-0.489,0.425-0.957,0.872-1.393,1.34c-0.053,0.064,0,0.117,0,0.202
		c0.085,0.287,0.319,0.51,0.606,0.596c0.33,0.085,0.67,0.021,0.946-0.181c0.319-0.542,0.181-1.287,0-1.872
		C92.552,32.994,92.499,32.93,92.435,32.93z"/>
	<path fill="#231815" d="M46.507,21.435c-0.064,0.181-0.149,0.34-0.245,0.5c-0.415,0.734-0.819,1.478-1.276,2.169
		c-0.606-0.223-1.255-0.319-1.893-0.266c-0.542,1.382-0.978,2.807-1.308,4.264c-0.798,3.126-1.457,6.263-2.02,9.475
		c-0.011,0.234-0.053,0.468-0.096,0.691c0.053,0.266-0.085,0.659,0.234,0.808c0.521,0.021,1.042-0.085,1.51-0.298
		c0.425-0.17,0.829-0.383,1.255-0.542c0.085-0.032,0.032-0.128,0.085-0.202c0.766-3.212,2.85-6.987,6.487-7.571
		c0.649-0.064,1.414-0.213,1.978,0.117c0.532,0.223,0.893,0.734,0.925,1.308c0,0.223-0.053,0.447-0.138,0.659
		c-0.553,1.787-1.01,3.605-1.361,5.455c0,0.149-0.053,0.319,0.064,0.425c0.032,0.106,0.106,0.202,0.202,0.266
		c0.957,0.117,1.914-0.234,2.573-0.946c1.425-1.531,1.925-3.456,2.361-5.402l-0.032-0.032c-0.287,0.128-0.585,0.245-0.883,0.33
		c-0.096-0.032-0.032-0.138-0.064-0.202c-0.096-0.298-0.17-0.617-0.245-0.915c0.436-0.266,0.883-0.51,1.34-0.734
		c0.447-0.202,0.915-0.393,1.382-0.542c0.234-0.138,0.5-0.149,0.734-0.266c0.564-0.16,1.138-0.276,1.723-0.362
		c0.925-0.096,1.946,0,2.488,0.766c0.51,0.585,0.415,1.457,0.202,2.159c-0.245,0.766-0.468,1.531-0.766,2.308
		c-0.181,0.532-0.383,1.042-0.564,1.574c-0.032,0.181-0.053,0.425,0.17,0.5c0.351,0.043,0.617-0.181,0.915-0.298
		c0.883-0.479,1.691-1.042,2.563-1.595c0.383-1.372,0.766-2.733,1.074-4.126c-0.096-0.383-0.213-0.744-0.298-1.148
		c0.51-0.287,1.042-0.542,1.595-0.766c0.298-0.096,0.627-0.085,0.915,0.032c0.585,0.468,0.021,1.127-0.032,1.691
		c-0.117,0.351-0.17,0.712-0.298,1.063c-0.17,0.84-0.447,1.638-0.627,2.467c-0.096,0.5-0.351,0.946-0.298,1.436
		c0.021,0.096,0.106,0.16,0.202,0.17c0.468-0.085,0.84-0.415,1.244-0.585c0.968-0.585,1.946-1.074,2.903-1.627
		c0.149-0.362,0.255-0.744,0.351-1.127c0.191-0.617,0.319-1.244,0.383-1.882c-0.298-0.032-0.532,0.234-0.829,0.266
		c-0.074-0.117-0.128-0.245-0.17-0.383c-0.032-0.191-0.17-0.383-0.149-0.585c0.915-0.596,1.882-1.117,2.892-1.531
		c0.33-0.032,0.766-0.064,0.946,0.245c0.074,0.33,0.043,0.681-0.064,1c-0.096,0.266-0.17,0.542-0.223,0.829
		c1.212-0.712,2.425-1.404,3.669-2.084c0.362-0.191,0.787-0.16,1.127,0.064c0.138,0.117,0.255,0.255,0.351,0.415
		c0.117,0.691-0.234,1.276-0.362,1.925c-0.096,0.383-0.213,0.766-0.319,1.148c-0.276,0.978-0.542,1.967-0.798,2.967
		c-0.032,0.17,0.064,0.266,0.117,0.383c0.415,0.149,0.734-0.213,1.095-0.298c0.564-0.266,1.127-0.542,1.691-0.829
		c0.064-0.074,0-0.17,0.053-0.234c0.383-2.01,1.212-3.977,3.041-5.189c0.978-0.712,2.18-1.042,3.392-0.925
		c0.404,0.043,0.755,0.276,0.968,0.627c0.16,0.362,0.213,0.766,0.128,1.148c-0.138,0.532-0.393,1.032-0.744,1.457
		c-0.883,1-2.074,1.723-3.105,2.499c-0.479,0.33-0.978,0.681-1.446,1.032c-0.032,0.223-0.021,0.447,0.053,0.659
		c0.181,0.393,0.564,0.659,1,0.681c0.638-0.021,1.255-0.181,1.829-0.468c0.479-0.202,0.925-0.457,1.34-0.766
		c1.829-1.276,3.616-2.946,4.732-4.87c0.627-0.978,1.106-1.989,1.67-3.02c0,0,0.032,0.032,0.053,0
		c0.436,0.553,0.968,1.074,1.393,1.606c-0.16,0.33-0.351,0.649-0.564,0.957c-0.308,1.117-0.266,2.297,0.117,3.382
		c0.096,0.213,0.096,0.457,0.202,0.681c1.127-0.596,2.786-0.798,3.871,0.074c0.659,0.564,0.861,1.361,0.946,2.201
		c0.043,1.393-0.681,2.52-1.723,3.36c-0.829,0.67-1.755,1.18-2.754,1.531c-4.275,1.733-9.241,1.797-14.111,2.02
		c-2.563,0.138-5.147,0.351-7.678,0.553c-4.349,0.415-8.699,0.925-12.931,1.691c-2.754,0.489-5.487,1.127-8.167,1.925
		c-1.584,0.457-3.137,1.01-4.658,1.659c-1.106,0.468-2.191,0.989-3.243,1.574c-0.883,0.479-1.744,1.042-2.584,1.606
		c-1.84-0.457-3.648-1.021-5.551-1.393c-3.988-0.872-8.061-1.34-12.155-1.372c-0.191,0.021-0.415,0-0.617,0
		c0-0.032,0.032-0.032,0.053-0.053c4.679-1.106,9.401-2.074,14.197-2.935c7.657-1.425,15.473-2.531,23.31-3.477
		c1.531-0.202,3.222-0.319,4.775-0.479c5.572-0.596,11.325-1,17.068-1.212c3.286-0.128,6.689-0.33,9.794-1.074
		c1.755-0.479,3.605-1.01,4.881-2.446c0.17-0.276,0.308-0.574,0.383-0.893c0.053-0.659-0.032-1.372-0.564-1.755
		c-0.766-0.5-1.776-0.181-2.488,0.149c-0.106,0.074-0.074,0.202-0.085,0.287c-0.223,0.649-0.659,1.202-1.234,1.584
		c-1.212,0.798-2.701,1.042-4.105,0.659c-0.617-0.138-1.117-0.564-1.34-1.148c-0.053-0.032-0.032-0.181-0.128-0.128
		c-1.584,1.202-3.531,1.818-5.519,1.765c-0.744,0-1.404-0.457-1.659-1.148c-0.096-0.319-0.149-0.659-0.17-0.989
		c-0.021-0.032-0.032-0.032-0.053-0.053c-0.925,0.681-1.893,1.287-2.871,1.882c-0.489,0.319-1.074,0.457-1.648,0.383
		c-0.5-0.223-0.798-0.734-0.766-1.276c-0.085-0.681,0.181-1.244,0.319-1.872c0.276-1.148,0.617-2.308,0.925-3.477
		c0-0.149,0.053-0.298,0.032-0.415c-0.266-0.149-0.5,0.138-0.734,0.223c-0.734,0.51-1.489,0.872-2.223,1.361
		c-0.351,1.127-0.681,2.265-0.978,3.414c-0.17,0.521-0.319,1.074-0.479,1.606c-0.383,0.17-0.798,0.319-1.191,0.468
		c-0.393,0.149-0.829,0.319-1.276,0.425c0-0.032-0.032,0-0.032-0.032c0.223-0.691,0.415-1.404,0.659-2.106
		c0-0.213,0.149-0.383,0.117-0.596c-1.255,0.957-2.605,1.893-3.903,2.818c-0.564,0.351-1.468,0.596-2.074,0.17
		c-0.479-0.351-0.51-1-0.383-1.531c-0.096-0.064-0.117,0.064-0.181,0.064c-1,0.734-1.925,1.606-3.041,2.137
		c-0.5,0.223-1.074,0.17-1.531-0.117c-0.51-0.33-0.776-0.936-0.681-1.531c0.053-0.766,0.383-1.436,0.585-2.169
		c0.287-1,0.617-1.957,0.968-2.914c0-0.213,0.096-0.425,0-0.617c0-0.234-0.181-0.362-0.351-0.5
		c-0.521-0.117-1.074-0.032-1.531,0.234c-0.074,0.117-0.117,0.245-0.117,0.383c-0.383,1.574-0.946,3.105-1.68,4.551
		c-1.095,2.169-3.18,3.679-5.572,4.041c-0.766,0.181-1.755,0.319-2.435-0.117c-0.479-0.415-0.681-1.063-0.51-1.67
		c0-0.032,0,0.032-0.053,0c-0.883,0.946-1.925,1.723-3.073,2.308c-0.479,0.17-1.148,0.276-1.606,0
		c-0.298-0.223-0.5-0.553-0.585-0.915c-0.085-0.096-0.223,0.053-0.319,0.117c-1.053,0.649-2.042,1.393-3.19,1.808
		c-0.659,0.181-1.372,0-1.861-0.479c-0.542-0.574-0.787-1.361-0.681-2.137c0.415-2.531,0.861-5.051,1.425-7.54
		c-0.032-0.117,0.053-0.213,0.085-0.319c0.096-0.447,0.202-0.915,0.276-1.34c-1.361,2.52-2.584,5.104-3.807,7.678
		c-0.415,0.893-0.829,1.808-1.244,2.69c-0.649,0.457-1.212,0.989-1.84,1.457c-0.085,0-0.053-0.085-0.085-0.117
		c0-0.383-0.053-0.861-0.085-1.276c-0.032-0.415-0.064-0.819-0.096-1.191c-0.096-0.989-0.149-1.925-0.234-2.914
		c-0.096-1.595-0.245-3.148-0.383-4.732c0.085-0.138-0.043-0.245,0-0.383c-0.032-0.096,0.032-0.276-0.032-0.383
		c0-0.213-0.021-0.479-0.032-0.712c-0.138,0.096-0.117,0.33-0.17,0.5c-0.298,1.489-0.659,2.946-1,4.403
		c-0.245,1.095-0.532,2.159-0.808,3.233c-0.5,1.563-0.681,3.233-1.925,4.477c-1.212,1.404-3.02,2.137-4.87,1.967
		c-0.798-0.053-1.595-0.085-2.393-0.149c0,0,0-0.032-0.032-0.053c1.053-1.84,2.106-3.679,3.19-5.498
		c0.787,0.096,1.584,0.128,2.371,0.117c0.744-0.138,1.01-0.946,1.234-1.531c0.819-2.818,1.563-5.647,2.276-8.497
		c0.053-0.128,0.064-0.266,0.117-0.383c0.213-0.925,0.489-1.85,0.702-2.765c-0.978-0.074-1.957,0.255-2.69,0.915
		c-0.606,0.649-1.361,1.361-1.223,2.308c0.085,0.032,0,0.138,0.064,0.181c0.074,0.234,0.17,0.457,0.298,0.659
		c0,0.096,0.096,0.181,0.128,0.276c0.383,0.468,0.617,0.957,0.978,1.393c0,0.096-0.17,0.202-0.202,0.276
		c-0.861,1.01-1.723,2.106-2.627,3.073h-0.032c-0.245-0.627-0.51-1.244-0.734-1.872c-0.021-0.202-0.149-0.362-0.17-0.564
		c-0.074-0.223-0.138-0.447-0.181-0.681c-0.074-0.234-0.128-0.468-0.17-0.712c-0.021-0.33,0.053-0.627,0.032-0.978
		c0.064-0.287,0.138-0.564,0.234-0.84c0.276-0.904,0.691-1.765,1.234-2.552c1.095-1.478,2.244-3.531,4.264-3.733
		c0.691-0.096,1.382-0.117,2.074-0.053c0.564-0.5,1.127-1.021,1.723-1.489c0.032,0.064,0,0.149,0.053,0.213
		c0.117,1.414,0.287,2.797,0.415,4.179c0.053,0.149,0,0.383,0.085,0.564c-0.053,0.117,0.032,0.245,0,0.383
		c0.149,1.308,0.276,2.69,0.383,3.945c0.053,0.149,0,0.362,0.074,0.521c0.064,0.744,0.149,1.51,0.245,2.265
		c-0.032,0.287,0.074,0.532,0.074,0.84c0.17-0.096,0.17-0.33,0.276-0.5c2.063-3.839,3.913-7.805,6.306-11.549
		c0.744-0.915,1.797-1.308,2.871-1.574c1.074-0.266,2.297,0.021,3.307,0.372H46.507z M67.775,25.199
		c-0.51,0.032-0.957,0.34-1.18,0.798c-0.234,0.532-0.138,1.159,0.234,1.606c0.298,0.319,0.723,0.457,1.148,0.383
		c0.415-0.106,0.766-0.383,0.968-0.766c0.255-0.564,0.138-1.212-0.287-1.659C68.424,25.327,68.105,25.199,67.775,25.199z
		 M85.704,29.24c-0.34,0-0.659,0.16-0.861,0.425c-0.851,1-1.244,2.201-1.574,3.435c0.915-0.521,1.723-1.212,2.371-2.052
		c0.213-0.298,0.34-0.638,0.383-1c0.053-0.223,0.021-0.457-0.085-0.659C85.864,29.347,85.779,29.294,85.704,29.24z M90.521,34.058
		c-0.064,0.425,0.074,0.872,0.383,1.18c0.489,0.383,1.138,0.479,1.712,0.245c0.362-0.138,0.606-0.479,0.627-0.861
		c0.117-0.957-0.213-1.925-0.5-2.786C91.946,32.601,91.298,33.345,90.521,34.058z M48.453,32.388
		c-2.074,0.659-2.988,2.935-3.201,4.934c0,0.415-0.053,0.925,0.298,1.191c0.266,0.085,0.5-0.085,0.712-0.181
		c0.798-0.489,1.542-1.063,2.223-1.701c0.33-0.893,0.532-1.85,0.829-2.765c0.16-0.447,0.287-0.893,0.383-1.361
		C49.399,32.186,48.836,32.261,48.453,32.388z"/>
</g>
</svg>
