<?xml version="1.0" encoding="UTF-8"?><svg id="_レイヤー_1" xmlns="http://www.w3.org/2000/svg" width="500.2" height="500.2" xmlns:xlink="http://www.w3.org/1999/xlink" viewBox="0 0 500.2 500.2"><defs><style>.cls-1{fill:#fff;}.cls-2{clip-path:url(#clippath);}.cls-3{fill:none;}.cls-4{fill:#231815;}</style><clipPath id="clippath"><rect class="cls-3" width="500.2" height="500.2"/></clipPath></defs><g class="cls-2"><g><path class="cls-1" d="M427.32,126.51l.78-4.88c.1-.68,.2-1.17,.29-1.47h1.47c8.69,0,14.95,5.67,14.95,5.67l2.64,2.64c1.37,1.37,3.32,2.05,5.18,1.76,1.95-.2,3.61-1.27,4.69-2.93l41.91-66.63c1.07-1.66,1.27-3.71,.59-5.47-.68-1.86-2.15-3.22-4.01-3.91l-15.92-5.28c-22.57-7.42-38.49-10.65-53.24-10.65-36.24,0-62.92,19.54-86.65,63.4l-67.12,119.48-16.22-180.15c-.2-2.44-1.76-4.49-4.1-5.37-2.25-.88-4.79-.39-6.55,1.27l-38.3,36.15c-2.64,0-5.18-.1-7.62-.1-28.14,0-50.12,7.03-67.21,21.49-1.56,1.37-5.76,4.98-9.96,8.89-2.34,2.15-4.69,4.4-6.35,6.15l-.2,.2-1.07,1.07-.39,.39c-10.65,10.16-36.44,38.1-45.04,77.08,0,.1-3.13,14.26-3.91,19.15-2.15,13.58-4.2,49.82,21.79,92.61l9.28,15.24c1.07,1.76,2.83,2.83,4.88,3.03,1.95,.2,4.01-.59,5.28-2.15l28.72-32.43c-10.65,36.44-17,50.21-19.83,55.2-5.37,.98-11.53,1.47-18.27,1.47s-12.7-.59-14.75-.78h-.1l-8.6-1.17c-2.54-.29-4.98,.88-6.35,3.13L.88,453.5c-1.07,1.95-1.17,4.3,0,6.25,1.07,1.95,3.13,3.22,5.28,3.32l21.79,.88c4.59,.2,9.18,.39,13.58,.59h.29c11.33,.49,20.71,.88,29.99,.88,19.64,0,42.4-1.66,62.52-13.97,31.85-17,51.39-61.55,66.33-112.35,2.93,38.2,5.47,69.36,5.47,69.75l2.34,28.53c.2,2.44,1.86,4.59,4.2,5.47,2.34,.88,4.88,.29,6.64-1.56l51.88-52.85c.49-.49,.88-.98,1.17-1.56l32.63-64.97c-4.69,32.34-8.89,60.67-9.96,67.8-.29,2.15-.49,3.32-.59,4.1-2.15,27.65,2.54,47.28,14.26,59.89,8.69,9.38,20.32,14.07,34.58,14.07,26.08,0,61.94-16.61,112.84-52.36l3.32-2.34c1.07-.78,1.86-1.76,2.34-3.03l23.84-65.36c.88-2.34,.29-4.88-1.47-6.64s-4.4-2.34-6.64-1.47l-26.67,9.96c-9.18,3.42-17.98,7.03-26.57,10.55l-.68,.29c-11.53,4.69-25.11,10.26-34.68,13.09,1.37-8.6,2.54-16.71,2.83-18.86,3.03-23.25,11.63-81.09,35.76-224.99l-.2-.1Zm-282.14,57.93c.1-.29,.39-.88,.68-1.47l.2-.39v-.2l1.27-2.64s.39-.68,1.86-3.22l.29-.49c3.03-5.18,9.57-10.26,16.31-13.87-1.17,4.59-2.44,9.96-2.93,12.21-1.76,7.72-4.2,18.46-7.23,30.97-8.4-10.65-11.92-17.68-10.45-21v.1Z"/><path class="cls-4" d="M343.3,461.41c-12.41,0-22.47-4.1-29.89-12.11-10.45-11.23-14.56-29.21-12.6-55.1,0-.78,.2-1.95,.49-3.61,1.47-9.77,8.79-59.89,15.53-106.58l-50.21,99.94-51.88,52.85-2.34-28.53c-.2-2.54-4.59-55.2-8.21-106.58-14.26,56.37-34.29,123.68-73.08,144.2-18.76,11.63-40.54,13.19-59.3,13.19s-19.34-.49-29.89-.88v-3.03l-.1,3.03c-4.49-.2-8.99-.39-13.68-.59l-21.79-.88,67.12-114.99,8.69,1.17s6.64,.88,15.63,.88,15.73-.68,22.18-2.15c2.74-3.81,10.55-18.17,25.11-69.66,1.47-5.08,2.93-10.45,4.4-16.02l-46.99,53.15-9.28-15.24c-24.91-41.03-22.96-75.52-20.91-88.41,.59-4.1,3.13-15.34,3.81-18.76,8.21-37.32,33.02-64.09,43.28-73.86,.39-.39,.88-.88,1.56-1.47l.2-.2c1.66-1.66,3.91-3.81,6.25-5.96,4.01-3.71,8.11-7.33,9.67-8.6,15.92-13.48,36.64-20.03,63.11-20.03s6.35,0,10.06,.2l40.25-37.91,18.07,200.47,77.08-137.26c22.47-41.62,47.58-60.18,81.18-60.18s29.41,3.13,51.29,10.36l15.92,5.28-41.91,66.63-2.64-2.64s-7.91-7.52-19.34-7.52h-.49c-1.56,0-3.13,0-4.49,.59-1.37,.49-2.25,1.95-2.64,4.1-.1,.59-.49,3.03-1.17,7.03-24.13,143.71-32.73,201.84-35.76,225.19-.39,2.93-2.93,19.25-4.01,26.08v.29c0,.39-.2,.88-.2,1.17,9.38-.68,28.14-8.4,44.74-15.24,8.79-3.61,17.78-7.33,27.16-10.75l26.67-9.96-23.84,65.36-3.32,2.34c-49.73,34.97-84.41,51.29-109.12,51.29l-.39-.1ZM175.75,151.43c-11.04,2.93-25.89,11.63-31.65,21.49l-.2,.39c-1.66,2.93-2.05,3.61-2.15,3.71-.49,.98-.88,1.86-1.27,2.64l-.2,.39c-.39,.68-.68,1.37-.78,1.66-4.4,9.77,10.55,27.06,18.66,36.34,.29,.29,.49,.59,.78,.98,4.3-17.58,7.91-33.02,10.16-43.28,.78-3.52,3.42-14.26,4.49-17.68,.59-1.95,1.17-3.81,1.56-4.88,.1-.49,.39-1.07,.59-1.86v.1Z"/><path class="cls-1" d="M343.3,458.38c-11.53,0-20.91-3.71-27.75-11.14-9.77-10.55-13.68-27.84-11.72-52.75,0-.88,.29-2.34,.49-3.42,1.76-11.23,11.04-75.22,18.27-125.24l-58.42,116.26-46.89,47.77-1.86-21.88c0-.98-5.67-68.58-9.57-125.83-15.53,62.92-35.07,139.31-76.3,161.1-18.17,11.23-39.37,12.7-57.84,12.7s-19.25-.49-29.7-.98c-4.49-.2-9.09-.39-13.77-.59l-16.71-.68,63.5-108.83,6.64,.88s6.84,.88,16.02,.88,17.1-.78,23.94-2.44c2.54-3.03,10.65-16.12,26.28-71.61,2.64-9.38,5.18-19.05,7.72-28.53l-52.75,59.59-7.13-11.63c-24.42-40.15-22.47-73.76-20.52-86.36,.59-3.91,3.03-15.24,3.81-18.56,8.01-36.54,32.34-62.72,42.4-72.29,.49-.39,.98-.98,1.66-1.66,1.66-1.56,3.91-3.81,6.25-5.96,4.01-3.71,8.01-7.23,9.57-8.5,15.34-12.99,35.37-19.34,61.16-19.34s7.72,.1,11.14,.29l36.64-34.49,18.37,204.08,81.87-145.86c21.98-40.54,46.11-58.62,78.45-58.62s28.82,3.03,50.31,10.16l12.21,4.01-37.81,60.08s-8.5-8.4-21.49-8.4-3.91,0-6.06,.68c-2.15,.78-4.01,2.93-4.59,6.55-.88,5.28-29.5,174.78-36.93,232.32-.39,3.52-4.01,26.18-4.01,26.38-.39,2.54-.29,3.91-.2,4.69,.39,0,.88,.1,1.66,.1,9.48,0,28.62-7.82,47.19-15.44,8.79-3.61,17.78-7.33,27.06-10.75l20.42-7.62-21.2,58.23-2.54,1.86c-49.24,34.58-83.33,50.7-107.37,50.7l.1,.1ZM176.34,148.1c-11.23,2.54-28.14,11.82-34.88,23.25l-.2,.39c-1.56,2.64-2.05,3.61-2.25,4.01-.39,.88-.88,1.86-1.27,2.64l-1.07,2.15c-5.18,11.63,10.06,29.11,19.15,39.57,1.66,1.95,3.22,3.71,4.59,5.37,4.88-19.83,8.99-37.51,11.63-49.04,.78-3.42,3.32-14.07,4.4-17.39,.59-1.95,1.17-3.71,1.56-4.79,.29-.88,.78-2.34,1.27-3.91,.29-1.86-1.56-2.54-2.93-2.25Z"/><path class="cls-4" d="M457.6,364.69c-47.87,17.88-94.47,44.45-89.2,10.45,.29-1.66,3.52-22.96,3.91-26.08,8.89-69.36,39.18-245.41,39.18-245.41,25.89-7.72,36.44,2.05,36.44,2.05l25.89-41.13c-50.9-16.8-83.92-17-116.84,43.77l-97.79,174.29-19.44-215.71-24.72,23.25c-19.64-1.17-47.77-2.05-69.66,16.41-1.47,1.27-5.47,4.69-9.18,8.21-3.22,2.93-6.35,6.06-7.82,7.52-14.65,13.97-33.12,38-39.57,67.21-.68,3.03-3.13,14.26-3.71,17.98-2.54,16.12-1.17,45.92,19.25,79.52l48.36-54.71c-9.87-12.11-34.49-35.66-25.3-55.78,.39-.88,1.47-3.03,2.34-4.98,.68-1.37,2.44-4.4,2.93-5.28,9.67-16.31,34.49-28.62,48.55-28.82,13.09-2.05,10.06,8.6,6.15,20.22-.39,1.07-.88,2.74-1.47,4.49-.88,2.93-3.42,13.09-4.2,16.71-9.67,42.89-41.42,177.12-57.84,175.36-20.52,4.79-43.57,1.76-43.57,1.76l-51.68,88.61c39.86,1.56,71.9,5.18,95.94-9.87,52.75-27.26,69.66-166.57,87.92-213.95,1.66,49.82,12.99,186.6,12.99,186.6l30.38-30.97,85.58-170.38s-24.23,167.74-27.26,186.69c-.2,1.27-.29,2.34-.39,2.64-5.28,70.14,37.61,69.85,131.11,4.2l12.7-34.78v-.1Z"/></g></g></svg>